<svg width="24" height="20" viewBox="0 0 24 20" fill="none" xmlns="http://www.w3.org/2000/svg">
<path d="M21.6823 8.34066H5.00361L10.4909 2.85338C10.6472 2.69833 10.7713 2.51386 10.856 2.31061C10.9407 2.10737 10.9843 1.88937 10.9843 1.66919C10.9843 1.44901 10.9407 1.23101 10.856 1.02777C10.7713 0.824521 10.6472 0.640054 10.4909 0.485004C10.1784 0.174361 9.75568 0 9.31505 0C8.87442 0 8.4517 0.174361 8.1392 0.485004L0.984043 7.65684C0.357612 8.27954 0.003724 9.12527 0 10.0085C0.00811683 10.886 0.361668 11.7249 0.984043 12.3435L8.1392 19.5154C8.29471 19.6698 8.47911 19.7921 8.68188 19.8752C8.88464 19.9584 9.1018 20.0008 9.32095 20C9.5401 19.9992 9.75695 19.9553 9.95912 19.8707C10.1613 19.7861 10.3448 19.6625 10.4992 19.507C10.6537 19.3515 10.7759 19.1671 10.8591 18.9644C10.9422 18.7616 10.9846 18.5444 10.9838 18.3253C10.9831 18.1061 10.9391 17.8893 10.8546 17.6871C10.77 17.485 10.6464 17.3014 10.4909 17.147L5.00361 11.6764H21.6823C22.1246 11.6764 22.5489 11.5007 22.8617 11.1879C23.1744 10.8751 23.3502 10.4509 23.3502 10.0085C23.3502 9.56618 23.1744 9.14196 22.8617 8.82917C22.5489 8.51638 22.1246 8.34066 21.6823 8.34066Z" fill="#202020"/>
</svg>
