<svg width="24" height="25" viewBox="0 0 24 25" fill="none" xmlns="http://www.w3.org/2000/svg">
<g clip-path="url(#clip0_126_5)">
<path d="M12 12.0035C13.1867 12.0035 14.3467 11.6516 15.3334 10.9923C16.3201 10.333 17.0892 9.39593 17.5433 8.29958C17.9974 7.20322 18.1162 5.99682 17.8847 4.83293C17.6532 3.66905 17.0818 2.59995 16.2426 1.76084C15.4035 0.921722 14.3344 0.350277 13.1705 0.118766C12.0067 -0.112745 10.8003 0.0060749 9.7039 0.460201C8.60754 0.914326 7.67047 1.68336 7.01118 2.67006C6.35189 3.65675 6 4.81679 6 6.00348C6.00159 7.59429 6.63424 9.11949 7.75911 10.2444C8.88399 11.3692 10.4092 12.0019 12 12.0035ZM12 2.00348C12.7911 2.00348 13.5645 2.23807 14.2223 2.6776C14.8801 3.11712 15.3928 3.74184 15.6955 4.47274C15.9983 5.20365 16.0775 6.00791 15.9231 6.78384C15.7688 7.55976 15.3878 8.27249 14.8284 8.8319C14.269 9.39131 13.5563 9.77228 12.7804 9.92662C12.0044 10.081 11.2002 10.0017 10.4693 9.69899C9.73836 9.39624 9.11365 8.88355 8.67412 8.22576C8.2346 7.56796 8 6.7946 8 6.00348C8 4.94261 8.42143 3.92519 9.17157 3.17505C9.92172 2.4249 10.9391 2.00348 12 2.00348Z" fill="white"/>
<path d="M12 14.0035C9.61386 14.0061 7.32621 14.9552 5.63896 16.6424C3.95171 18.3297 3.00265 20.6173 3 23.0035C3 23.2687 3.10536 23.523 3.29289 23.7106C3.48043 23.8981 3.73478 24.0035 4 24.0035C4.26522 24.0035 4.51957 23.8981 4.70711 23.7106C4.89464 23.523 5 23.2687 5 23.0035C5 21.147 5.7375 19.3665 7.05025 18.0537C8.363 16.741 10.1435 16.0035 12 16.0035C13.8565 16.0035 15.637 16.741 16.9497 18.0537C18.2625 19.3665 19 21.147 19 23.0035C19 23.2687 19.1053 23.523 19.2929 23.7106C19.4804 23.8981 19.7348 24.0035 20 24.0035C20.2652 24.0035 20.5196 23.8981 20.7071 23.7106C20.8946 23.523 21 23.2687 21 23.0035C20.9973 20.6173 20.0483 18.3297 18.361 16.6424C16.6738 14.9552 14.3861 14.0061 12 14.0035Z" fill="white"/>
<g clip-path="url(#clip1_126_5)">
<path d="M12 12.0034C13.1867 12.0034 14.3467 11.6515 15.3334 10.9922C16.3201 10.3329 17.0892 9.39587 17.5433 8.29951C17.9974 7.20316 18.1162 5.99676 17.8847 4.83287C17.6532 3.66899 17.0818 2.59989 16.2426 1.76078C15.4035 0.921661 14.3344 0.350216 13.1705 0.118705C12.0067 -0.112806 10.8003 0.00601387 9.7039 0.46014C8.60754 0.914265 7.67047 1.6833 7.01118 2.66999C6.35189 3.65669 6 4.81673 6 6.00342C6.00159 7.59423 6.63424 9.11943 7.75911 10.2443C8.88399 11.3692 10.4092 12.0018 12 12.0034ZM12 2.00342C12.7911 2.00342 13.5645 2.23801 14.2223 2.67754C14.8801 3.11706 15.3928 3.74178 15.6955 4.47268C15.9983 5.20359 16.0775 6.00785 15.9231 6.78378C15.7688 7.5597 15.3878 8.27243 14.8284 8.83184C14.269 9.39125 13.5563 9.77221 12.7804 9.92656C12.0044 10.0809 11.2002 10.0017 10.4693 9.69893C9.73836 9.39618 9.11365 8.88349 8.67412 8.22569C8.2346 7.5679 8 6.79454 8 6.00342C8 4.94255 8.42143 3.92513 9.17157 3.17499C9.92172 2.42484 10.9391 2.00342 12 2.00342Z" fill="black"/>
<path d="M12 14.0035C9.61386 14.0061 7.32621 14.9552 5.63896 16.6424C3.95171 18.3297 3.00265 20.6173 3 23.0035C3 23.2687 3.10536 23.5231 3.29289 23.7106C3.48043 23.8981 3.73478 24.0035 4 24.0035C4.26522 24.0035 4.51957 23.8981 4.70711 23.7106C4.89464 23.5231 5 23.2687 5 23.0035C5 21.147 5.7375 19.3665 7.05025 18.0537C8.363 16.741 10.1435 16.0035 12 16.0035C13.8565 16.0035 15.637 16.741 16.9497 18.0537C18.2625 19.3665 19 21.147 19 23.0035C19 23.2687 19.1053 23.5231 19.2929 23.7106C19.4804 23.8981 19.7348 24.0035 20 24.0035C20.2652 24.0035 20.5196 23.8981 20.7071 23.7106C20.8946 23.5231 21 23.2687 21 23.0035C20.9973 20.6173 20.0483 18.3297 18.361 16.6424C16.6738 14.9552 14.3861 14.0061 12 14.0035Z" fill="black"/>
</g>
</g>
<defs>
<clipPath id="clip0_126_5">
<rect width="24" height="24" fill="white" transform="translate(0 0.003479)"/>
</clipPath>
<clipPath id="clip1_126_5">
<rect width="24" height="24" fill="white" transform="translate(0 0.003479)"/>
</clipPath>
</defs>
</svg>
