<svg width="24" height="24" viewBox="0 0 24 24" fill="none" xmlns="http://www.w3.org/2000/svg">
<g clip-path="url(#clip0_130_12)">
<path d="M17.4999 1.91697C16.3739 1.93448 15.2724 2.24882 14.3067 2.82824C13.341 3.40766 12.5453 4.23164 12 5.21697C11.4546 4.23164 10.6589 3.40766 9.69319 2.82824C8.72749 2.24882 7.626 1.93448 6.49996 1.91697C4.7049 1.99496 3.01366 2.78022 1.79574 4.1012C0.577817 5.42218 -0.0677922 7.17149 -4.17121e-05 8.96697C-4.17121e-05 13.514 4.78596 18.48 8.79995 21.847C9.69617 22.6001 10.8293 23.013 12 23.013C13.1706 23.013 14.3037 22.6001 15.1999 21.847C19.2139 18.48 23.9999 13.514 23.9999 8.96697C24.0677 7.17149 23.4221 5.42218 22.2042 4.1012C20.9862 2.78022 19.295 1.99496 17.4999 1.91697ZM13.915 20.317C13.3789 20.7683 12.7007 21.0159 12 21.0159C11.2992 21.0159 10.621 20.7683 10.085 20.317C4.94696 16.006 1.99996 11.87 1.99996 8.96697C1.9316 7.70169 2.36632 6.4607 3.20932 5.51467C4.05232 4.56864 5.23519 3.99432 6.49996 3.91697C7.76472 3.99432 8.94759 4.56864 9.79059 5.51467C10.6336 6.4607 11.0683 7.70169 11 8.96697C11 9.23219 11.1053 9.48654 11.2928 9.67408C11.4804 9.86161 11.7347 9.96697 12 9.96697C12.2652 9.96697 12.5195 9.86161 12.7071 9.67408C12.8946 9.48654 13 9.23219 13 8.96697C12.9316 7.70169 13.3663 6.4607 14.2093 5.51467C15.0523 4.56864 16.2352 3.99432 17.4999 3.91697C18.7647 3.99432 19.9476 4.56864 20.7906 5.51467C21.6336 6.4607 22.0683 7.70169 21.9999 8.96697C21.9999 11.87 19.0529 16.006 13.915 20.313V20.317Z" fill="black"/>
</g>
<defs>
<clipPath id="clip0_130_12">
<rect width="24" height="24" fill="white"/>
</clipPath>
</defs>
</svg>
