<svg width="48" height="48" viewBox="0 0 48 48" fill="none" xmlns="http://www.w3.org/2000/svg">
<circle cx="24" cy="24" r="24" fill="#1C1C1C"/>
<g clip-path="url(#clip0_137_13)">
<path d="M33.4591 17.0618L20.7916 29.7283C20.7065 29.8138 20.6053 29.8816 20.4938 29.9279C20.3824 29.9742 20.2629 29.998 20.1422 29.998C20.0215 29.998 19.902 29.9742 19.7906 29.9279C19.6791 29.8816 19.5779 29.8138 19.4927 29.7283L14.5941 24.825C14.5089 24.7395 14.4077 24.6717 14.2962 24.6254C14.1848 24.5791 14.0653 24.5552 13.9446 24.5552C13.8239 24.5552 13.7044 24.5791 13.593 24.6254C13.4815 24.6717 13.3803 24.7395 13.2952 24.825C13.2097 24.9102 13.1418 25.0114 13.0955 25.1228C13.0492 25.2343 13.0254 25.3538 13.0254 25.4745C13.0254 25.5951 13.0492 25.7146 13.0955 25.8261C13.1418 25.9375 13.2097 26.0388 13.2952 26.1239L18.1957 31.0235C18.7126 31.5395 19.4132 31.8293 20.1436 31.8293C20.874 31.8293 21.5745 31.5395 22.0915 31.0235L34.758 18.3598C34.8433 18.2746 34.9111 18.1735 34.9573 18.0621C35.0035 17.9507 35.0273 17.8313 35.0273 17.7108C35.0273 17.5902 35.0035 17.4708 34.9573 17.3594C34.9111 17.2481 34.8433 17.1469 34.758 17.0618C34.6728 16.9763 34.5716 16.9084 34.4601 16.8621C34.3487 16.8158 34.2292 16.792 34.1085 16.792C33.9878 16.792 33.8683 16.8158 33.7569 16.8621C33.6454 16.9084 33.5442 16.9763 33.4591 17.0618Z" fill="white"/>
</g>
<defs>
<clipPath id="clip0_137_13">
<rect width="22" height="22" fill="white" transform="translate(13 13)"/>
</clipPath>
</defs>
</svg>
