<svg width="23" height="23" viewBox="0 0 23 23" fill="none" xmlns="http://www.w3.org/2000/svg">
<g clip-path="url(#clip0_187_224)">
<path d="M15.3333 7.66663C15.1536 7.48697 14.9099 7.38605 14.6558 7.38605C14.4017 7.38605 14.158 7.48697 13.9782 7.66663L11.5 10.1449L9.02174 7.66663C8.841 7.49207 8.59892 7.39547 8.34765 7.39766C8.09638 7.39984 7.85602 7.50063 7.67833 7.67831C7.50065 7.85599 7.39986 8.09635 7.39768 8.34763C7.3955 8.5989 7.49209 8.84097 7.66666 9.02172L10.1449 11.5L7.66666 13.9782C7.49209 14.159 7.3955 14.401 7.39768 14.6523C7.39986 14.9036 7.50065 15.1439 7.67833 15.3216C7.85602 15.4993 8.09638 15.6001 8.34765 15.6023C8.59892 15.6045 8.841 15.5079 9.02174 15.3333L11.5 12.8551L13.9782 15.3333C14.159 15.5079 14.4011 15.6045 14.6523 15.6023C14.9036 15.6001 15.144 15.4993 15.3217 15.3216C15.4993 15.1439 15.6001 14.9036 15.6023 14.6523C15.6045 14.401 15.5079 14.159 15.3333 13.9782L12.8551 11.5L15.3333 9.02172C15.513 8.842 15.6139 8.59829 15.6139 8.34418C15.6139 8.09006 15.513 7.84635 15.3333 7.66663Z" fill="#2D2D2D"/>
<path d="M11.5 0C9.22552 0 7.00211 0.674462 5.11095 1.93809C3.21978 3.20173 1.7458 4.99778 0.875391 7.09912C0.00498279 9.20047 -0.222756 11.5127 0.220974 13.7435C0.664704 15.9743 1.75997 18.0234 3.36828 19.6317C4.97658 21.24 7.02569 22.3352 9.25647 22.779C11.4872 23.2227 13.7995 22.995 15.9009 22.1246C18.0022 21.2542 19.7983 19.7802 21.0619 17.889C22.3255 15.9979 23 13.7745 23 11.5C22.9967 8.451 21.784 5.52785 19.6281 3.37191C17.4721 1.21596 14.549 0.0032977 11.5 0V0ZM11.5 21.0833C9.6046 21.0833 7.75176 20.5212 6.17579 19.4682C4.59982 18.4152 3.3715 16.9185 2.64616 15.1673C1.92082 13.4162 1.73104 11.4893 2.10081 9.63036C2.47059 7.77138 3.38331 6.0638 4.72357 4.72355C6.06382 3.3833 7.77141 2.47058 9.63039 2.1008C11.4894 1.73103 13.4163 1.92081 15.1674 2.64615C16.9185 3.37149 18.4152 4.5998 19.4683 6.17577C20.5213 7.75174 21.0833 9.60457 21.0833 11.5C21.0805 14.0408 20.07 16.4767 18.2734 18.2733C16.4767 20.0699 14.0408 21.0805 11.5 21.0833Z" fill="#2D2D2D"/>
</g>
<defs>
<clipPath id="clip0_187_224">
<rect width="23" height="23" fill="white"/>
</clipPath>
</defs>
</svg>
