<svg width="44" height="229" viewBox="0 0 44 229" fill="none" xmlns="http://www.w3.org/2000/svg">
<path d="M3.675 5.45V8.225H8.535V10.175H3.675V14H1.245V3.5H9.18V5.45H3.675ZM18.9551 12.05V14H10.8251V3.5H18.7601V5.45H13.2401V7.73H18.1151V9.62H13.2401V12.05H18.9551ZM28.5986 8.54C29.1986 8.73 29.6686 9.05 30.0086 9.5C30.3486 9.94 30.5186 10.485 30.5186 11.135C30.5186 12.055 30.1586 12.765 29.4386 13.265C28.7286 13.755 27.6886 14 26.3186 14H20.8886V3.5H26.0186C27.2986 3.5 28.2786 3.745 28.9586 4.235C29.6486 4.725 29.9936 5.39 29.9936 6.23C29.9936 6.74 29.8686 7.195 29.6186 7.595C29.3786 7.995 29.0386 8.31 28.5986 8.54ZM23.3036 5.33V7.805H25.7186C26.3186 7.805 26.7736 7.7 27.0836 7.49C27.3936 7.28 27.5486 6.97 27.5486 6.56C27.5486 6.15 27.3936 5.845 27.0836 5.645C26.7736 5.435 26.3186 5.33 25.7186 5.33H23.3036ZM26.1386 12.17C26.7786 12.17 27.2586 12.065 27.5786 11.855C27.9086 11.645 28.0736 11.32 28.0736 10.88C28.0736 10.01 27.4286 9.575 26.1386 9.575H23.3036V12.17H26.1386Z" fill="#1C1C1C"/>
<path d="M12.635 22.5V33H10.205V24.45H8.105V22.5H12.635ZM24.074 30.795H22.364V33H19.994V30.795H14.339V29.16L19.289 22.5H21.839L17.249 28.815H20.069V26.85H22.364V28.815H24.074V30.795Z" fill="#1C1C1C"/>
<line x1="14.75" y1="56.75" x2="14.75" y2="319.25" stroke="black" stroke-width="1.5" stroke-linecap="round"/>
</svg>
