<svg width="41" height="41" viewBox="0 0 41 41" fill="none" xmlns="http://www.w3.org/2000/svg">
<path d="M40.0836 20.5C40.0836 17.2907 39.3113 14.1285 37.8319 11.2805C36.3525 8.43252 34.2095 5.98238 31.5838 4.13701C28.9581 2.29163 25.9268 1.10523 22.7461 0.678005C19.5653 0.250777 16.3285 0.595268 13.3089 1.68238C10.2893 2.7695 7.57568 4.56731 5.3972 6.92398C3.21871 9.28065 1.63935 12.127 0.792501 15.2225C-0.0543509 18.3181 -0.14382 21.572 0.53165 24.7094C1.20712 27.8469 2.62769 30.7757 4.67338 33.2485L9.29646 29.4239C7.86448 27.693 6.87008 25.6428 6.39725 23.4466C5.92442 21.2504 5.98705 18.9727 6.57984 16.8058C7.17264 14.6389 8.2782 12.6465 9.80313 10.9968C11.3281 9.34712 13.2276 8.08865 15.3413 7.32767C17.455 6.56669 19.7208 6.32554 21.9473 6.6246C24.1739 6.92366 26.2957 7.75414 28.1337 9.0459C29.9717 10.3377 31.4718 12.0528 32.5074 14.0464C33.543 16.04 34.0836 18.2535 34.0836 20.5H40.0836Z" fill="url(#paint0_linear_42_12)"/>
<path d="M20.0836 3.5C20.0836 1.84315 21.4342 0.476975 23.0725 0.72458C25.4472 1.08351 27.7463 1.86855 29.8561 3.05008C32.8417 4.72214 35.3485 7.1323 37.1365 10.05C38.9244 12.9678 39.9339 16.2954 40.0682 19.7148C40.2026 23.1342 39.4573 26.5308 37.9038 29.5798C36.3502 32.6288 34.0403 35.2282 31.1951 37.1294C28.3498 39.0305 25.0643 40.1699 21.6528 40.4383C18.2414 40.7068 14.8181 40.0955 11.7105 38.6629C9.51449 37.6505 7.52802 36.252 5.84178 34.5417C4.67852 33.3619 4.98994 31.4662 6.33036 30.4924C7.67078 29.5185 9.52973 29.8467 10.7664 30.9493C11.796 31.8674 12.9597 32.6319 14.2224 33.214C16.3978 34.2169 18.7941 34.6448 21.1821 34.4568C23.5701 34.2689 25.8699 33.4714 27.8616 32.1406C29.8533 30.8098 31.4703 28.9902 32.5577 26.8559C33.6452 24.7216 34.1669 22.3439 34.0729 19.9504C33.9788 17.5568 33.2722 15.2274 32.0206 13.185C30.769 11.1426 29.0143 9.4555 26.9243 8.28506C25.7112 7.60567 24.4087 7.11355 23.0608 6.82021C21.4418 6.46787 20.0836 5.15685 20.0836 3.5Z" fill="url(#paint1_linear_42_12)"/>
<path d="M27.8876 18.212C27.6823 18.212 27.5143 18.1427 27.3836 18.004C27.2556 17.8627 27.1916 17.6747 27.1916 17.44C27.1916 17.2053 27.2556 17.0187 27.3836 16.88C27.5143 16.7387 27.6823 16.668 27.8876 16.668C28.093 16.668 28.2596 16.7387 28.3876 16.88C28.5156 17.0187 28.5796 17.2053 28.5796 17.44C28.5796 17.6747 28.5156 17.8627 28.3876 18.004C28.2596 18.1427 28.093 18.212 27.8876 18.212ZM29.5556 16.7H30.0316L28.1196 19.5H27.6436L29.5556 16.7ZM27.8876 17.884C27.9783 17.884 28.049 17.8467 28.0996 17.772C28.153 17.6973 28.1796 17.5867 28.1796 17.44C28.1796 17.2933 28.153 17.1827 28.0996 17.108C28.049 17.0333 27.9783 16.996 27.8876 16.996C27.7996 16.996 27.729 17.0347 27.6756 17.112C27.6223 17.1867 27.5956 17.296 27.5956 17.44C27.5956 17.584 27.6223 17.6947 27.6756 17.772C27.729 17.8467 27.7996 17.884 27.8876 17.884ZM29.7876 19.532C29.6543 19.532 29.5343 19.5013 29.4276 19.44C29.3236 19.376 29.2423 19.2853 29.1836 19.168C29.125 19.0507 29.0956 18.9147 29.0956 18.76C29.0956 18.6053 29.125 18.4693 29.1836 18.352C29.2423 18.2347 29.3236 18.1453 29.4276 18.084C29.5343 18.02 29.6543 17.988 29.7876 17.988C29.993 17.988 30.1596 18.0587 30.2876 18.2C30.4183 18.3387 30.4836 18.5253 30.4836 18.76C30.4836 18.9947 30.4183 19.1827 30.2876 19.324C30.1596 19.4627 29.993 19.532 29.7876 19.532ZM29.7876 19.204C29.8783 19.204 29.949 19.1667 29.9996 19.092C30.053 19.0147 30.0796 18.904 30.0796 18.76C30.0796 18.616 30.053 18.5067 29.9996 18.432C29.949 18.3547 29.8783 18.316 29.7876 18.316C29.6996 18.316 29.629 18.3533 29.5756 18.428C29.5223 18.5027 29.4956 18.6133 29.4956 18.76C29.4956 18.9067 29.5223 19.0173 29.5756 19.092C29.629 19.1667 29.6996 19.204 29.7876 19.204Z" fill="black"/>
<path d="M16.4276 19.316C16.9796 19.316 17.4756 19.424 17.9156 19.64C18.3556 19.848 18.6996 20.148 18.9476 20.54C19.1956 20.932 19.3196 21.384 19.3196 21.896C19.3196 22.44 19.1836 22.92 18.9116 23.336C18.6396 23.744 18.2716 24.06 17.8076 24.284C17.3436 24.508 16.8236 24.62 16.2476 24.62C15.0956 24.62 14.1996 24.26 13.5596 23.54C12.9276 22.82 12.6116 21.788 12.6116 20.444C12.6116 19.5 12.7836 18.696 13.1276 18.032C13.4716 17.36 13.9516 16.852 14.5676 16.508C15.1916 16.156 15.9116 15.98 16.7276 15.98C17.1596 15.98 17.5636 16.028 17.9396 16.124C18.3236 16.212 18.6556 16.344 18.9356 16.52L18.3596 17.696C17.9436 17.424 17.4116 17.288 16.7636 17.288C15.9556 17.288 15.3236 17.536 14.8676 18.032C14.4116 18.528 14.1836 19.244 14.1836 20.18V20.192C14.4316 19.904 14.7476 19.688 15.1316 19.544C15.5156 19.392 15.9476 19.316 16.4276 19.316ZM16.1636 23.396C16.6516 23.396 17.0476 23.268 17.3516 23.012C17.6556 22.748 17.8076 22.4 17.8076 21.968C17.8076 21.528 17.6556 21.18 17.3516 20.924C17.0476 20.668 16.6396 20.54 16.1276 20.54C15.6236 20.54 15.2116 20.676 14.8916 20.948C14.5796 21.22 14.4236 21.564 14.4236 21.98C14.4236 22.388 14.5756 22.728 14.8796 23C15.1916 23.264 15.6196 23.396 16.1636 23.396ZM22.5231 19.352C23.7071 19.352 24.5831 19.584 25.1511 20.048C25.7191 20.504 26.0031 21.128 26.0031 21.92C26.0031 22.424 25.8791 22.88 25.6311 23.288C25.3831 23.696 25.0111 24.02 24.5151 24.26C24.0191 24.5 23.4071 24.62 22.6791 24.62C22.0791 24.62 21.4991 24.536 20.9391 24.368C20.3791 24.192 19.9071 23.952 19.5231 23.648L20.1831 22.436C20.4951 22.692 20.8671 22.896 21.2991 23.048C21.7391 23.192 22.1911 23.264 22.6551 23.264C23.2071 23.264 23.6391 23.152 23.9511 22.928C24.2711 22.696 24.4311 22.38 24.4311 21.98C24.4311 21.548 24.2591 21.224 23.9151 21.008C23.5791 20.784 22.9991 20.672 22.1751 20.672H20.1471L20.5791 16.1H25.5111V17.408H21.8991L21.7191 19.352H22.5231Z" fill="black"/>
<defs>
<linearGradient id="paint0_linear_42_12" x1="20.0836" y1="0.5" x2="20.0836" y2="40.5" gradientUnits="userSpaceOnUse">
<stop stop-color="#C4C4C4"/>
<stop offset="1" stop-color="#C4C4C4" stop-opacity="0"/>
</linearGradient>
<linearGradient id="paint1_linear_42_12" x1="40.0836" y1="11.3911" x2="20.0836" y2="40.5" gradientUnits="userSpaceOnUse">
<stop stop-color="#016FE8"/>
<stop offset="1" stop-color="#F55D08"/>
</linearGradient>
</defs>
</svg>
