<svg width="41" height="41" viewBox="0 0 41 41" fill="none" xmlns="http://www.w3.org/2000/svg">
<path d="M40.0836 20.5C40.0836 24.7236 38.7465 28.8388 36.264 32.2557C33.7814 35.6727 30.2809 38.216 26.264 39.5211C22.2471 40.8263 17.9202 40.8263 13.9033 39.5211C9.88644 38.216 6.38587 35.6727 3.90331 32.2557C1.42075 28.8388 0.0836483 24.7236 0.0836487 20.5C0.0836491 16.2764 1.42075 12.1612 3.90331 8.74429C6.38587 5.32734 9.88644 2.78403 13.9033 1.47887C17.9202 0.17371 22.2471 0.17371 26.264 1.47887L24.4099 7.18521C21.5981 6.2716 18.5692 6.2716 15.7574 7.18521C12.9456 8.09882 10.4952 9.87914 8.75741 12.271C7.01962 14.6629 6.08365 17.5435 6.08365 20.5C6.08365 23.4565 7.01962 26.3371 8.75741 28.729C10.4952 31.1209 12.9456 32.9012 15.7574 33.8148C18.5692 34.7284 21.5981 34.7284 24.4099 33.8148C27.2217 32.9012 29.6721 31.1209 31.4099 28.729C33.1477 26.3371 34.0836 23.4565 34.0836 20.5H40.0836Z" fill="url(#paint0_linear_42_19)"/>
<path d="M20.0836 3.5C20.0836 1.84315 21.4342 0.47696 23.0725 0.72457C26.2262 1.20123 29.2355 2.42787 31.8394 4.31966C35.2563 6.80222 37.7996 10.3028 39.1048 14.3197C40.4099 18.3365 40.4099 22.6635 39.1048 26.6803C38.1102 29.7413 36.3966 32.5025 34.1254 34.7419C32.9456 35.9051 31.0499 35.5937 30.076 34.2533C29.1021 32.9129 29.4303 31.0539 30.533 29.8173C31.8163 28.378 32.7959 26.6807 33.3984 24.8262C34.312 22.0144 34.312 18.9856 33.3984 16.1738C32.4848 13.362 30.7045 10.9116 28.3126 9.17376C26.7351 8.02764 24.945 7.23029 23.0608 6.8202C21.4418 6.46785 20.0836 5.15685 20.0836 3.5Z" fill="url(#paint1_linear_42_19)"/>
<path d="M27.8876 18.212C27.6823 18.212 27.5143 18.1427 27.3836 18.004C27.2556 17.8627 27.1916 17.6747 27.1916 17.44C27.1916 17.2053 27.2556 17.0187 27.3836 16.88C27.5143 16.7387 27.6823 16.668 27.8876 16.668C28.093 16.668 28.2596 16.7387 28.3876 16.88C28.5156 17.0187 28.5796 17.2053 28.5796 17.44C28.5796 17.6747 28.5156 17.8627 28.3876 18.004C28.2596 18.1427 28.093 18.212 27.8876 18.212ZM29.5556 16.7H30.0316L28.1196 19.5H27.6436L29.5556 16.7ZM27.8876 17.884C27.9783 17.884 28.049 17.8467 28.0996 17.772C28.153 17.6973 28.1796 17.5867 28.1796 17.44C28.1796 17.2933 28.153 17.1827 28.0996 17.108C28.049 17.0333 27.9783 16.996 27.8876 16.996C27.7996 16.996 27.729 17.0347 27.6756 17.112C27.6223 17.1867 27.5956 17.296 27.5956 17.44C27.5956 17.584 27.6223 17.6947 27.6756 17.772C27.729 17.8467 27.7996 17.884 27.8876 17.884ZM29.7876 19.532C29.6543 19.532 29.5343 19.5013 29.4276 19.44C29.3236 19.376 29.2423 19.2853 29.1836 19.168C29.125 19.0507 29.0956 18.9147 29.0956 18.76C29.0956 18.6053 29.125 18.4693 29.1836 18.352C29.2423 18.2347 29.3236 18.1453 29.4276 18.084C29.5343 18.02 29.6543 17.988 29.7876 17.988C29.993 17.988 30.1596 18.0587 30.2876 18.2C30.4183 18.3387 30.4836 18.5253 30.4836 18.76C30.4836 18.9947 30.4183 19.1827 30.2876 19.324C30.1596 19.4627 29.993 19.532 29.7876 19.532ZM29.7876 19.204C29.8783 19.204 29.949 19.1667 29.9996 19.092C30.053 19.0147 30.0796 18.904 30.0796 18.76C30.0796 18.616 30.053 18.5067 29.9996 18.432C29.949 18.3547 29.8783 18.316 29.7876 18.316C29.6996 18.316 29.629 18.3533 29.5756 18.428C29.5223 18.5027 29.4956 18.6133 29.4956 18.76C29.4956 18.9067 29.5223 19.0173 29.5756 19.092C29.629 19.1667 29.6996 19.204 29.7876 19.204Z" fill="black"/>
<path d="M20.0996 22.592H18.6116V24.5H17.0996V22.592H12.4916V21.512L16.6316 16.1H18.2996L14.3996 21.272H17.1476V19.58H18.6116V21.272H20.0996V22.592ZM24.0202 24.62C23.3482 24.62 22.7482 24.452 22.2202 24.116C21.6922 23.772 21.2762 23.276 20.9722 22.628C20.6682 21.972 20.5162 21.196 20.5162 20.3C20.5162 19.404 20.6682 18.632 20.9722 17.984C21.2762 17.328 21.6922 16.832 22.2202 16.496C22.7482 16.152 23.3482 15.98 24.0202 15.98C24.6922 15.98 25.2922 16.152 25.8202 16.496C26.3562 16.832 26.7762 17.328 27.0802 17.984C27.3842 18.632 27.5362 19.404 27.5362 20.3C27.5362 21.196 27.3842 21.972 27.0802 22.628C26.7762 23.276 26.3562 23.772 25.8202 24.116C25.2922 24.452 24.6922 24.62 24.0202 24.62ZM24.0202 23.264C24.6202 23.264 25.0922 23.016 25.4362 22.52C25.7882 22.024 25.9642 21.284 25.9642 20.3C25.9642 19.316 25.7882 18.576 25.4362 18.08C25.0922 17.584 24.6202 17.336 24.0202 17.336C23.4282 17.336 22.9562 17.584 22.6042 18.08C22.2602 18.576 22.0882 19.316 22.0882 20.3C22.0882 21.284 22.2602 22.024 22.6042 22.52C22.9562 23.016 23.4282 23.264 24.0202 23.264Z" fill="black"/>
<defs>
<linearGradient id="paint0_linear_42_19" x1="9.58365" y1="23" x2="20.0836" y2="40.5" gradientUnits="userSpaceOnUse">
<stop stop-color="#C4C4C4"/>
<stop offset="1" stop-color="#C4C4C4" stop-opacity="0"/>
</linearGradient>
<linearGradient id="paint1_linear_42_19" x1="20.0836" y1="0.5" x2="20.0836" y2="40.5" gradientUnits="userSpaceOnUse">
<stop stop-color="#016FE8"/>
<stop offset="1" stop-color="#F55D08"/>
</linearGradient>
</defs>
</svg>
