<svg width="40" height="40" viewBox="0 0 40 40" fill="none" xmlns="http://www.w3.org/2000/svg">
<path d="M40 20C40 16.7907 39.2277 13.6285 37.7483 10.7805C36.2689 7.93252 34.1258 5.48238 31.5001 3.63701C28.8744 1.79163 25.8432 0.605233 22.6624 0.178005C19.4817 -0.249223 16.2448 0.0952682 13.2252 1.18238C10.2057 2.2695 7.49204 4.06731 5.31355 6.42398C3.13507 8.78066 1.5557 11.627 0.708852 14.7225C-0.138 17.8181 -0.227469 21.072 0.448001 24.2094C1.12347 27.3469 2.54404 30.2757 4.58973 32.7485L9.21281 28.9239C7.78083 27.193 6.78643 25.1428 6.3136 22.9466C5.84077 20.7504 5.9034 18.4727 6.4962 16.3058C7.08899 14.1389 8.19455 12.1465 9.71949 10.4968C11.2444 8.84712 13.144 7.58865 15.2577 6.82767C17.3714 6.06669 19.6372 5.82554 21.8637 6.1246C24.0902 6.42366 26.2121 7.25414 28.0501 8.5459C29.8881 9.83766 31.3882 11.5528 32.4238 13.5464C33.4594 15.54 34 17.7535 34 20H40Z" fill="url(#paint0_linear_42_26)"/>
<path d="M20 3C20 1.34315 21.3506 -0.0230552 22.9889 0.22455C26.6116 0.772097 30.0351 2.30809 32.8691 4.69034C36.4731 7.71976 38.8927 11.9235 39.7022 16.5614C40.5116 21.1994 39.659 25.9742 37.2943 30.0453C34.9296 34.1164 31.2045 37.2228 26.7748 38.8176C22.345 40.4124 17.4947 40.3934 13.0777 38.7638C8.6606 37.1343 4.96001 33.9987 2.62737 29.9092C0.294723 25.8196 -0.520425 21.0382 0.325429 16.4068C0.990583 12.7647 2.64933 9.39905 5.0917 6.66792C6.19617 5.43288 8.10768 5.62464 9.1638 6.90127V6.90127C10.2199 8.1779 10.009 10.0538 8.98622 11.3572C7.59205 13.1339 6.63887 15.234 6.2278 17.4847C5.6357 20.7268 6.20631 24.0737 7.83916 26.9364C9.47201 29.7991 12.0624 31.994 15.1544 33.1347C18.2463 34.2754 21.6415 34.2887 24.7423 33.1723C27.8431 32.056 30.4507 29.8815 32.106 27.0317C33.7613 24.1819 34.3581 20.8396 33.7915 17.593C33.2249 14.3464 31.5311 11.4038 29.0084 9.28324C27.2569 7.811 25.1839 6.80048 22.9772 6.3202C21.3582 5.96783 20 4.65685 20 3V3Z" fill="url(#paint1_linear_42_26)"/>
<path d="M27.804 17.712C27.5987 17.712 27.4307 17.6427 27.3 17.504C27.172 17.3627 27.108 17.1747 27.108 16.94C27.108 16.7053 27.172 16.5187 27.3 16.38C27.4307 16.2387 27.5987 16.168 27.804 16.168C28.0093 16.168 28.176 16.2387 28.304 16.38C28.432 16.5187 28.496 16.7053 28.496 16.94C28.496 17.1747 28.432 17.3627 28.304 17.504C28.176 17.6427 28.0093 17.712 27.804 17.712ZM29.472 16.2H29.948L28.036 19H27.56L29.472 16.2ZM27.804 17.384C27.8947 17.384 27.9653 17.3467 28.016 17.272C28.0693 17.1973 28.096 17.0867 28.096 16.94C28.096 16.7933 28.0693 16.6827 28.016 16.608C27.9653 16.5333 27.8947 16.496 27.804 16.496C27.716 16.496 27.6453 16.5347 27.592 16.612C27.5387 16.6867 27.512 16.796 27.512 16.94C27.512 17.084 27.5387 17.1947 27.592 17.272C27.6453 17.3467 27.716 17.384 27.804 17.384ZM29.704 19.032C29.5707 19.032 29.4507 19.0013 29.344 18.94C29.24 18.876 29.1587 18.7853 29.1 18.668C29.0413 18.5507 29.012 18.4147 29.012 18.26C29.012 18.1053 29.0413 17.9693 29.1 17.852C29.1587 17.7347 29.24 17.6453 29.344 17.584C29.4507 17.52 29.5707 17.488 29.704 17.488C29.9093 17.488 30.076 17.5587 30.204 17.7C30.3347 17.8387 30.4 18.0253 30.4 18.26C30.4 18.4947 30.3347 18.6827 30.204 18.824C30.076 18.9627 29.9093 19.032 29.704 19.032ZM29.704 18.704C29.7947 18.704 29.8653 18.6667 29.916 18.592C29.9693 18.5147 29.996 18.404 29.996 18.26C29.996 18.116 29.9693 18.0067 29.916 17.932C29.8653 17.8547 29.7947 17.816 29.704 17.816C29.616 17.816 29.5453 17.8533 29.492 17.928C29.4387 18.0027 29.412 18.1133 29.412 18.26C29.412 18.4067 29.4387 18.5173 29.492 18.592C29.5453 18.6667 29.616 18.704 29.704 18.704Z" fill="black"/>
<path d="M17.976 19.584C18.416 19.784 18.752 20.056 18.984 20.4C19.224 20.736 19.344 21.132 19.344 21.588C19.344 22.1 19.2 22.548 18.912 22.932C18.632 23.316 18.232 23.612 17.712 23.82C17.192 24.02 16.588 24.12 15.9 24.12C15.212 24.12 14.608 24.02 14.088 23.82C13.576 23.612 13.18 23.316 12.9 22.932C12.62 22.548 12.48 22.1 12.48 21.588C12.48 21.132 12.596 20.736 12.828 20.4C13.06 20.056 13.392 19.784 13.824 19.584C13.488 19.4 13.228 19.16 13.044 18.864C12.868 18.56 12.78 18.212 12.78 17.82C12.78 17.348 12.908 16.936 13.164 16.584C13.428 16.232 13.796 15.96 14.268 15.768C14.74 15.576 15.284 15.48 15.9 15.48C16.524 15.48 17.072 15.576 17.544 15.768C18.016 15.96 18.384 16.232 18.648 16.584C18.912 16.936 19.044 17.348 19.044 17.82C19.044 18.212 18.952 18.556 18.768 18.852C18.584 19.148 18.32 19.392 17.976 19.584ZM15.9 16.704C15.412 16.704 15.024 16.808 14.736 17.016C14.456 17.224 14.316 17.516 14.316 17.892C14.316 18.252 14.456 18.54 14.736 18.756C15.024 18.964 15.412 19.068 15.9 19.068C16.396 19.068 16.788 18.964 17.076 18.756C17.364 18.54 17.508 18.252 17.508 17.892C17.508 17.516 17.36 17.224 17.064 17.016C16.776 16.808 16.388 16.704 15.9 16.704ZM15.9 22.896C16.476 22.896 16.932 22.776 17.268 22.536C17.604 22.296 17.772 21.964 17.772 21.54C17.772 21.124 17.604 20.796 17.268 20.556C16.932 20.316 16.476 20.196 15.9 20.196C15.324 20.196 14.872 20.316 14.544 20.556C14.216 20.796 14.052 21.124 14.052 21.54C14.052 21.964 14.216 22.296 14.544 22.536C14.872 22.776 15.324 22.896 15.9 22.896ZM22.9481 15.48C24.1001 15.48 24.9921 15.84 25.6241 16.56C26.2641 17.28 26.5841 18.312 26.5841 19.656C26.5841 20.6 26.4121 21.408 26.0681 22.08C25.7241 22.744 25.2401 23.252 24.6161 23.604C24.0001 23.948 23.2841 24.12 22.4681 24.12C22.0361 24.12 21.6281 24.076 21.2441 23.988C20.8681 23.892 20.5401 23.756 20.2601 23.58L20.8361 22.404C21.2521 22.676 21.7841 22.812 22.4321 22.812C23.2401 22.812 23.8721 22.564 24.3281 22.068C24.7841 21.572 25.0121 20.856 25.0121 19.92V19.908C24.7641 20.196 24.4481 20.416 24.0641 20.568C23.6801 20.712 23.2481 20.784 22.7681 20.784C22.2161 20.784 21.7201 20.68 21.2801 20.472C20.8401 20.256 20.4961 19.952 20.2481 19.56C20.0001 19.168 19.8761 18.716 19.8761 18.204C19.8761 17.66 20.0121 17.184 20.2841 16.776C20.5561 16.36 20.9241 16.04 21.3881 15.816C21.8521 15.592 22.3721 15.48 22.9481 15.48ZM23.0681 19.56C23.5721 19.56 23.9801 19.424 24.2921 19.152C24.6121 18.88 24.7721 18.536 24.7721 18.12C24.7721 17.712 24.6161 17.376 24.3041 17.112C24.0001 16.84 23.5761 16.704 23.0321 16.704C22.5441 16.704 22.1481 16.836 21.8441 17.1C21.5401 17.356 21.3881 17.7 21.3881 18.132C21.3881 18.572 21.5401 18.92 21.8441 19.176C22.1481 19.432 22.5561 19.56 23.0681 19.56Z" fill="black"/>
<defs>
<linearGradient id="paint0_linear_42_26" x1="35.5" y1="1.01998e-06" x2="20" y2="40" gradientUnits="userSpaceOnUse">
<stop stop-color="#C4C4C4"/>
<stop offset="1" stop-color="#C4C4C4" stop-opacity="0"/>
</linearGradient>
<linearGradient id="paint1_linear_42_26" x1="40" y1="10.8911" x2="20" y2="40" gradientUnits="userSpaceOnUse">
<stop stop-color="#016FE8"/>
<stop offset="1" stop-color="#F55D08"/>
</linearGradient>
</defs>
</svg>
