<svg width="37" height="243" viewBox="0 0 37 243" fill="none" xmlns="http://www.w3.org/2000/svg">
<path d="M17.15 176.73C17.15 177.79 16.92 178.75 16.46 179.61C15.99 180.46 15.345 181.13 14.525 181.62C13.705 182.1 12.78 182.34 11.75 182.34C10.72 182.34 9.795 182.095 8.975 181.605C8.155 181.115 7.515 180.445 7.055 179.595C6.585 178.735 6.35 177.775 6.35 176.715C6.35 175.855 6.5 175.07 6.8 174.36C7.1 173.65 7.535 173.05 8.105 172.56L9.29 173.82C8.47 174.58 8.06 175.515 8.06 176.625C8.06 177.345 8.22 177.99 8.54 178.56C8.85 179.13 9.285 179.575 9.845 179.895C10.405 180.215 11.04 180.375 11.75 180.375C12.46 180.375 13.095 180.215 13.655 179.895C14.215 179.575 14.655 179.13 14.975 178.56C15.285 177.99 15.44 177.345 15.44 176.625C15.44 175.515 15.025 174.58 14.195 173.82L15.395 172.56C15.965 173.05 16.4 173.655 16.7 174.375C17 175.085 17.15 175.87 17.15 176.73ZM5.87 170.872L5.87 168.997L17 168.997L17 170.872L5.87 170.872ZM8.99 166.536L8.99 164.661L17 164.661L17 166.536L8.99 166.536ZM7.67 165.591C7.67 165.931 7.565 166.216 7.355 166.446C7.135 166.676 6.865 166.791 6.545 166.791C6.225 166.791 5.96 166.676 5.75 166.446C5.53 166.216 5.42 165.931 5.42 165.591C5.42 165.251 5.525 164.966 5.735 164.736C5.935 164.506 6.19 164.391 6.5 164.391C6.83 164.391 7.11 164.506 7.34 164.736C7.56 164.956 7.67 165.241 7.67 165.591ZM17.105 158.525C17.105 159.355 16.93 160.1 16.58 160.76C16.23 161.42 15.745 161.935 15.125 162.305C14.495 162.675 13.785 162.86 12.995 162.86C12.205 162.86 11.5 162.675 10.88 162.305C10.26 161.935 9.775 161.425 9.425 160.775C9.075 160.115 8.9 159.365 8.9 158.525C8.9 157.735 9.06 157.045 9.38 156.455C9.7 155.855 10.16 155.405 10.76 155.105L11.6 156.545C11.23 156.775 10.955 157.065 10.775 157.415C10.585 157.755 10.49 158.13 10.49 158.54C10.49 159.24 10.72 159.82 11.18 160.28C11.63 160.74 12.235 160.97 12.995 160.97C13.755 160.97 14.365 160.745 14.825 160.295C15.275 159.835 15.5 159.25 15.5 158.54C15.5 158.13 15.41 157.755 15.23 157.415C15.04 157.065 14.76 156.775 14.39 156.545L15.23 155.105C15.83 155.415 16.295 155.87 16.625 156.47C16.945 157.06 17.105 157.745 17.105 158.525ZM13.565 150.287L14.885 151.682L17 151.682L17 153.557L5.87 153.557L5.87 151.682L12.59 151.682L8.99 147.797L8.99 145.547L12.35 148.892L17 145.232L17 147.512L13.565 150.287ZM16.565 135.06C16.745 135.28 16.88 135.55 16.97 135.87C17.06 136.18 17.105 136.51 17.105 136.86C17.105 137.74 16.875 138.42 16.415 138.9C15.955 139.38 15.285 139.62 14.405 139.62L10.55 139.62L10.55 140.94L9.05 140.94L9.05 139.62L7.22 139.62L7.22 137.745L9.05 137.745L9.05 135.6L10.55 135.6L10.55 137.745L14.36 137.745C14.75 137.745 15.05 137.65 15.26 137.46C15.46 137.27 15.56 136.995 15.56 136.635C15.56 136.215 15.45 135.865 15.23 135.585L16.565 135.06ZM17.105 130.182C17.105 130.992 16.93 131.722 16.58 132.372C16.23 133.022 15.745 133.532 15.125 133.902C14.495 134.262 13.785 134.442 12.995 134.442C12.205 134.442 11.5 134.262 10.88 133.902C10.26 133.532 9.775 133.022 9.425 132.372C9.075 131.722 8.9 130.992 8.9 130.182C8.9 129.362 9.075 128.627 9.425 127.977C9.775 127.327 10.26 126.822 10.88 126.462C11.5 126.092 12.205 125.907 12.995 125.907C13.785 125.907 14.495 126.092 15.125 126.462C15.745 126.822 16.23 127.327 16.58 127.977C16.93 128.627 17.105 129.362 17.105 130.182ZM15.5 130.182C15.5 129.492 15.27 128.922 14.81 128.472C14.35 128.022 13.745 127.797 12.995 127.797C12.245 127.797 11.64 128.022 11.18 128.472C10.72 128.922 10.49 129.492 10.49 130.182C10.49 130.872 10.72 131.442 11.18 131.892C11.64 132.332 12.245 132.552 12.995 132.552C13.745 132.552 14.35 132.332 14.81 131.892C15.27 131.442 15.5 130.872 15.5 130.182ZM10.16 118.183C9.32 117.643 8.9 116.693 8.9 115.333L10.685 115.333C10.655 115.493 10.64 115.638 10.64 115.768C10.64 116.498 10.855 117.068 11.285 117.478C11.705 117.888 12.315 118.093 13.115 118.093L17 118.093L17 119.968L8.99 119.968L8.99 118.183L10.16 118.183ZM13.04 106.286C13.17 106.286 13.355 106.296 13.595 106.316L13.595 112.601C14.185 112.491 14.655 112.206 15.005 111.746C15.345 111.276 15.515 110.696 15.515 110.006C15.515 109.126 15.225 108.401 14.645 107.831L15.8 106.826C16.23 107.186 16.555 107.641 16.775 108.191C16.995 108.741 17.105 109.361 17.105 110.051C17.105 110.931 16.93 111.706 16.58 112.376C16.23 113.046 15.745 113.566 15.125 113.936C14.495 114.296 13.785 114.476 12.995 114.476C12.215 114.476 11.515 114.301 10.895 113.951C10.265 113.591 9.775 113.096 9.425 112.466C9.075 111.836 8.9 111.126 8.9 110.336C8.9 109.556 9.075 108.861 9.425 108.251C9.765 107.631 10.25 107.151 10.88 106.811C11.5 106.461 12.22 106.286 13.04 106.286ZM10.4 110.336C10.4 110.936 10.58 111.446 10.94 111.866C11.29 112.276 11.76 112.526 12.35 112.616L12.35 108.071C11.77 108.151 11.3 108.396 10.94 108.806C10.58 109.216 10.4 109.726 10.4 110.336ZM8.9 101.645C8.9 100.465 9.185 99.5646 9.755 98.9446C10.315 98.3146 11.165 97.9996 12.305 97.9996L17 97.9996L17 99.7696L16.025 99.7696C16.375 99.9996 16.645 100.33 16.835 100.76C17.015 101.18 17.105 101.69 17.105 102.29C17.105 102.89 17.005 103.415 16.805 103.865C16.595 104.315 16.31 104.665 15.95 104.915C15.58 105.155 15.165 105.275 14.705 105.275C13.985 105.275 13.41 105.01 12.98 104.48C12.54 103.94 12.32 103.095 12.32 101.945L12.32 99.8746L12.2 99.8746C11.64 99.8746 11.21 100.045 10.91 100.385C10.61 100.715 10.46 101.21 10.46 101.87C10.46 102.32 10.53 102.765 10.67 103.205C10.81 103.635 11.005 104 11.255 104.3L9.89 105.035C9.57 104.615 9.325 104.11 9.155 103.52C8.985 102.93 8.9 102.305 8.9 101.645ZM15.74 101.9C15.74 101.43 15.635 101.015 15.425 100.655C15.205 100.285 14.895 100.025 14.495 99.8746L13.565 99.8746L13.565 101.81C13.565 102.89 13.92 103.43 14.63 103.43C14.97 103.43 15.24 103.295 15.44 103.025C15.64 102.755 15.74 102.38 15.74 101.9ZM5.87 87.675L17 87.675L17 89.475L15.965 89.475C16.345 89.785 16.63 90.17 16.82 90.63C17.01 91.08 17.105 91.58 17.105 92.13C17.105 92.9 16.935 93.595 16.595 94.215C16.255 94.825 15.775 95.305 15.155 95.655C14.525 96.005 13.805 96.18 12.995 96.18C12.185 96.18 11.47 96.005 10.85 95.655C10.23 95.305 9.75 94.825 9.41 94.215C9.07 93.595 8.9 92.9 8.9 92.13C8.9 91.6 8.99 91.115 9.17 90.675C9.35 90.235 9.62 89.86 9.98 89.55L5.87 89.55L5.87 87.675ZM15.5 91.905C15.5 91.455 15.4 91.05 15.2 90.69C14.99 90.33 14.695 90.045 14.315 89.835C13.935 89.625 13.495 89.52 12.995 89.52C12.495 89.52 12.055 89.625 11.675 89.835C11.295 90.045 11.005 90.33 10.805 90.69C10.595 91.05 10.49 91.455 10.49 91.905C10.49 92.355 10.595 92.76 10.805 93.12C11.005 93.48 11.295 93.765 11.675 93.975C12.055 94.185 12.495 94.29 12.995 94.29C13.495 94.29 13.935 94.185 14.315 93.975C14.695 93.765 14.99 93.48 15.2 93.12C15.4 92.76 15.5 92.355 15.5 91.905ZM8.89999 70.9666C8.89999 69.9566 9.19499 69.1566 9.78499 68.5666C10.365 67.9766 11.24 67.6816 12.41 67.6816L17 67.6816L17 69.5566L12.65 69.5566C11.95 69.5566 11.425 69.7116 11.075 70.0216C10.715 70.3316 10.535 70.7766 10.535 71.3566C10.535 71.9866 10.745 72.4916 11.165 72.8716C11.575 73.2516 12.165 73.4416 12.935 73.4416L17 73.4416L17 75.3166L12.65 75.3166C11.95 75.3166 11.425 75.4716 11.075 75.7816C10.715 76.0916 10.535 76.5366 10.535 77.1166C10.535 77.7566 10.74 78.2666 11.15 78.6466C11.56 79.0166 12.155 79.2016 12.935 79.2016L17 79.2016L17 81.0766L8.98999 81.0766L8.98999 79.2916L10.01 79.2916C9.65 78.9916 9.37499 78.6166 9.185 78.1666C8.995 77.7166 8.9 77.2166 8.9 76.6666C8.9 76.0666 9.01499 75.5366 9.24499 75.0766C9.46499 74.6066 9.79499 74.2366 10.235 73.9666C9.81499 73.6366 9.48999 73.2116 9.25999 72.6916C9.01999 72.1716 8.89999 71.5966 8.89999 70.9666ZM17.105 61.6124C17.105 62.4224 16.93 63.1524 16.58 63.8024C16.23 64.4524 15.745 64.9624 15.125 65.3324C14.495 65.6924 13.785 65.8724 12.995 65.8724C12.205 65.8724 11.5 65.6924 10.88 65.3324C10.26 64.9624 9.77499 64.4524 9.42499 63.8024C9.07499 63.1524 8.89999 62.4224 8.89999 61.6124C8.89999 60.7924 9.07499 60.0574 9.42499 59.4074C9.77499 58.7574 10.26 58.2524 10.88 57.8924C11.5 57.5224 12.205 57.3374 12.995 57.3374C13.785 57.3374 14.495 57.5224 15.125 57.8924C15.745 58.2524 16.23 58.7574 16.58 59.4074C16.93 60.0574 17.105 60.7924 17.105 61.6124ZM15.5 61.6124C15.5 60.9224 15.27 60.3524 14.81 59.9024C14.35 59.4524 13.745 59.2274 12.995 59.2274C12.245 59.2274 11.64 59.4524 11.18 59.9024C10.72 60.3524 10.49 60.9224 10.49 61.6124C10.49 62.3024 10.72 62.8724 11.18 63.3224C11.64 63.7624 12.245 63.9824 12.995 63.9824C13.745 63.9824 14.35 63.7624 14.81 63.3224C15.27 62.8724 15.5 62.3024 15.5 61.6124ZM10.16 53.7594C9.31999 53.2194 8.89999 52.2694 8.89999 50.9094L10.685 50.9094C10.655 51.0694 10.64 51.2144 10.64 51.3444C10.64 52.0744 10.855 52.6444 11.285 53.0544C11.705 53.4644 12.315 53.6694 13.115 53.6694L17 53.6694L17 55.5444L8.98999 55.5444L8.98999 53.7594L10.16 53.7594ZM13.04 41.8621C13.17 41.8621 13.355 41.8721 13.595 41.8921L13.595 48.1771C14.185 48.0671 14.655 47.7821 15.005 47.3221C15.345 46.8521 15.515 46.2721 15.515 45.5821C15.515 44.7021 15.225 43.9771 14.645 43.4071L15.8 42.4021C16.23 42.7621 16.555 43.2171 16.775 43.7671C16.995 44.3171 17.105 44.9371 17.105 45.6271C17.105 46.5071 16.93 47.2821 16.58 47.9521C16.23 48.6221 15.745 49.1421 15.125 49.5121C14.495 49.8721 13.785 50.0521 12.995 50.0521C12.215 50.0521 11.515 49.8771 10.895 49.5271C10.265 49.1671 9.77499 48.6721 9.42499 48.0421C9.07499 47.4121 8.89999 46.7021 8.89999 45.9121C8.89999 45.1321 9.07499 44.4371 9.42499 43.8271C9.76499 43.2071 10.25 42.7271 10.88 42.3871C11.5 42.0371 12.22 41.8621 13.04 41.8621ZM10.4 45.9121C10.4 46.5121 10.58 47.0221 10.94 47.4421C11.29 47.8521 11.76 48.1021 12.35 48.1921L12.35 43.6471C11.77 43.7271 11.3 43.9721 10.94 44.3821C10.58 44.7921 10.4 45.3021 10.4 45.9121Z" fill="#8A898F"/>
<path d="M10.9393 242.061C11.5251 242.646 12.4749 242.646 13.0607 242.061L22.6066 232.515C23.1924 231.929 23.1924 230.979 22.6066 230.393C22.0208 229.808 21.0711 229.808 20.4853 230.393L12 238.879L3.51472 230.393C2.92893 229.808 1.97919 229.808 1.3934 230.393C0.807611 230.979 0.807611 231.929 1.3934 232.515L10.9393 242.061ZM10.5 198L10.5 241H13.5L13.5 198H10.5Z" fill="#4D4D4D"/>
</svg>
