<svg width="428" height="430" viewBox="0 0 428 430" fill="none" xmlns="http://www.w3.org/2000/svg">
<path d="M0 99.5V46C0 31 14.5 1 45.5 0H100L0 99.5Z" fill="black"/>
<path d="M0 99.5V112H100.5H214.5V0H100L0 99.5Z" fill="#016FE8"/>
<path d="M100 112.5H326V0H198C168.667 1.5 108 26.5 100 112.5Z" fill="#6BAED8"/>
<path d="M326 112.5H428V49C427.833 33.8333 417.8 2.8 379 0H326V112.5Z" fill="#FEA501"/>
<path d="M0 225H100.5H213.71V112.5L0 112V225Z" fill="#0A27CD"/>
<circle cx="100" cy="112" r="28" fill="white"/>
<path d="M0 225H214.5V332H0V225Z" fill="#FEA501"/>
<path d="M326 112.5H428V333.5H326V112.5Z" fill="#FEA501"/>
<path d="M326.5 224.5L428 326.5V429.5L326.5 332V224.5Z" fill="#FF3D00"/>
<path d="M213.5 112.5L326 0L326.5 150.5H213.5V112.5Z" fill="black"/>
<path d="M439 112.5L326 -0.0380554V150.5H439V112.5Z" fill="#FF3D00"/>
<path d="M213.5 112.5H287.5C299.167 113 323.7 121.5 326.5 151.5V347.5H214L213.5 112.5Z" fill="white"/>
<path d="M439 112H365C353.333 112.5 328.8 121 326 151V347H438.5L439 112Z" fill="#FEA501"/>
<path d="M305 281.5C305 300.554 289.554 316 270.5 316C251.446 316 236 300.554 236 281.5C236 262.446 251.446 247 270.5 247C289.554 247 305 262.446 305 281.5Z" fill="black"/>
<path d="M100.5 226V339.5L155 325.5C174.667 315.833 214 282.4 214 226V113.5L100.5 226Z" fill="#FF3D00"/>
<path d="M67.5 304L0 236.5V277.5L67.5 304Z" fill="#FF3D00"/>
<path d="M0 112C33.5 116.833 101.3 146.2 100.5 225C77 224.833 23.2 211.6 0 160V112Z" fill="black"/>
<circle cx="428" cy="226" r="28" fill="#016FE8"/>
<circle cx="376" cy="58" r="17" fill="#1C1C1C"/>
<path d="M379 54L373 58.442L379 63" stroke="white" stroke-width="3"/>
</svg>
