<svg width="115" height="810" viewBox="0 0 115 810" fill="none" xmlns="http://www.w3.org/2000/svg">
<path d="M115.5 809.5C82.6667 811.667 11.8 805.907 1 729.507V373.007H115L115.5 809.5Z" fill="#09090A"/>
<path d="M115 595.507C115 602.927 112.539 610.274 109.699 617.128C106.86 623.983 102.698 630.212 97.4515 635.458C92.205 640.705 85.9765 644.867 79.1216 647.706C72.2667 650.545 64.9197 652.007 57.5 652.007C50.0803 652.007 42.7333 650.545 35.8784 647.706C29.0235 644.867 22.795 640.705 17.5485 635.458C12.302 630.212 8.1402 623.983 5.30081 617.128C2.46142 610.274 0.999999 602.927 1 595.507H57.5H115Z" fill="#FFA400"/>
<path d="M1 595.5V461C4.83333 429.167 34 373 115.5 373L114.5 595.007L1 595.5Z" fill="#FF3D00"/>
<path d="M1 260.007V103.423C4.83333 66.2241 33.5 0.00683081 115 0.00683594V260.007H1Z" fill="#FEA501"/>
<path d="M1 595.507L115 483.5V595.507H1Z" fill="#005BE7"/>
<rect x="31.5" y="513.507" width="52" height="52" fill="white"/>
<mask id="mask0_4_48" style="mask-type:alpha" maskUnits="userSpaceOnUse" x="0" y="483" width="115" height="114">
<path d="M0 596.007L114 483.007L115 595L0 596.007Z" fill="black"/>
</mask>
<g mask="url(#mask0_4_48)">
<rect x="31.5" y="513.507" width="52" height="52" fill="black"/>
</g>
<path d="M1 259.007H115L114.5 372.507H0.5L1 259.007Z" fill="white"/>
<circle cx="58" cy="315.007" r="29" fill="black"/>
<path d="M1 103.507C1.33333 142.34 24.2 220.107 115 220.507V103.507H1Z" fill="black"/>
<path d="M115 0.0068506C33.4 -0.793149 5 68.6735 1 103.507H115V0.0068506Z" fill="#016FE8"/>
</svg>
