<svg width="319" height="67" viewBox="0 0 319 67" fill="none" xmlns="http://www.w3.org/2000/svg">
<path d="M8.008 16.192C7.12267 16.192 6.264 16.0747 5.432 15.84C4.61067 15.5947 3.94933 15.28 3.448 14.896L4.328 12.944C4.808 13.296 5.37867 13.5787 6.04 13.792C6.70133 14.0053 7.36267 14.112 8.024 14.112C8.76 14.112 9.304 14.0053 9.656 13.792C10.008 13.568 10.184 13.2747 10.184 12.912C10.184 12.6453 10.0773 12.4267 9.864 12.256C9.66133 12.0747 9.39467 11.9307 9.064 11.824C8.744 11.7173 8.30667 11.6 7.752 11.472C6.89867 11.2693 6.2 11.0667 5.656 10.864C5.112 10.6613 4.64267 10.336 4.248 9.888C3.864 9.44 3.672 8.84267 3.672 8.096C3.672 7.44533 3.848 6.85867 4.2 6.336C4.552 5.80267 5.08 5.38133 5.784 5.072C6.49867 4.76267 7.368 4.608 8.392 4.608C9.10667 4.608 9.80533 4.69333 10.488 4.864C11.1707 5.03467 11.768 5.28 12.28 5.6L11.48 7.568C10.4453 6.98133 9.41067 6.688 8.376 6.688C7.65067 6.688 7.112 6.80533 6.76 7.04C6.41867 7.27467 6.248 7.584 6.248 7.968C6.248 8.352 6.44533 8.64 6.84 8.832C7.24533 9.01333 7.85867 9.19467 8.68 9.376C9.53333 9.57867 10.232 9.78133 10.776 9.984C11.32 10.1867 11.784 10.5067 12.168 10.944C12.5627 11.3813 12.76 11.9733 12.76 12.72C12.76 13.36 12.5787 13.9467 12.216 14.48C11.864 15.0027 11.3307 15.4187 10.616 15.728C9.90133 16.0373 9.032 16.192 8.008 16.192Z" fill="white" fill-opacity="0.8"/>
<path d="M2.4 33.848C2.45333 33.816 2.53333 33.8 2.64 33.8H4.576C4.62933 33.8 4.672 33.8213 4.704 33.864C4.74667 33.896 4.768 33.9387 4.768 33.992V44.808C4.768 44.8613 4.74667 44.9093 4.704 44.952C4.672 44.984 4.62933 45 4.576 45H2.704C2.65067 45 2.60267 44.984 2.56 44.952C2.528 44.9093 2.512 44.8613 2.512 44.808V36.04C2.512 36.0187 2.50133 35.9973 2.48 35.976C2.45867 35.9547 2.43733 35.9493 2.416 35.96L0.832 36.392L0.768 36.408C0.672 36.408 0.624 36.3493 0.624 36.232L0.576 34.856C0.576 34.7493 0.624 34.6747 0.72 34.632L2.4 33.848ZM16.3923 39.896C16.5523 40.4187 16.6323 40.9253 16.6323 41.416C16.6323 41.96 16.5469 42.4507 16.3763 42.888C16.1309 43.5707 15.6989 44.1147 15.0803 44.52C14.4616 44.9147 13.7363 45.112 12.9043 45.112C12.0936 45.112 11.3789 44.92 10.7603 44.536C10.1523 44.1413 9.72025 43.608 9.46425 42.936C9.35758 42.6587 9.27758 42.3653 9.22425 42.056V42.024C9.22425 41.9067 9.28825 41.848 9.41625 41.848H11.3523C11.4589 41.848 11.5283 41.9067 11.5603 42.024C11.5709 42.088 11.5869 42.1413 11.6083 42.184C11.6296 42.2267 11.6456 42.264 11.6563 42.296C11.7629 42.5733 11.9229 42.7867 12.1363 42.936C12.3496 43.0853 12.6003 43.16 12.8883 43.16C13.1869 43.16 13.4483 43.08 13.6723 42.92C13.8963 42.76 14.0616 42.536 14.1683 42.248C14.2749 42.0347 14.3283 41.7573 14.3283 41.416C14.3283 41.1067 14.2803 40.8293 14.1843 40.584C14.1096 40.3067 13.9603 40.0933 13.7363 39.944C13.5123 39.7947 13.2509 39.72 12.9523 39.72C12.6536 39.72 12.3763 39.7893 12.1203 39.928C11.8643 40.0667 11.6936 40.248 11.6083 40.472C11.5763 40.5787 11.5069 40.632 11.4003 40.632H9.43225C9.37892 40.632 9.33092 40.616 9.28825 40.584C9.25625 40.5413 9.24025 40.4933 9.24025 40.44V33.992C9.24025 33.9387 9.25625 33.896 9.28825 33.864C9.33092 33.8213 9.37892 33.8 9.43225 33.8H16.0403C16.0936 33.8 16.1363 33.8213 16.1683 33.864C16.2109 33.896 16.2323 33.9387 16.2323 33.992V35.544C16.2323 35.5973 16.2109 35.6453 16.1683 35.688C16.1363 35.72 16.0936 35.736 16.0403 35.736H11.5763C11.5229 35.736 11.4963 35.7627 11.4963 35.816L11.4803 38.184C11.4803 38.2587 11.5123 38.2747 11.5763 38.232C12.0563 37.9227 12.6109 37.768 13.2403 37.768C13.9869 37.768 14.6376 37.96 15.1923 38.344C15.7576 38.7173 16.1576 39.2347 16.3923 39.896Z" fill="#FC5757"/>
<path d="M53.4 33.848C53.4533 33.816 53.5333 33.8 53.64 33.8H55.576C55.6293 33.8 55.672 33.8213 55.704 33.864C55.7467 33.896 55.768 33.9387 55.768 33.992V44.808C55.768 44.8613 55.7467 44.9093 55.704 44.952C55.672 44.984 55.6293 45 55.576 45H53.704C53.6507 45 53.6027 44.984 53.56 44.952C53.528 44.9093 53.512 44.8613 53.512 44.808V36.04C53.512 36.0187 53.5013 35.9973 53.48 35.976C53.4587 35.9547 53.4373 35.9493 53.416 35.96L51.832 36.392L51.768 36.408C51.672 36.408 51.624 36.3493 51.624 36.232L51.576 34.856C51.576 34.7493 51.624 34.6747 51.72 34.632L53.4 33.848ZM67.2163 39.576C67.4723 40.056 67.6003 40.6693 67.6003 41.416C67.6003 42.0347 67.4989 42.5893 67.2963 43.08C67.0189 43.7093 66.5869 44.2053 66.0003 44.568C65.4136 44.9307 64.7203 45.112 63.9203 45.112C63.0989 45.112 62.3896 44.9253 61.7923 44.552C61.1949 44.168 60.7629 43.64 60.4963 42.968C60.3043 42.4987 60.2083 41.976 60.2083 41.4V36.584C60.2083 36.008 60.3576 35.5013 60.6563 35.064C60.9656 34.616 61.3923 34.2747 61.9363 34.04C62.4803 33.7947 63.1043 33.672 63.8083 33.672C64.5016 33.672 65.1149 33.7947 65.6483 34.04C66.1816 34.2747 66.5923 34.6107 66.8803 35.048C67.1789 35.4747 67.3283 35.9707 67.3283 36.536V36.984C67.3283 37.0373 67.3069 37.0853 67.2643 37.128C67.2323 37.16 67.1896 37.176 67.1363 37.176H65.2643C65.2109 37.176 65.1629 37.16 65.1203 37.128C65.0883 37.0853 65.0723 37.0373 65.0723 36.984V36.84C65.0723 36.488 64.9549 36.1947 64.7203 35.96C64.4856 35.7253 64.1816 35.608 63.8083 35.608C63.4136 35.608 63.0883 35.7307 62.8323 35.976C62.5869 36.2107 62.4643 36.5147 62.4643 36.888V38.392C62.4643 38.424 62.4749 38.4453 62.4963 38.456C62.5176 38.456 62.5389 38.4453 62.5603 38.424C62.9976 38.0507 63.5789 37.864 64.3043 37.864C64.9443 37.864 65.5149 38.0133 66.0163 38.312C66.5283 38.6 66.9283 39.0213 67.2163 39.576ZM65.1043 42.456C65.2643 42.1787 65.3443 41.8427 65.3443 41.448C65.3443 41.0213 65.2589 40.6693 65.0883 40.392C64.8216 39.9653 64.4323 39.752 63.9203 39.752C63.3443 39.752 62.9443 39.9707 62.7203 40.408C62.5603 40.6853 62.4803 41.0427 62.4803 41.48C62.4803 41.864 62.5496 42.1893 62.6883 42.456C62.9229 42.9253 63.3283 43.16 63.9043 43.16C64.4589 43.16 64.8589 42.9253 65.1043 42.456Z" fill="white"/>
<path d="M103.4 33.848C103.453 33.816 103.533 33.8 103.64 33.8H105.576C105.629 33.8 105.672 33.8213 105.704 33.864C105.747 33.896 105.768 33.9387 105.768 33.992V44.808C105.768 44.8613 105.747 44.9093 105.704 44.952C105.672 44.984 105.629 45 105.576 45H103.704C103.651 45 103.603 44.984 103.56 44.952C103.528 44.9093 103.512 44.8613 103.512 44.808V36.04C103.512 36.0187 103.501 35.9973 103.48 35.976C103.459 35.9547 103.437 35.9493 103.416 35.96L101.832 36.392L101.768 36.408C101.672 36.408 101.624 36.3493 101.624 36.232L101.576 34.856C101.576 34.7493 101.624 34.6747 101.72 34.632L103.4 33.848ZM111.52 45C111.36 45 111.307 44.9253 111.36 44.776L114.832 35.832C114.854 35.768 114.832 35.736 114.768 35.736H111.776C111.723 35.736 111.696 35.7627 111.696 35.816V36.552C111.696 36.6053 111.675 36.6533 111.632 36.696C111.6 36.728 111.558 36.744 111.504 36.744H110.048C109.995 36.744 109.947 36.728 109.904 36.696C109.872 36.6533 109.856 36.6053 109.856 36.552L109.872 33.992C109.872 33.9387 109.888 33.896 109.92 33.864C109.963 33.8213 110.011 33.8 110.064 33.8H117.056C117.11 33.8 117.152 33.8213 117.184 33.864C117.227 33.896 117.248 33.9387 117.248 33.992V35.608C117.248 35.672 117.232 35.752 117.2 35.848L113.744 44.856C113.712 44.952 113.638 45 113.52 45H111.52Z" fill="white"/>
<path d="M155.4 33.848C155.453 33.816 155.533 33.8 155.64 33.8H157.576C157.629 33.8 157.672 33.8213 157.704 33.864C157.747 33.896 157.768 33.9387 157.768 33.992V44.808C157.768 44.8613 157.747 44.9093 157.704 44.952C157.672 44.984 157.629 45 157.576 45H155.704C155.651 45 155.603 44.984 155.56 44.952C155.528 44.9093 155.512 44.8613 155.512 44.808V36.04C155.512 36.0187 155.501 35.9973 155.48 35.976C155.459 35.9547 155.437 35.9493 155.416 35.96L153.832 36.392L153.768 36.408C153.672 36.408 153.624 36.3493 153.624 36.232L153.576 34.856C153.576 34.7493 153.624 34.6747 153.72 34.632L155.4 33.848ZM169.216 40.072C169.462 40.5627 169.584 41.112 169.584 41.72C169.584 42.36 169.451 42.9093 169.184 43.368C168.907 43.912 168.48 44.344 167.904 44.664C167.339 44.9733 166.662 45.128 165.872 45.128C165.126 45.128 164.454 44.9787 163.856 44.68C163.259 44.3707 162.811 43.928 162.512 43.352C162.256 42.8507 162.128 42.3013 162.128 41.704C162.128 41.1173 162.251 40.568 162.496 40.056C162.678 39.6827 162.944 39.3787 163.296 39.144C163.339 39.112 163.339 39.0747 163.296 39.032C163.04 38.84 162.822 38.584 162.64 38.264C162.395 37.8373 162.272 37.3573 162.272 36.824C162.272 36.0667 162.486 35.4267 162.912 34.904C163.222 34.488 163.632 34.168 164.144 33.944C164.667 33.7093 165.243 33.592 165.872 33.592C166.523 33.592 167.099 33.7093 167.6 33.944C168.102 34.1787 168.507 34.4987 168.816 34.904C169.243 35.4587 169.456 36.0987 169.456 36.824C169.456 37.3787 169.318 37.8747 169.04 38.312C168.859 38.5893 168.64 38.824 168.384 39.016C168.342 39.0587 168.342 39.096 168.384 39.128C168.736 39.352 169.014 39.6667 169.216 40.072ZM164.672 36.232C164.566 36.4453 164.512 36.6693 164.512 36.904C164.512 37.2133 164.582 37.4907 164.72 37.736C164.966 38.12 165.344 38.312 165.856 38.312C166.368 38.312 166.758 38.12 167.024 37.736C167.163 37.5013 167.232 37.2187 167.232 36.888C167.232 36.6533 167.179 36.4293 167.072 36.216C166.966 36.0027 166.806 35.8373 166.592 35.72C166.379 35.592 166.128 35.528 165.84 35.528C165.584 35.528 165.35 35.592 165.136 35.72C164.934 35.8373 164.779 36.008 164.672 36.232ZM167.008 42.632C167.211 42.344 167.312 41.9707 167.312 41.512C167.312 41.1173 167.238 40.7867 167.088 40.52C166.854 40.072 166.443 39.848 165.856 39.848C165.302 39.848 164.907 40.0667 164.672 40.504C164.512 40.7707 164.432 41.1173 164.432 41.544C164.432 41.96 164.523 42.3067 164.704 42.584C164.95 42.9893 165.339 43.192 165.872 43.192C166.384 43.192 166.763 43.0053 167.008 42.632Z" fill="white"/>
<path d="M207.4 33.848C207.453 33.816 207.533 33.8 207.64 33.8H209.576C209.629 33.8 209.672 33.8213 209.704 33.864C209.747 33.896 209.768 33.9387 209.768 33.992V44.808C209.768 44.8613 209.747 44.9093 209.704 44.952C209.672 44.984 209.629 45 209.576 45H207.704C207.651 45 207.603 44.984 207.56 44.952C207.528 44.9093 207.512 44.8613 207.512 44.808V36.04C207.512 36.0187 207.501 35.9973 207.48 35.976C207.459 35.9547 207.437 35.9493 207.416 35.96L205.832 36.392L205.768 36.408C205.672 36.408 205.624 36.3493 205.624 36.232L205.576 34.856C205.576 34.7493 205.624 34.6747 205.72 34.632L207.4 33.848ZM221.072 35.832C221.254 36.2693 221.344 36.792 221.344 37.4V42.216C221.344 42.792 221.195 43.304 220.896 43.752C220.598 44.1893 220.176 44.5307 219.632 44.776C219.088 45.0107 218.464 45.128 217.76 45.128C217.067 45.128 216.454 45.0107 215.92 44.776C215.387 44.5307 214.971 44.1947 214.672 43.768C214.374 43.3307 214.224 42.8293 214.224 42.264V41.816C214.224 41.7627 214.24 41.72 214.272 41.688C214.315 41.6453 214.363 41.624 214.416 41.624H216.288C216.342 41.624 216.384 41.6453 216.416 41.688C216.459 41.72 216.48 41.7627 216.48 41.816V41.96C216.48 42.312 216.598 42.6053 216.832 42.84C217.078 43.0747 217.387 43.192 217.76 43.192C218.155 43.192 218.475 43.0747 218.72 42.84C218.966 42.5947 219.088 42.2853 219.088 41.912V40.424C219.088 40.392 219.078 40.3707 219.056 40.36C219.035 40.3493 219.014 40.3547 218.992 40.376C218.555 40.7493 217.979 40.936 217.264 40.936C216.624 40.936 216.048 40.792 215.536 40.504C215.035 40.2053 214.64 39.7787 214.352 39.224C214.086 38.7227 213.952 38.1093 213.952 37.384C213.952 36.7547 214.059 36.2 214.272 35.72C214.539 35.0907 214.966 34.5947 215.552 34.232C216.15 33.8693 216.848 33.688 217.648 33.688C218.459 33.688 219.163 33.88 219.76 34.264C220.368 34.6373 220.806 35.16 221.072 35.832ZM217.648 39.048C218.203 39.048 218.603 38.8293 218.848 38.392C219.008 38.1147 219.088 37.7573 219.088 37.32C219.088 36.968 219.019 36.6427 218.88 36.344C218.646 35.8747 218.24 35.64 217.664 35.64C217.11 35.64 216.704 35.8747 216.448 36.344C216.288 36.6427 216.208 36.9787 216.208 37.352C216.208 37.7573 216.299 38.1093 216.48 38.408C216.747 38.8347 217.136 39.048 217.648 39.048Z" fill="white"/>
<path d="M256.728 42.968C256.707 42.9893 256.701 43.0107 256.712 43.032C256.723 43.0533 256.744 43.064 256.776 43.064H261.112C261.165 43.064 261.208 43.0853 261.24 43.128C261.283 43.16 261.304 43.2027 261.304 43.256V44.808C261.304 44.8613 261.283 44.9093 261.24 44.952C261.208 44.984 261.165 45 261.112 45H253.912C253.859 45 253.811 44.984 253.768 44.952C253.736 44.9093 253.72 44.8613 253.72 44.808V43.336C253.72 43.24 253.752 43.16 253.816 43.096C254.339 42.584 254.872 42.0293 255.416 41.432C255.96 40.824 256.301 40.4453 256.44 40.296C256.739 39.944 257.043 39.608 257.352 39.288C258.323 38.2107 258.808 37.4107 258.808 36.888C258.808 36.5147 258.675 36.2107 258.408 35.976C258.141 35.7307 257.795 35.608 257.368 35.608C256.941 35.608 256.595 35.7307 256.328 35.976C256.061 36.2107 255.928 36.5253 255.928 36.92V37.32C255.928 37.3733 255.907 37.4213 255.864 37.464C255.832 37.496 255.789 37.512 255.736 37.512H253.848C253.795 37.512 253.747 37.496 253.704 37.464C253.672 37.4213 253.656 37.3733 253.656 37.32V36.568C253.688 35.992 253.869 35.4853 254.2 35.048C254.531 34.6 254.968 34.2587 255.512 34.024C256.067 33.7893 256.685 33.672 257.368 33.672C258.125 33.672 258.781 33.816 259.336 34.104C259.901 34.3813 260.333 34.76 260.632 35.24C260.941 35.72 261.096 36.2533 261.096 36.84C261.096 37.288 260.984 37.7467 260.76 38.216C260.536 38.6853 260.2 39.192 259.752 39.736C259.421 40.152 259.064 40.5627 258.68 40.968C258.296 41.3733 257.725 41.96 256.968 42.728L256.728 42.968ZM269.377 45.176C268.204 45.176 267.276 44.8507 266.593 44.2C265.91 43.5387 265.569 42.6427 265.569 41.512V37.288C265.569 36.1787 265.91 35.2987 266.593 34.648C267.276 33.9973 268.204 33.672 269.377 33.672C270.55 33.672 271.478 33.9973 272.161 34.648C272.854 35.2987 273.201 36.1787 273.201 37.288V41.512C273.201 42.6427 272.854 43.5387 272.161 44.2C271.478 44.8507 270.55 45.176 269.377 45.176ZM269.377 43.24C269.857 43.24 270.236 43.096 270.513 42.808C270.801 42.5093 270.945 42.1147 270.945 41.624V37.224C270.945 36.7333 270.801 36.344 270.513 36.056C270.236 35.7573 269.857 35.608 269.377 35.608C268.908 35.608 268.529 35.7573 268.241 36.056C267.964 36.344 267.825 36.7333 267.825 37.224V41.624C267.825 42.1147 267.964 42.5093 268.241 42.808C268.529 43.096 268.908 43.24 269.377 43.24Z" fill="white"/>
<path d="M304.728 42.968C304.707 42.9893 304.701 43.0107 304.712 43.032C304.723 43.0533 304.744 43.064 304.776 43.064H309.112C309.165 43.064 309.208 43.0853 309.24 43.128C309.283 43.16 309.304 43.2027 309.304 43.256V44.808C309.304 44.8613 309.283 44.9093 309.24 44.952C309.208 44.984 309.165 45 309.112 45H301.912C301.859 45 301.811 44.984 301.768 44.952C301.736 44.9093 301.72 44.8613 301.72 44.808V43.336C301.72 43.24 301.752 43.16 301.816 43.096C302.339 42.584 302.872 42.0293 303.416 41.432C303.96 40.824 304.301 40.4453 304.44 40.296C304.739 39.944 305.043 39.608 305.352 39.288C306.323 38.2107 306.808 37.4107 306.808 36.888C306.808 36.5147 306.675 36.2107 306.408 35.976C306.141 35.7307 305.795 35.608 305.368 35.608C304.941 35.608 304.595 35.7307 304.328 35.976C304.061 36.2107 303.928 36.5253 303.928 36.92V37.32C303.928 37.3733 303.907 37.4213 303.864 37.464C303.832 37.496 303.789 37.512 303.736 37.512H301.848C301.795 37.512 301.747 37.496 301.704 37.464C301.672 37.4213 301.656 37.3733 301.656 37.32V36.568C301.688 35.992 301.869 35.4853 302.2 35.048C302.531 34.6 302.968 34.2587 303.512 34.024C304.067 33.7893 304.685 33.672 305.368 33.672C306.125 33.672 306.781 33.816 307.336 34.104C307.901 34.3813 308.333 34.76 308.632 35.24C308.941 35.72 309.096 36.2533 309.096 36.84C309.096 37.288 308.984 37.7467 308.76 38.216C308.536 38.6853 308.2 39.192 307.752 39.736C307.421 40.152 307.064 40.5627 306.68 40.968C306.296 41.3733 305.725 41.96 304.968 42.728L304.728 42.968ZM315.139 33.848C315.193 33.816 315.273 33.8 315.379 33.8H317.315C317.369 33.8 317.411 33.8213 317.443 33.864C317.486 33.896 317.507 33.9387 317.507 33.992V44.808C317.507 44.8613 317.486 44.9093 317.443 44.952C317.411 44.984 317.369 45 317.315 45H315.443C315.39 45 315.342 44.984 315.299 44.952C315.267 44.9093 315.251 44.8613 315.251 44.808V36.04C315.251 36.0187 315.241 35.9973 315.219 35.976C315.198 35.9547 315.177 35.9493 315.155 35.96L313.571 36.392L313.507 36.408C313.411 36.408 313.363 36.3493 313.363 36.232L313.315 34.856C313.315 34.7493 313.363 34.6747 313.459 34.632L315.139 33.848Z" fill="white"/>
<path d="M62.52 16L62.504 9.28L59.208 14.816H58.04L54.76 9.424V16H52.328V4.8H54.472L58.664 11.76L62.792 4.8H64.92L64.952 16H62.52Z" fill="white" fill-opacity="0.8"/>
<path d="M107.648 6.912H104.064V4.8H113.824V6.912H110.24V16H107.648V6.912Z" fill="white" fill-opacity="0.8"/>
<path d="M211.648 6.912H208.064V4.8H217.824V6.912H214.24V16H211.648V6.912Z" fill="white" fill-opacity="0.8"/>
<path d="M259.92 6.88V9.84H265.104V11.92H259.92V16H257.328V4.8H265.792V6.88H259.92Z" fill="white" fill-opacity="0.8"/>
<path d="M309.008 16.192C308.123 16.192 307.264 16.0747 306.432 15.84C305.611 15.5947 304.949 15.28 304.448 14.896L305.328 12.944C305.808 13.296 306.379 13.5787 307.04 13.792C307.701 14.0053 308.363 14.112 309.024 14.112C309.76 14.112 310.304 14.0053 310.656 13.792C311.008 13.568 311.184 13.2747 311.184 12.912C311.184 12.6453 311.077 12.4267 310.864 12.256C310.661 12.0747 310.395 11.9307 310.064 11.824C309.744 11.7173 309.307 11.6 308.752 11.472C307.899 11.2693 307.2 11.0667 306.656 10.864C306.112 10.6613 305.643 10.336 305.248 9.888C304.864 9.44 304.672 8.84267 304.672 8.096C304.672 7.44533 304.848 6.85867 305.2 6.336C305.552 5.80267 306.08 5.38133 306.784 5.072C307.499 4.76267 308.368 4.608 309.392 4.608C310.107 4.608 310.805 4.69333 311.488 4.864C312.171 5.03467 312.768 5.28 313.28 5.6L312.48 7.568C311.445 6.98133 310.411 6.688 309.376 6.688C308.651 6.688 308.112 6.80533 307.76 7.04C307.419 7.27467 307.248 7.584 307.248 7.968C307.248 8.352 307.445 8.64 307.84 8.832C308.245 9.01333 308.859 9.19467 309.68 9.376C310.533 9.57867 311.232 9.78133 311.776 9.984C312.32 10.1867 312.784 10.5067 313.168 10.944C313.563 11.3813 313.76 11.9733 313.76 12.72C313.76 13.36 313.579 13.9467 313.216 14.48C312.864 15.0027 312.331 15.4187 311.616 15.728C310.901 16.0373 310.032 16.192 309.008 16.192Z" fill="white" fill-opacity="0.8"/>
<path d="M170.256 4.8L166.592 16H163.808L161.344 8.416L158.8 16H156.032L152.352 4.8H155.04L157.568 12.672L160.208 4.8H162.608L165.168 12.736L167.776 4.8H170.256Z" fill="white" fill-opacity="0.8"/>
</svg>
