<svg width="317" height="68" viewBox="0 0 317 68" fill="none" xmlns="http://www.w3.org/2000/svg">
<path d="M5.008 24.192C4.12267 24.192 3.264 24.0747 2.432 23.84C1.61067 23.5947 0.949333 23.28 0.448 22.896L1.328 20.944C1.808 21.296 2.37867 21.5787 3.04 21.792C3.70133 22.0053 4.36267 22.112 5.024 22.112C5.76 22.112 6.304 22.0053 6.656 21.792C7.008 21.568 7.184 21.2747 7.184 20.912C7.184 20.6453 7.07733 20.4267 6.864 20.256C6.66133 20.0747 6.39467 19.9307 6.064 19.824C5.744 19.7173 5.30667 19.6 4.752 19.472C3.89867 19.2693 3.2 19.0667 2.656 18.864C2.112 18.6613 1.64267 18.336 1.248 17.888C0.864 17.44 0.672 16.8427 0.672 16.096C0.672 15.4453 0.848 14.8587 1.2 14.336C1.552 13.8027 2.08 13.3813 2.784 13.072C3.49867 12.7627 4.368 12.608 5.392 12.608C6.10667 12.608 6.80533 12.6933 7.488 12.864C8.17067 13.0347 8.768 13.28 9.28 13.6L8.48 15.568C7.44533 14.9813 6.41067 14.688 5.376 14.688C4.65067 14.688 4.112 14.8053 3.76 15.04C3.41867 15.2747 3.248 15.584 3.248 15.968C3.248 16.352 3.44533 16.64 3.84 16.832C4.24533 17.0133 4.85867 17.1947 5.68 17.376C6.53333 17.5787 7.232 17.7813 7.776 17.984C8.32 18.1867 8.784 18.5067 9.168 18.944C9.56267 19.3813 9.76 19.9733 9.76 20.72C9.76 21.36 9.57867 21.9467 9.216 22.48C8.864 23.0027 8.33067 23.4187 7.616 23.728C6.90133 24.0373 6.032 24.192 5.008 24.192Z" fill="white" fill-opacity="0.8"/>
<path d="M8.68 48.072C8.92533 48.5627 9.048 49.112 9.048 49.72C9.048 50.36 8.91467 50.9093 8.648 51.368C8.37067 51.912 7.944 52.344 7.368 52.664C6.80267 52.9733 6.12533 53.128 5.336 53.128C4.58933 53.128 3.91733 52.9787 3.32 52.68C2.72267 52.3707 2.27467 51.928 1.976 51.352C1.72 50.8507 1.592 50.3013 1.592 49.704C1.592 49.1173 1.71467 48.568 1.96 48.056C2.14133 47.6827 2.408 47.3787 2.76 47.144C2.80267 47.112 2.80267 47.0747 2.76 47.032C2.504 46.84 2.28533 46.584 2.104 46.264C1.85867 45.8373 1.736 45.3573 1.736 44.824C1.736 44.0667 1.94933 43.4267 2.376 42.904C2.68533 42.488 3.096 42.168 3.608 41.944C4.13067 41.7093 4.70667 41.592 5.336 41.592C5.98667 41.592 6.56267 41.7093 7.064 41.944C7.56533 42.1787 7.97067 42.4987 8.28 42.904C8.70667 43.4587 8.92 44.0987 8.92 44.824C8.92 45.3787 8.78133 45.8747 8.504 46.312C8.32267 46.5893 8.104 46.824 7.848 47.016C7.80533 47.0587 7.80533 47.096 7.848 47.128C8.2 47.352 8.47733 47.6667 8.68 48.072ZM4.136 44.232C4.02933 44.4453 3.976 44.6693 3.976 44.904C3.976 45.2133 4.04533 45.4907 4.184 45.736C4.42933 46.12 4.808 46.312 5.32 46.312C5.832 46.312 6.22133 46.12 6.488 45.736C6.62667 45.5013 6.696 45.2187 6.696 44.888C6.696 44.6533 6.64267 44.4293 6.536 44.216C6.42933 44.0027 6.26933 43.8373 6.056 43.72C5.84267 43.592 5.592 43.528 5.304 43.528C5.048 43.528 4.81333 43.592 4.6 43.72C4.39733 43.8373 4.24267 44.008 4.136 44.232ZM6.472 50.632C6.67467 50.344 6.776 49.9707 6.776 49.512C6.776 49.1173 6.70133 48.7867 6.552 48.52C6.31733 48.072 5.90667 47.848 5.32 47.848C4.76533 47.848 4.37067 48.0667 4.136 48.504C3.976 48.7707 3.896 49.1173 3.896 49.544C3.896 49.96 3.98667 50.3067 4.168 50.584C4.41333 50.9893 4.80267 51.192 5.336 51.192C5.848 51.192 6.22667 51.0053 6.472 50.632Z" fill="#FC5757"/>
<path d="M58.536 43.832C58.7173 44.2693 58.808 44.792 58.808 45.4V50.216C58.808 50.792 58.6587 51.304 58.36 51.752C58.0613 52.1893 57.64 52.5307 57.096 52.776C56.552 53.0107 55.928 53.128 55.224 53.128C54.5307 53.128 53.9173 53.0107 53.384 52.776C52.8507 52.5307 52.4347 52.1947 52.136 51.768C51.8373 51.3307 51.688 50.8293 51.688 50.264V49.816C51.688 49.7627 51.704 49.72 51.736 49.688C51.7787 49.6453 51.8267 49.624 51.88 49.624H53.752C53.8053 49.624 53.848 49.6453 53.88 49.688C53.9227 49.72 53.944 49.7627 53.944 49.816V49.96C53.944 50.312 54.0613 50.6053 54.296 50.84C54.5413 51.0747 54.8507 51.192 55.224 51.192C55.6187 51.192 55.9387 51.0747 56.184 50.84C56.4293 50.5947 56.552 50.2853 56.552 49.912V48.424C56.552 48.392 56.5413 48.3707 56.52 48.36C56.4987 48.3493 56.4773 48.3547 56.456 48.376C56.0187 48.7493 55.4427 48.936 54.728 48.936C54.088 48.936 53.512 48.792 53 48.504C52.4987 48.2053 52.104 47.7787 51.816 47.224C51.5493 46.7227 51.416 46.1093 51.416 45.384C51.416 44.7547 51.5227 44.2 51.736 43.72C52.0027 43.0907 52.4293 42.5947 53.016 42.232C53.6133 41.8693 54.312 41.688 55.112 41.688C55.9227 41.688 56.6267 41.88 57.224 42.264C57.832 42.6373 58.2693 43.16 58.536 43.832ZM55.112 47.048C55.6667 47.048 56.0667 46.8293 56.312 46.392C56.472 46.1147 56.552 45.7573 56.552 45.32C56.552 44.968 56.4827 44.6427 56.344 44.344C56.1093 43.8747 55.704 43.64 55.128 43.64C54.5733 43.64 54.168 43.8747 53.912 44.344C53.752 44.6427 53.672 44.9787 53.672 45.352C53.672 45.7573 53.7627 46.1093 53.944 46.408C54.2107 46.8347 54.6 47.048 55.112 47.048Z" fill="white"/>
<path d="M100.4 41.848C100.453 41.816 100.533 41.8 100.64 41.8H102.576C102.629 41.8 102.672 41.8213 102.704 41.864C102.747 41.896 102.768 41.9387 102.768 41.992V52.808C102.768 52.8613 102.747 52.9093 102.704 52.952C102.672 52.984 102.629 53 102.576 53H100.704C100.651 53 100.603 52.984 100.56 52.952C100.528 52.9093 100.512 52.8613 100.512 52.808V44.04C100.512 44.0187 100.501 43.9973 100.48 43.976C100.459 43.9547 100.437 43.9493 100.416 43.96L98.832 44.392L98.768 44.408C98.672 44.408 98.624 44.3493 98.624 44.232L98.576 42.856C98.576 42.7493 98.624 42.6747 98.72 42.632L100.4 41.848ZM111.08 53.176C109.907 53.176 108.979 52.8507 108.296 52.2C107.614 51.5387 107.272 50.6427 107.272 49.512V45.288C107.272 44.1787 107.614 43.2987 108.296 42.648C108.979 41.9973 109.907 41.672 111.08 41.672C112.254 41.672 113.182 41.9973 113.864 42.648C114.558 43.2987 114.904 44.1787 114.904 45.288V49.512C114.904 50.6427 114.558 51.5387 113.864 52.2C113.182 52.8507 112.254 53.176 111.08 53.176ZM111.08 51.24C111.56 51.24 111.939 51.096 112.216 50.808C112.504 50.5093 112.648 50.1147 112.648 49.624V45.224C112.648 44.7333 112.504 44.344 112.216 44.056C111.939 43.7573 111.56 43.608 111.08 43.608C110.611 43.608 110.232 43.7573 109.944 44.056C109.667 44.344 109.528 44.7333 109.528 45.224V49.624C109.528 50.1147 109.667 50.5093 109.944 50.808C110.232 51.096 110.611 51.24 111.08 51.24Z" fill="white"/>
<path d="M152.4 41.848C152.453 41.816 152.533 41.8 152.64 41.8H154.576C154.629 41.8 154.672 41.8213 154.704 41.864C154.747 41.896 154.768 41.9387 154.768 41.992V52.808C154.768 52.8613 154.747 52.9093 154.704 52.952C154.672 52.984 154.629 53 154.576 53H152.704C152.651 53 152.603 52.984 152.56 52.952C152.528 52.9093 152.512 52.8613 152.512 52.808V44.04C152.512 44.0187 152.501 43.9973 152.48 43.976C152.459 43.9547 152.437 43.9493 152.416 43.96L150.832 44.392L150.768 44.408C150.672 44.408 150.624 44.3493 150.624 44.232L150.576 42.856C150.576 42.7493 150.624 42.6747 150.72 42.632L152.4 41.848ZM161.046 41.848C161.099 41.816 161.179 41.8 161.286 41.8H163.222C163.275 41.8 163.318 41.8213 163.35 41.864C163.392 41.896 163.414 41.9387 163.414 41.992V52.808C163.414 52.8613 163.392 52.9093 163.35 52.952C163.318 52.984 163.275 53 163.222 53H161.35C161.296 53 161.248 52.984 161.206 52.952C161.174 52.9093 161.158 52.8613 161.158 52.808V44.04C161.158 44.0187 161.147 43.9973 161.126 43.976C161.104 43.9547 161.083 43.9493 161.062 43.96L159.478 44.392L159.414 44.408C159.318 44.408 159.27 44.3493 159.27 44.232L159.222 42.856C159.222 42.7493 159.27 42.6747 159.366 42.632L161.046 41.848Z" fill="white"/>
<path d="M204.4 41.848C204.453 41.816 204.533 41.8 204.64 41.8H206.576C206.629 41.8 206.672 41.8213 206.704 41.864C206.747 41.896 206.768 41.9387 206.768 41.992V52.808C206.768 52.8613 206.747 52.9093 206.704 52.952C206.672 52.984 206.629 53 206.576 53H204.704C204.651 53 204.603 52.984 204.56 52.952C204.528 52.9093 204.512 52.8613 204.512 52.808V44.04C204.512 44.0187 204.501 43.9973 204.48 43.976C204.459 43.9547 204.437 43.9493 204.416 43.96L202.832 44.392L202.768 44.408C202.672 44.408 202.624 44.3493 202.624 44.232L202.576 42.856C202.576 42.7493 202.624 42.6747 202.72 42.632L204.4 41.848ZM214.264 50.968C214.243 50.9893 214.238 51.0107 214.248 51.032C214.259 51.0533 214.28 51.064 214.312 51.064H218.648C218.702 51.064 218.744 51.0853 218.776 51.128C218.819 51.16 218.84 51.2027 218.84 51.256V52.808C218.84 52.8613 218.819 52.9093 218.776 52.952C218.744 52.984 218.702 53 218.648 53H211.448C211.395 53 211.347 52.984 211.304 52.952C211.272 52.9093 211.256 52.8613 211.256 52.808V51.336C211.256 51.24 211.288 51.16 211.352 51.096C211.875 50.584 212.408 50.0293 212.952 49.432C213.496 48.824 213.838 48.4453 213.976 48.296C214.275 47.944 214.579 47.608 214.888 47.288C215.859 46.2107 216.344 45.4107 216.344 44.888C216.344 44.5147 216.211 44.2107 215.944 43.976C215.678 43.7307 215.331 43.608 214.904 43.608C214.478 43.608 214.131 43.7307 213.864 43.976C213.598 44.2107 213.464 44.5253 213.464 44.92V45.32C213.464 45.3733 213.443 45.4213 213.4 45.464C213.368 45.496 213.326 45.512 213.272 45.512H211.384C211.331 45.512 211.283 45.496 211.24 45.464C211.208 45.4213 211.192 45.3733 211.192 45.32V44.568C211.224 43.992 211.406 43.4853 211.736 43.048C212.067 42.6 212.504 42.2587 213.048 42.024C213.603 41.7893 214.222 41.672 214.904 41.672C215.662 41.672 216.318 41.816 216.872 42.104C217.438 42.3813 217.87 42.76 218.168 43.24C218.478 43.72 218.632 44.2533 218.632 44.84C218.632 45.288 218.52 45.7467 218.296 46.216C218.072 46.6853 217.736 47.192 217.288 47.736C216.958 48.152 216.6 48.5627 216.216 48.968C215.832 49.3733 215.262 49.96 214.504 50.728L214.264 50.968Z" fill="white"/>
<rect x="242" width="34" height="68" rx="17" fill="#FFB123" fill-opacity="0.9"/>
<path d="M252.4 41.848C252.453 41.816 252.533 41.8 252.64 41.8H254.576C254.629 41.8 254.672 41.8213 254.704 41.864C254.747 41.896 254.768 41.9387 254.768 41.992V52.808C254.768 52.8613 254.747 52.9093 254.704 52.952C254.672 52.984 254.629 53 254.576 53H252.704C252.651 53 252.603 52.984 252.56 52.952C252.528 52.9093 252.512 52.8613 252.512 52.808V44.04C252.512 44.0187 252.501 43.9973 252.48 43.976C252.459 43.9547 252.437 43.9493 252.416 43.96L250.832 44.392L250.768 44.408C250.672 44.408 250.624 44.3493 250.624 44.232L250.576 42.856C250.576 42.7493 250.624 42.6747 250.72 42.632L252.4 41.848ZM266.168 47.656C266.382 48.1467 266.488 48.712 266.488 49.352C266.488 49.928 266.392 50.4613 266.2 50.952C265.944 51.6347 265.512 52.168 264.904 52.552C264.307 52.936 263.598 53.128 262.776 53.128C261.966 53.128 261.251 52.9253 260.632 52.52C260.024 52.1147 259.587 51.5653 259.32 50.872C259.171 50.456 259.086 50.008 259.064 49.528C259.064 49.4 259.128 49.336 259.256 49.336H261.144C261.272 49.336 261.336 49.4 261.336 49.528C261.379 49.88 261.438 50.1413 261.512 50.312C261.608 50.5893 261.763 50.808 261.976 50.968C262.2 51.1173 262.462 51.192 262.76 51.192C263.358 51.192 263.768 50.9307 263.992 50.408C264.142 50.088 264.216 49.7147 264.216 49.288C264.216 48.7867 264.136 48.376 263.976 48.056C263.731 47.5547 263.32 47.304 262.744 47.304C262.627 47.304 262.504 47.3413 262.376 47.416C262.248 47.48 262.094 47.576 261.912 47.704C261.87 47.736 261.827 47.752 261.784 47.752C261.72 47.752 261.672 47.72 261.64 47.656L260.696 46.328C260.675 46.296 260.664 46.2587 260.664 46.216C260.664 46.152 260.686 46.0987 260.728 46.056L263.272 43.832C263.294 43.8107 263.299 43.7893 263.288 43.768C263.288 43.7467 263.272 43.736 263.24 43.736H259.48C259.427 43.736 259.379 43.72 259.336 43.688C259.304 43.6453 259.288 43.5973 259.288 43.544V41.992C259.288 41.9387 259.304 41.896 259.336 41.864C259.379 41.8213 259.427 41.8 259.48 41.8H266.152C266.206 41.8 266.248 41.8213 266.28 41.864C266.323 41.896 266.344 41.9387 266.344 41.992V43.752C266.344 43.8373 266.307 43.9173 266.232 43.992L264.136 45.912C264.115 45.9333 264.104 45.9547 264.104 45.976C264.115 45.9973 264.142 46.008 264.184 46.008C265.112 46.1893 265.774 46.7387 266.168 47.656Z" fill="white"/>
<path d="M300.4 41.848C300.453 41.816 300.533 41.8 300.64 41.8H302.576C302.629 41.8 302.672 41.8213 302.704 41.864C302.747 41.896 302.768 41.9387 302.768 41.992V52.808C302.768 52.8613 302.747 52.9093 302.704 52.952C302.672 52.984 302.629 53 302.576 53H300.704C300.651 53 300.603 52.984 300.56 52.952C300.528 52.9093 300.512 52.8613 300.512 52.808V44.04C300.512 44.0187 300.501 43.9973 300.48 43.976C300.459 43.9547 300.437 43.9493 300.416 43.96L298.832 44.392L298.768 44.408C298.672 44.408 298.624 44.3493 298.624 44.232L298.576 42.856C298.576 42.7493 298.624 42.6747 298.72 42.632L300.4 41.848ZM315.272 48.12C315.326 48.12 315.368 48.1413 315.4 48.184C315.443 48.216 315.464 48.2587 315.464 48.312V49.928C315.464 49.9813 315.443 50.0293 315.4 50.072C315.368 50.104 315.326 50.12 315.272 50.12H314.584C314.531 50.12 314.504 50.1467 314.504 50.2V52.808C314.504 52.8613 314.483 52.9093 314.44 52.952C314.408 52.984 314.366 53 314.312 53H312.44C312.387 53 312.339 52.984 312.296 52.952C312.264 52.9093 312.248 52.8613 312.248 52.808V50.2C312.248 50.1467 312.222 50.12 312.168 50.12H307.256C307.203 50.12 307.155 50.104 307.112 50.072C307.08 50.0293 307.064 49.9813 307.064 49.928V48.648C307.064 48.584 307.08 48.504 307.112 48.408L309.992 41.944C310.035 41.848 310.11 41.8 310.216 41.8H312.216C312.291 41.8 312.339 41.8213 312.36 41.864C312.392 41.896 312.392 41.9493 312.36 42.024L309.688 48.024C309.678 48.0453 309.678 48.0667 309.688 48.088C309.699 48.1093 309.715 48.12 309.736 48.12H312.168C312.222 48.12 312.248 48.0933 312.248 48.04V46.056C312.248 46.0027 312.264 45.96 312.296 45.928C312.339 45.8853 312.387 45.864 312.44 45.864H314.312C314.366 45.864 314.408 45.8853 314.44 45.928C314.483 45.96 314.504 46.0027 314.504 46.056V48.04C314.504 48.0933 314.531 48.12 314.584 48.12H315.272Z" fill="white"/>
<path d="M59.52 24L59.504 17.28L56.208 22.816H55.04L51.76 17.424V24H49.328V12.8H51.472L55.664 19.76L59.792 12.8H61.92L61.952 24H59.52Z" fill="white" fill-opacity="0.8"/>
<path d="M104.648 14.912H101.064V12.8H110.824V14.912H107.24V24H104.648V14.912Z" fill="white" fill-opacity="0.8"/>
<path d="M208.648 14.912H205.064V12.8H214.824V14.912H211.24V24H208.648V14.912Z" fill="white" fill-opacity="0.8"/>
<path d="M256.92 14.88V17.84H262.104V19.92H256.92V24H254.328V12.8H262.792V14.88H256.92Z" fill="white" fill-opacity="0.8"/>
<path d="M306.008 24.192C305.123 24.192 304.264 24.0747 303.432 23.84C302.611 23.5947 301.949 23.28 301.448 22.896L302.328 20.944C302.808 21.296 303.379 21.5787 304.04 21.792C304.701 22.0053 305.363 22.112 306.024 22.112C306.76 22.112 307.304 22.0053 307.656 21.792C308.008 21.568 308.184 21.2747 308.184 20.912C308.184 20.6453 308.077 20.4267 307.864 20.256C307.661 20.0747 307.395 19.9307 307.064 19.824C306.744 19.7173 306.307 19.6 305.752 19.472C304.899 19.2693 304.2 19.0667 303.656 18.864C303.112 18.6613 302.643 18.336 302.248 17.888C301.864 17.44 301.672 16.8427 301.672 16.096C301.672 15.4453 301.848 14.8587 302.2 14.336C302.552 13.8027 303.08 13.3813 303.784 13.072C304.499 12.7627 305.368 12.608 306.392 12.608C307.107 12.608 307.805 12.6933 308.488 12.864C309.171 13.0347 309.768 13.28 310.28 13.6L309.48 15.568C308.445 14.9813 307.411 14.688 306.376 14.688C305.651 14.688 305.112 14.8053 304.76 15.04C304.419 15.2747 304.248 15.584 304.248 15.968C304.248 16.352 304.445 16.64 304.84 16.832C305.245 17.0133 305.859 17.1947 306.68 17.376C307.533 17.5787 308.232 17.7813 308.776 17.984C309.32 18.1867 309.784 18.5067 310.168 18.944C310.563 19.3813 310.76 19.9733 310.76 20.72C310.76 21.36 310.579 21.9467 310.216 22.48C309.864 23.0027 309.331 23.4187 308.616 23.728C307.901 24.0373 307.032 24.192 306.008 24.192Z" fill="white" fill-opacity="0.8"/>
<path d="M167.256 12.8L163.592 24H160.808L158.344 16.416L155.8 24H153.032L149.352 12.8H152.04L154.568 20.672L157.208 12.8H159.608L162.168 20.736L164.776 12.8H167.256Z" fill="white" fill-opacity="0.8"/>
</svg>
