<svg width="322" height="67" viewBox="0 0 322 67" fill="none" xmlns="http://www.w3.org/2000/svg">
<path d="M8.008 16.192C7.12267 16.192 6.264 16.0747 5.432 15.84C4.61067 15.5947 3.94933 15.28 3.448 14.896L4.328 12.944C4.808 13.296 5.37867 13.5787 6.04 13.792C6.70133 14.0053 7.36267 14.112 8.024 14.112C8.76 14.112 9.304 14.0053 9.656 13.792C10.008 13.568 10.184 13.2747 10.184 12.912C10.184 12.6453 10.0773 12.4267 9.864 12.256C9.66133 12.0747 9.39467 11.9307 9.064 11.824C8.744 11.7173 8.30667 11.6 7.752 11.472C6.89867 11.2693 6.2 11.0667 5.656 10.864C5.112 10.6613 4.64267 10.336 4.248 9.888C3.864 9.44 3.672 8.84267 3.672 8.096C3.672 7.44533 3.848 6.85867 4.2 6.336C4.552 5.80267 5.08 5.38133 5.784 5.072C6.49867 4.76267 7.368 4.608 8.392 4.608C9.10667 4.608 9.80533 4.69333 10.488 4.864C11.1707 5.03467 11.768 5.28 12.28 5.6L11.48 7.568C10.4453 6.98133 9.41067 6.688 8.376 6.688C7.65067 6.688 7.112 6.80533 6.76 7.04C6.41867 7.27467 6.248 7.584 6.248 7.968C6.248 8.352 6.44533 8.64 6.84 8.832C7.24533 9.01333 7.85867 9.19467 8.68 9.376C9.53333 9.57867 10.232 9.78133 10.776 9.984C11.32 10.1867 11.784 10.5067 12.168 10.944C12.5627 11.3813 12.76 11.9733 12.76 12.72C12.76 13.36 12.5787 13.9467 12.216 14.48C11.864 15.0027 11.3307 15.4187 10.616 15.728C9.90133 16.0373 9.032 16.192 8.008 16.192Z" fill="white" fill-opacity="0.8"/>
<path d="M3.728 42.968C3.70667 42.9893 3.70133 43.0107 3.712 43.032C3.72267 43.0533 3.744 43.064 3.776 43.064H8.112C8.16533 43.064 8.208 43.0853 8.24 43.128C8.28267 43.16 8.304 43.2027 8.304 43.256V44.808C8.304 44.8613 8.28267 44.9093 8.24 44.952C8.208 44.984 8.16533 45 8.112 45H0.912C0.858667 45 0.810667 44.984 0.768 44.952C0.736 44.9093 0.72 44.8613 0.72 44.808V43.336C0.72 43.24 0.752 43.16 0.816 43.096C1.33867 42.584 1.872 42.0293 2.416 41.432C2.96 40.824 3.30133 40.4453 3.44 40.296C3.73867 39.944 4.04267 39.608 4.352 39.288C5.32267 38.2107 5.808 37.4107 5.808 36.888C5.808 36.5147 5.67467 36.2107 5.408 35.976C5.14133 35.7307 4.79467 35.608 4.368 35.608C3.94133 35.608 3.59467 35.7307 3.328 35.976C3.06133 36.2107 2.928 36.5253 2.928 36.92V37.32C2.928 37.3733 2.90667 37.4213 2.864 37.464C2.832 37.496 2.78933 37.512 2.736 37.512H0.848C0.794667 37.512 0.746667 37.496 0.704 37.464C0.672 37.4213 0.656 37.3733 0.656 37.32V36.568C0.688 35.992 0.869333 35.4853 1.2 35.048C1.53067 34.6 1.968 34.2587 2.512 34.024C3.06667 33.7893 3.68533 33.672 4.368 33.672C5.12533 33.672 5.78133 33.816 6.336 34.104C6.90133 34.3813 7.33333 34.76 7.632 35.24C7.94133 35.72 8.096 36.2533 8.096 36.84C8.096 37.288 7.984 37.7467 7.76 38.216C7.536 38.6853 7.2 39.192 6.752 39.736C6.42133 40.152 6.064 40.5627 5.68 40.968C5.296 41.3733 4.72533 41.96 3.968 42.728L3.728 42.968ZM15.5611 42.968C15.5398 42.9893 15.5345 43.0107 15.5451 43.032C15.5558 43.0533 15.5771 43.064 15.6091 43.064H19.9451C19.9985 43.064 20.0411 43.0853 20.0731 43.128C20.1158 43.16 20.1371 43.2027 20.1371 43.256V44.808C20.1371 44.8613 20.1158 44.9093 20.0731 44.952C20.0411 44.984 19.9985 45 19.9451 45H12.7451C12.6918 45 12.6438 44.984 12.6011 44.952C12.5691 44.9093 12.5531 44.8613 12.5531 44.808V43.336C12.5531 43.24 12.5851 43.16 12.6491 43.096C13.1718 42.584 13.7051 42.0293 14.2491 41.432C14.7931 40.824 15.1345 40.4453 15.2731 40.296C15.5718 39.944 15.8758 39.608 16.1851 39.288C17.1558 38.2107 17.6411 37.4107 17.6411 36.888C17.6411 36.5147 17.5078 36.2107 17.2411 35.976C16.9745 35.7307 16.6278 35.608 16.2011 35.608C15.7745 35.608 15.4278 35.7307 15.1611 35.976C14.8945 36.2107 14.7611 36.5253 14.7611 36.92V37.32C14.7611 37.3733 14.7398 37.4213 14.6971 37.464C14.6651 37.496 14.6225 37.512 14.5691 37.512H12.6811C12.6278 37.512 12.5798 37.496 12.5371 37.464C12.5051 37.4213 12.4891 37.3733 12.4891 37.32V36.568C12.5211 35.992 12.7025 35.4853 13.0331 35.048C13.3638 34.6 13.8011 34.2587 14.3451 34.024C14.8998 33.7893 15.5185 33.672 16.2011 33.672C16.9585 33.672 17.6145 33.816 18.1691 34.104C18.7345 34.3813 19.1665 34.76 19.4651 35.24C19.7745 35.72 19.9291 36.2533 19.9291 36.84C19.9291 37.288 19.8171 37.7467 19.5931 38.216C19.3691 38.6853 19.0331 39.192 18.5851 39.736C18.2545 40.152 17.8971 40.5627 17.5131 40.968C17.1291 41.3733 16.5585 41.96 15.8011 42.728L15.5611 42.968Z" fill="#FC5757"/>
<path d="M54.728 42.968C54.7067 42.9893 54.7013 43.0107 54.712 43.032C54.7227 43.0533 54.744 43.064 54.776 43.064H59.112C59.1653 43.064 59.208 43.0853 59.24 43.128C59.2827 43.16 59.304 43.2027 59.304 43.256V44.808C59.304 44.8613 59.2827 44.9093 59.24 44.952C59.208 44.984 59.1653 45 59.112 45H51.912C51.8587 45 51.8107 44.984 51.768 44.952C51.736 44.9093 51.72 44.8613 51.72 44.808V43.336C51.72 43.24 51.752 43.16 51.816 43.096C52.3387 42.584 52.872 42.0293 53.416 41.432C53.96 40.824 54.3013 40.4453 54.44 40.296C54.7387 39.944 55.0427 39.608 55.352 39.288C56.3227 38.2107 56.808 37.4107 56.808 36.888C56.808 36.5147 56.6747 36.2107 56.408 35.976C56.1413 35.7307 55.7947 35.608 55.368 35.608C54.9413 35.608 54.5947 35.7307 54.328 35.976C54.0613 36.2107 53.928 36.5253 53.928 36.92V37.32C53.928 37.3733 53.9067 37.4213 53.864 37.464C53.832 37.496 53.7893 37.512 53.736 37.512H51.848C51.7947 37.512 51.7467 37.496 51.704 37.464C51.672 37.4213 51.656 37.3733 51.656 37.32V36.568C51.688 35.992 51.8693 35.4853 52.2 35.048C52.5307 34.6 52.968 34.2587 53.512 34.024C54.0667 33.7893 54.6853 33.672 55.368 33.672C56.1253 33.672 56.7813 33.816 57.336 34.104C57.9013 34.3813 58.3333 34.76 58.632 35.24C58.9413 35.72 59.096 36.2533 59.096 36.84C59.096 37.288 58.984 37.7467 58.76 38.216C58.536 38.6853 58.2 39.192 57.752 39.736C57.4213 40.152 57.064 40.5627 56.68 40.968C56.296 41.3733 55.7253 41.96 54.968 42.728L54.728 42.968ZM70.2464 39.656C70.4597 40.1467 70.5664 40.712 70.5664 41.352C70.5664 41.928 70.4704 42.4613 70.2784 42.952C70.0224 43.6347 69.5904 44.168 68.9824 44.552C68.385 44.936 67.6757 45.128 66.8544 45.128C66.0437 45.128 65.329 44.9253 64.7104 44.52C64.1024 44.1147 63.665 43.5653 63.3984 42.872C63.249 42.456 63.1637 42.008 63.1424 41.528C63.1424 41.4 63.2064 41.336 63.3344 41.336H65.2224C65.3504 41.336 65.4144 41.4 65.4144 41.528C65.457 41.88 65.5157 42.1413 65.5904 42.312C65.6864 42.5893 65.841 42.808 66.0544 42.968C66.2784 43.1173 66.5397 43.192 66.8384 43.192C67.4357 43.192 67.8464 42.9307 68.0704 42.408C68.2197 42.088 68.2944 41.7147 68.2944 41.288C68.2944 40.7867 68.2144 40.376 68.0544 40.056C67.809 39.5547 67.3984 39.304 66.8224 39.304C66.705 39.304 66.5824 39.3413 66.4544 39.416C66.3264 39.48 66.1717 39.576 65.9904 39.704C65.9477 39.736 65.905 39.752 65.8624 39.752C65.7984 39.752 65.7504 39.72 65.7184 39.656L64.7744 38.328C64.753 38.296 64.7424 38.2587 64.7424 38.216C64.7424 38.152 64.7637 38.0987 64.8064 38.056L67.3504 35.832C67.3717 35.8107 67.377 35.7893 67.3664 35.768C67.3664 35.7467 67.3504 35.736 67.3184 35.736H63.5584C63.505 35.736 63.457 35.72 63.4144 35.688C63.3824 35.6453 63.3664 35.5973 63.3664 35.544V33.992C63.3664 33.9387 63.3824 33.896 63.4144 33.864C63.457 33.8213 63.505 33.8 63.5584 33.8H70.2304C70.2837 33.8 70.3264 33.8213 70.3584 33.864C70.401 33.896 70.4224 33.9387 70.4224 33.992V35.752C70.4224 35.8373 70.385 35.9173 70.3104 35.992L68.2144 37.912C68.193 37.9333 68.1824 37.9547 68.1824 37.976C68.193 37.9973 68.2197 38.008 68.2624 38.008C69.1904 38.1893 69.8517 38.7387 70.2464 39.656Z" fill="white"/>
<path d="M104.728 42.968C104.707 42.9893 104.701 43.0107 104.712 43.032C104.723 43.0533 104.744 43.064 104.776 43.064H109.112C109.165 43.064 109.208 43.0853 109.24 43.128C109.283 43.16 109.304 43.2027 109.304 43.256V44.808C109.304 44.8613 109.283 44.9093 109.24 44.952C109.208 44.984 109.165 45 109.112 45H101.912C101.859 45 101.811 44.984 101.768 44.952C101.736 44.9093 101.72 44.8613 101.72 44.808V43.336C101.72 43.24 101.752 43.16 101.816 43.096C102.339 42.584 102.872 42.0293 103.416 41.432C103.96 40.824 104.301 40.4453 104.44 40.296C104.739 39.944 105.043 39.608 105.352 39.288C106.323 38.2107 106.808 37.4107 106.808 36.888C106.808 36.5147 106.675 36.2107 106.408 35.976C106.141 35.7307 105.795 35.608 105.368 35.608C104.941 35.608 104.595 35.7307 104.328 35.976C104.061 36.2107 103.928 36.5253 103.928 36.92V37.32C103.928 37.3733 103.907 37.4213 103.864 37.464C103.832 37.496 103.789 37.512 103.736 37.512H101.848C101.795 37.512 101.747 37.496 101.704 37.464C101.672 37.4213 101.656 37.3733 101.656 37.32V36.568C101.688 35.992 101.869 35.4853 102.2 35.048C102.531 34.6 102.968 34.2587 103.512 34.024C104.067 33.7893 104.685 33.672 105.368 33.672C106.125 33.672 106.781 33.816 107.336 34.104C107.901 34.3813 108.333 34.76 108.632 35.24C108.941 35.72 109.096 36.2533 109.096 36.84C109.096 37.288 108.984 37.7467 108.76 38.216C108.536 38.6853 108.2 39.192 107.752 39.736C107.421 40.152 107.064 40.5627 106.68 40.968C106.296 41.3733 105.725 41.96 104.968 42.728L104.728 42.968ZM121.569 40.12C121.622 40.12 121.665 40.1413 121.697 40.184C121.74 40.216 121.761 40.2587 121.761 40.312V41.928C121.761 41.9813 121.74 42.0293 121.697 42.072C121.665 42.104 121.622 42.12 121.569 42.12H120.881C120.828 42.12 120.801 42.1467 120.801 42.2V44.808C120.801 44.8613 120.78 44.9093 120.737 44.952C120.705 44.984 120.662 45 120.609 45H118.737C118.684 45 118.636 44.984 118.593 44.952C118.561 44.9093 118.545 44.8613 118.545 44.808V42.2C118.545 42.1467 118.518 42.12 118.465 42.12H113.553C113.5 42.12 113.452 42.104 113.409 42.072C113.377 42.0293 113.361 41.9813 113.361 41.928V40.648C113.361 40.584 113.377 40.504 113.409 40.408L116.289 33.944C116.332 33.848 116.406 33.8 116.513 33.8H118.513C118.588 33.8 118.636 33.8213 118.657 33.864C118.689 33.896 118.689 33.9493 118.657 34.024L115.985 40.024C115.974 40.0453 115.974 40.0667 115.985 40.088C115.996 40.1093 116.012 40.12 116.033 40.12H118.465C118.518 40.12 118.545 40.0933 118.545 40.04V38.056C118.545 38.0027 118.561 37.96 118.593 37.928C118.636 37.8853 118.684 37.864 118.737 37.864H120.609C120.662 37.864 120.705 37.8853 120.737 37.928C120.78 37.96 120.801 38.0027 120.801 38.056V40.04C120.801 40.0933 120.828 40.12 120.881 40.12H121.569Z" fill="white"/>
<path d="M156.728 42.968C156.707 42.9893 156.701 43.0107 156.712 43.032C156.723 43.0533 156.744 43.064 156.776 43.064H161.112C161.165 43.064 161.208 43.0853 161.24 43.128C161.283 43.16 161.304 43.2027 161.304 43.256V44.808C161.304 44.8613 161.283 44.9093 161.24 44.952C161.208 44.984 161.165 45 161.112 45H153.912C153.859 45 153.811 44.984 153.768 44.952C153.736 44.9093 153.72 44.8613 153.72 44.808V43.336C153.72 43.24 153.752 43.16 153.816 43.096C154.339 42.584 154.872 42.0293 155.416 41.432C155.96 40.824 156.301 40.4453 156.44 40.296C156.739 39.944 157.043 39.608 157.352 39.288C158.323 38.2107 158.808 37.4107 158.808 36.888C158.808 36.5147 158.675 36.2107 158.408 35.976C158.141 35.7307 157.795 35.608 157.368 35.608C156.941 35.608 156.595 35.7307 156.328 35.976C156.061 36.2107 155.928 36.5253 155.928 36.92V37.32C155.928 37.3733 155.907 37.4213 155.864 37.464C155.832 37.496 155.789 37.512 155.736 37.512H153.848C153.795 37.512 153.747 37.496 153.704 37.464C153.672 37.4213 153.656 37.3733 153.656 37.32V36.568C153.688 35.992 153.869 35.4853 154.2 35.048C154.531 34.6 154.968 34.2587 155.512 34.024C156.067 33.7893 156.685 33.672 157.368 33.672C158.125 33.672 158.781 33.816 159.336 34.104C159.901 34.3813 160.333 34.76 160.632 35.24C160.941 35.72 161.096 36.2533 161.096 36.84C161.096 37.288 160.984 37.7467 160.76 38.216C160.536 38.6853 160.2 39.192 159.752 39.736C159.421 40.152 159.064 40.5627 158.68 40.968C158.296 41.3733 157.725 41.96 156.968 42.728L156.728 42.968ZM172.689 39.896C172.849 40.4187 172.929 40.9253 172.929 41.416C172.929 41.96 172.844 42.4507 172.673 42.888C172.428 43.5707 171.996 44.1147 171.377 44.52C170.758 44.9147 170.033 45.112 169.201 45.112C168.39 45.112 167.676 44.92 167.057 44.536C166.449 44.1413 166.017 43.608 165.761 42.936C165.654 42.6587 165.574 42.3653 165.521 42.056V42.024C165.521 41.9067 165.585 41.848 165.713 41.848H167.649C167.756 41.848 167.825 41.9067 167.857 42.024C167.868 42.088 167.884 42.1413 167.905 42.184C167.926 42.2267 167.942 42.264 167.953 42.296C168.06 42.5733 168.22 42.7867 168.433 42.936C168.646 43.0853 168.897 43.16 169.185 43.16C169.484 43.16 169.745 43.08 169.969 42.92C170.193 42.76 170.358 42.536 170.465 42.248C170.572 42.0347 170.625 41.7573 170.625 41.416C170.625 41.1067 170.577 40.8293 170.481 40.584C170.406 40.3067 170.257 40.0933 170.033 39.944C169.809 39.7947 169.548 39.72 169.249 39.72C168.95 39.72 168.673 39.7893 168.417 39.928C168.161 40.0667 167.99 40.248 167.905 40.472C167.873 40.5787 167.804 40.632 167.697 40.632H165.729C165.676 40.632 165.628 40.616 165.585 40.584C165.553 40.5413 165.537 40.4933 165.537 40.44V33.992C165.537 33.9387 165.553 33.896 165.585 33.864C165.628 33.8213 165.676 33.8 165.729 33.8H172.337C172.39 33.8 172.433 33.8213 172.465 33.864C172.508 33.896 172.529 33.9387 172.529 33.992V35.544C172.529 35.5973 172.508 35.6453 172.465 35.688C172.433 35.72 172.39 35.736 172.337 35.736H167.873C167.82 35.736 167.793 35.7627 167.793 35.816L167.777 38.184C167.777 38.2587 167.809 38.2747 167.873 38.232C168.353 37.9227 168.908 37.768 169.537 37.768C170.284 37.768 170.934 37.96 171.489 38.344C172.054 38.7173 172.454 39.2347 172.689 39.896Z" fill="white"/>
<path d="M208.728 42.968C208.707 42.9893 208.701 43.0107 208.712 43.032C208.723 43.0533 208.744 43.064 208.776 43.064H213.112C213.165 43.064 213.208 43.0853 213.24 43.128C213.283 43.16 213.304 43.2027 213.304 43.256V44.808C213.304 44.8613 213.283 44.9093 213.24 44.952C213.208 44.984 213.165 45 213.112 45H205.912C205.859 45 205.811 44.984 205.768 44.952C205.736 44.9093 205.72 44.8613 205.72 44.808V43.336C205.72 43.24 205.752 43.16 205.816 43.096C206.339 42.584 206.872 42.0293 207.416 41.432C207.96 40.824 208.301 40.4453 208.44 40.296C208.739 39.944 209.043 39.608 209.352 39.288C210.323 38.2107 210.808 37.4107 210.808 36.888C210.808 36.5147 210.675 36.2107 210.408 35.976C210.141 35.7307 209.795 35.608 209.368 35.608C208.941 35.608 208.595 35.7307 208.328 35.976C208.061 36.2107 207.928 36.5253 207.928 36.92V37.32C207.928 37.3733 207.907 37.4213 207.864 37.464C207.832 37.496 207.789 37.512 207.736 37.512H205.848C205.795 37.512 205.747 37.496 205.704 37.464C205.672 37.4213 205.656 37.3733 205.656 37.32V36.568C205.688 35.992 205.869 35.4853 206.2 35.048C206.531 34.6 206.968 34.2587 207.512 34.024C208.067 33.7893 208.685 33.672 209.368 33.672C210.125 33.672 210.781 33.816 211.336 34.104C211.901 34.3813 212.333 34.76 212.632 35.24C212.941 35.72 213.096 36.2533 213.096 36.84C213.096 37.288 212.984 37.7467 212.76 38.216C212.536 38.6853 212.2 39.192 211.752 39.736C211.421 40.152 211.064 40.5627 210.68 40.968C210.296 41.3733 209.725 41.96 208.968 42.728L208.728 42.968ZM224.513 39.576C224.769 40.056 224.897 40.6693 224.897 41.416C224.897 42.0347 224.796 42.5893 224.593 43.08C224.316 43.7093 223.884 44.2053 223.297 44.568C222.71 44.9307 222.017 45.112 221.217 45.112C220.396 45.112 219.686 44.9253 219.089 44.552C218.492 44.168 218.06 43.64 217.793 42.968C217.601 42.4987 217.505 41.976 217.505 41.4V36.584C217.505 36.008 217.654 35.5013 217.953 35.064C218.262 34.616 218.689 34.2747 219.233 34.04C219.777 33.7947 220.401 33.672 221.105 33.672C221.798 33.672 222.412 33.7947 222.945 34.04C223.478 34.2747 223.889 34.6107 224.177 35.048C224.476 35.4747 224.625 35.9707 224.625 36.536V36.984C224.625 37.0373 224.604 37.0853 224.561 37.128C224.529 37.16 224.486 37.176 224.433 37.176H222.561C222.508 37.176 222.46 37.16 222.417 37.128C222.385 37.0853 222.369 37.0373 222.369 36.984V36.84C222.369 36.488 222.252 36.1947 222.017 35.96C221.782 35.7253 221.478 35.608 221.105 35.608C220.71 35.608 220.385 35.7307 220.129 35.976C219.884 36.2107 219.761 36.5147 219.761 36.888V38.392C219.761 38.424 219.772 38.4453 219.793 38.456C219.814 38.456 219.836 38.4453 219.857 38.424C220.294 38.0507 220.876 37.864 221.601 37.864C222.241 37.864 222.812 38.0133 223.313 38.312C223.825 38.6 224.225 39.0213 224.513 39.576ZM222.401 42.456C222.561 42.1787 222.641 41.8427 222.641 41.448C222.641 41.0213 222.556 40.6693 222.385 40.392C222.118 39.9653 221.729 39.752 221.217 39.752C220.641 39.752 220.241 39.9707 220.017 40.408C219.857 40.6853 219.777 41.0427 219.777 41.48C219.777 41.864 219.846 42.1893 219.985 42.456C220.22 42.9253 220.625 43.16 221.201 43.16C221.756 43.16 222.156 42.9253 222.401 42.456Z" fill="white"/>
<path d="M256.728 42.968C256.707 42.9893 256.701 43.0107 256.712 43.032C256.723 43.0533 256.744 43.064 256.776 43.064H261.112C261.165 43.064 261.208 43.0853 261.24 43.128C261.283 43.16 261.304 43.2027 261.304 43.256V44.808C261.304 44.8613 261.283 44.9093 261.24 44.952C261.208 44.984 261.165 45 261.112 45H253.912C253.859 45 253.811 44.984 253.768 44.952C253.736 44.9093 253.72 44.8613 253.72 44.808V43.336C253.72 43.24 253.752 43.16 253.816 43.096C254.339 42.584 254.872 42.0293 255.416 41.432C255.96 40.824 256.301 40.4453 256.44 40.296C256.739 39.944 257.043 39.608 257.352 39.288C258.323 38.2107 258.808 37.4107 258.808 36.888C258.808 36.5147 258.675 36.2107 258.408 35.976C258.141 35.7307 257.795 35.608 257.368 35.608C256.941 35.608 256.595 35.7307 256.328 35.976C256.061 36.2107 255.928 36.5253 255.928 36.92V37.32C255.928 37.3733 255.907 37.4213 255.864 37.464C255.832 37.496 255.789 37.512 255.736 37.512H253.848C253.795 37.512 253.747 37.496 253.704 37.464C253.672 37.4213 253.656 37.3733 253.656 37.32V36.568C253.688 35.992 253.869 35.4853 254.2 35.048C254.531 34.6 254.968 34.2587 255.512 34.024C256.067 33.7893 256.685 33.672 257.368 33.672C258.125 33.672 258.781 33.816 259.336 34.104C259.901 34.3813 260.333 34.76 260.632 35.24C260.941 35.72 261.096 36.2533 261.096 36.84C261.096 37.288 260.984 37.7467 260.76 38.216C260.536 38.6853 260.2 39.192 259.752 39.736C259.421 40.152 259.064 40.5627 258.68 40.968C258.296 41.3733 257.725 41.96 256.968 42.728L256.728 42.968ZM266.817 45C266.657 45 266.604 44.9253 266.657 44.776L270.129 35.832C270.15 35.768 270.129 35.736 270.065 35.736H267.073C267.02 35.736 266.993 35.7627 266.993 35.816V36.552C266.993 36.6053 266.972 36.6533 266.929 36.696C266.897 36.728 266.854 36.744 266.801 36.744H265.345C265.292 36.744 265.244 36.728 265.201 36.696C265.169 36.6533 265.153 36.6053 265.153 36.552L265.169 33.992C265.169 33.9387 265.185 33.896 265.217 33.864C265.26 33.8213 265.308 33.8 265.361 33.8H272.353C272.406 33.8 272.449 33.8213 272.481 33.864C272.524 33.896 272.545 33.9387 272.545 33.992V35.608C272.545 35.672 272.529 35.752 272.497 35.848L269.041 44.856C269.009 44.952 268.934 45 268.817 45H266.817Z" fill="white"/>
<path d="M304.728 42.968C304.707 42.9893 304.701 43.0107 304.712 43.032C304.723 43.0533 304.744 43.064 304.776 43.064H309.112C309.165 43.064 309.208 43.0853 309.24 43.128C309.283 43.16 309.304 43.2027 309.304 43.256V44.808C309.304 44.8613 309.283 44.9093 309.24 44.952C309.208 44.984 309.165 45 309.112 45H301.912C301.859 45 301.811 44.984 301.768 44.952C301.736 44.9093 301.72 44.8613 301.72 44.808V43.336C301.72 43.24 301.752 43.16 301.816 43.096C302.339 42.584 302.872 42.0293 303.416 41.432C303.96 40.824 304.301 40.4453 304.44 40.296C304.739 39.944 305.043 39.608 305.352 39.288C306.323 38.2107 306.808 37.4107 306.808 36.888C306.808 36.5147 306.675 36.2107 306.408 35.976C306.141 35.7307 305.795 35.608 305.368 35.608C304.941 35.608 304.595 35.7307 304.328 35.976C304.061 36.2107 303.928 36.5253 303.928 36.92V37.32C303.928 37.3733 303.907 37.4213 303.864 37.464C303.832 37.496 303.789 37.512 303.736 37.512H301.848C301.795 37.512 301.747 37.496 301.704 37.464C301.672 37.4213 301.656 37.3733 301.656 37.32V36.568C301.688 35.992 301.869 35.4853 302.2 35.048C302.531 34.6 302.968 34.2587 303.512 34.024C304.067 33.7893 304.685 33.672 305.368 33.672C306.125 33.672 306.781 33.816 307.336 34.104C307.901 34.3813 308.333 34.76 308.632 35.24C308.941 35.72 309.096 36.2533 309.096 36.84C309.096 37.288 308.984 37.7467 308.76 38.216C308.536 38.6853 308.2 39.192 307.752 39.736C307.421 40.152 307.064 40.5627 306.68 40.968C306.296 41.3733 305.725 41.96 304.968 42.728L304.728 42.968ZM320.513 40.072C320.758 40.5627 320.881 41.112 320.881 41.72C320.881 42.36 320.748 42.9093 320.481 43.368C320.204 43.912 319.777 44.344 319.201 44.664C318.636 44.9733 317.958 45.128 317.169 45.128C316.422 45.128 315.75 44.9787 315.153 44.68C314.556 44.3707 314.108 43.928 313.809 43.352C313.553 42.8507 313.425 42.3013 313.425 41.704C313.425 41.1173 313.548 40.568 313.793 40.056C313.974 39.6827 314.241 39.3787 314.593 39.144C314.636 39.112 314.636 39.0747 314.593 39.032C314.337 38.84 314.118 38.584 313.937 38.264C313.692 37.8373 313.569 37.3573 313.569 36.824C313.569 36.0667 313.782 35.4267 314.209 34.904C314.518 34.488 314.929 34.168 315.441 33.944C315.964 33.7093 316.54 33.592 317.169 33.592C317.82 33.592 318.396 33.7093 318.897 33.944C319.398 34.1787 319.804 34.4987 320.113 34.904C320.54 35.4587 320.753 36.0987 320.753 36.824C320.753 37.3787 320.614 37.8747 320.337 38.312C320.156 38.5893 319.937 38.824 319.681 39.016C319.638 39.0587 319.638 39.096 319.681 39.128C320.033 39.352 320.31 39.6667 320.513 40.072ZM315.969 36.232C315.862 36.4453 315.809 36.6693 315.809 36.904C315.809 37.2133 315.878 37.4907 316.017 37.736C316.262 38.12 316.641 38.312 317.153 38.312C317.665 38.312 318.054 38.12 318.321 37.736C318.46 37.5013 318.529 37.2187 318.529 36.888C318.529 36.6533 318.476 36.4293 318.369 36.216C318.262 36.0027 318.102 35.8373 317.889 35.72C317.676 35.592 317.425 35.528 317.137 35.528C316.881 35.528 316.646 35.592 316.433 35.72C316.23 35.8373 316.076 36.008 315.969 36.232ZM318.305 42.632C318.508 42.344 318.609 41.9707 318.609 41.512C318.609 41.1173 318.534 40.7867 318.385 40.52C318.15 40.072 317.74 39.848 317.153 39.848C316.598 39.848 316.204 40.0667 315.969 40.504C315.809 40.7707 315.729 41.1173 315.729 41.544C315.729 41.96 315.82 42.3067 316.001 42.584C316.246 42.9893 316.636 43.192 317.169 43.192C317.681 43.192 318.06 43.0053 318.305 42.632Z" fill="white"/>
<path d="M62.52 16L62.504 9.28L59.208 14.816H58.04L54.76 9.424V16H52.328V4.8H54.472L58.664 11.76L62.792 4.8H64.92L64.952 16H62.52Z" fill="white" fill-opacity="0.8"/>
<path d="M107.648 6.912H104.064V4.8H113.824V6.912H110.24V16H107.648V6.912Z" fill="white" fill-opacity="0.8"/>
<path d="M211.648 6.912H208.064V4.8H217.824V6.912H214.24V16H211.648V6.912Z" fill="white" fill-opacity="0.8"/>
<path d="M259.92 6.88V9.84H265.104V11.92H259.92V16H257.328V4.8H265.792V6.88H259.92Z" fill="white" fill-opacity="0.8"/>
<path d="M309.008 16.192C308.123 16.192 307.264 16.0747 306.432 15.84C305.611 15.5947 304.949 15.28 304.448 14.896L305.328 12.944C305.808 13.296 306.379 13.5787 307.04 13.792C307.701 14.0053 308.363 14.112 309.024 14.112C309.76 14.112 310.304 14.0053 310.656 13.792C311.008 13.568 311.184 13.2747 311.184 12.912C311.184 12.6453 311.077 12.4267 310.864 12.256C310.661 12.0747 310.395 11.9307 310.064 11.824C309.744 11.7173 309.307 11.6 308.752 11.472C307.899 11.2693 307.2 11.0667 306.656 10.864C306.112 10.6613 305.643 10.336 305.248 9.888C304.864 9.44 304.672 8.84267 304.672 8.096C304.672 7.44533 304.848 6.85867 305.2 6.336C305.552 5.80267 306.08 5.38133 306.784 5.072C307.499 4.76267 308.368 4.608 309.392 4.608C310.107 4.608 310.805 4.69333 311.488 4.864C312.171 5.03467 312.768 5.28 313.28 5.6L312.48 7.568C311.445 6.98133 310.411 6.688 309.376 6.688C308.651 6.688 308.112 6.80533 307.76 7.04C307.419 7.27467 307.248 7.584 307.248 7.968C307.248 8.352 307.445 8.64 307.84 8.832C308.245 9.01333 308.859 9.19467 309.68 9.376C310.533 9.57867 311.232 9.78133 311.776 9.984C312.32 10.1867 312.784 10.5067 313.168 10.944C313.563 11.3813 313.76 11.9733 313.76 12.72C313.76 13.36 313.579 13.9467 313.216 14.48C312.864 15.0027 312.331 15.4187 311.616 15.728C310.901 16.0373 310.032 16.192 309.008 16.192Z" fill="white" fill-opacity="0.8"/>
<path d="M170.256 4.8L166.592 16H163.808L161.344 8.416L158.8 16H156.032L152.352 4.8H155.04L157.568 12.672L160.208 4.8H162.608L165.168 12.736L167.776 4.8H170.256Z" fill="white" fill-opacity="0.8"/>
</svg>
