<svg width="312" height="48" viewBox="0 0 312 48" fill="none" xmlns="http://www.w3.org/2000/svg">
<path d="M5.008 16.192C4.12267 16.192 3.264 16.0747 2.432 15.84C1.61067 15.5947 0.949333 15.28 0.448 14.896L1.328 12.944C1.808 13.296 2.37867 13.5787 3.04 13.792C3.70133 14.0053 4.36267 14.112 5.024 14.112C5.76 14.112 6.304 14.0053 6.656 13.792C7.008 13.568 7.184 13.2747 7.184 12.912C7.184 12.6453 7.07733 12.4267 6.864 12.256C6.66133 12.0747 6.39467 11.9307 6.064 11.824C5.744 11.7173 5.30667 11.6 4.752 11.472C3.89867 11.2693 3.2 11.0667 2.656 10.864C2.112 10.6613 1.64267 10.336 1.248 9.888C0.864 9.44 0.672 8.84267 0.672 8.096C0.672 7.44533 0.848 6.85867 1.2 6.336C1.552 5.80267 2.08 5.38133 2.784 5.072C3.49867 4.76267 4.368 4.608 5.392 4.608C6.10667 4.608 6.80533 4.69333 7.488 4.864C8.17067 5.03467 8.768 5.28 9.28 5.6L8.48 7.568C7.44533 6.98133 6.41067 6.688 5.376 6.688C4.65067 6.688 4.112 6.80533 3.76 7.04C3.41867 7.27467 3.248 7.584 3.248 7.968C3.248 8.352 3.44533 8.64 3.84 8.832C4.24533 9.01333 4.85867 9.19467 5.68 9.376C6.53333 9.57867 7.232 9.78133 7.776 9.984C8.32 10.1867 8.784 10.5067 9.168 10.944C9.56267 11.3813 9.76 11.9733 9.76 12.72C9.76 13.36 9.57867 13.9467 9.216 14.48C8.864 15.0027 8.33067 15.4187 7.616 15.728C6.90133 16.0373 6.032 16.192 5.008 16.192Z" fill="white" fill-opacity="0.8"/>
<path d="M4.4 33.848C4.45333 33.816 4.53333 33.8 4.64 33.8H6.576C6.62933 33.8 6.672 33.8213 6.704 33.864C6.74667 33.896 6.768 33.9387 6.768 33.992V44.808C6.768 44.8613 6.74667 44.9093 6.704 44.952C6.672 44.984 6.62933 45 6.576 45H4.704C4.65067 45 4.60267 44.984 4.56 44.952C4.528 44.9093 4.512 44.8613 4.512 44.808V36.04C4.512 36.0187 4.50133 35.9973 4.48 35.976C4.45867 35.9547 4.43733 35.9493 4.416 35.96L2.832 36.392L2.768 36.408C2.672 36.408 2.624 36.3493 2.624 36.232L2.576 34.856C2.576 34.7493 2.624 34.6747 2.72 34.632L4.4 33.848Z" fill="#FC5757"/>
<path d="M54.728 42.968C54.7067 42.9893 54.7013 43.0107 54.712 43.032C54.7227 43.0533 54.744 43.064 54.776 43.064H59.112C59.1653 43.064 59.208 43.0853 59.24 43.128C59.2827 43.16 59.304 43.2027 59.304 43.256V44.808C59.304 44.8613 59.2827 44.9093 59.24 44.952C59.208 44.984 59.1653 45 59.112 45H51.912C51.8587 45 51.8107 44.984 51.768 44.952C51.736 44.9093 51.72 44.8613 51.72 44.808V43.336C51.72 43.24 51.752 43.16 51.816 43.096C52.3387 42.584 52.872 42.0293 53.416 41.432C53.96 40.824 54.3013 40.4453 54.44 40.296C54.7387 39.944 55.0427 39.608 55.352 39.288C56.3227 38.2107 56.808 37.4107 56.808 36.888C56.808 36.5147 56.6747 36.2107 56.408 35.976C56.1413 35.7307 55.7947 35.608 55.368 35.608C54.9413 35.608 54.5947 35.7307 54.328 35.976C54.0613 36.2107 53.928 36.5253 53.928 36.92V37.32C53.928 37.3733 53.9067 37.4213 53.864 37.464C53.832 37.496 53.7893 37.512 53.736 37.512H51.848C51.7947 37.512 51.7467 37.496 51.704 37.464C51.672 37.4213 51.656 37.3733 51.656 37.32V36.568C51.688 35.992 51.8693 35.4853 52.2 35.048C52.5307 34.6 52.968 34.2587 53.512 34.024C54.0667 33.7893 54.6853 33.672 55.368 33.672C56.1253 33.672 56.7813 33.816 57.336 34.104C57.9013 34.3813 58.3333 34.76 58.632 35.24C58.9413 35.72 59.096 36.2533 59.096 36.84C59.096 37.288 58.984 37.7467 58.76 38.216C58.536 38.6853 58.2 39.192 57.752 39.736C57.4213 40.152 57.064 40.5627 56.68 40.968C56.296 41.3733 55.7253 41.96 54.968 42.728L54.728 42.968Z" fill="white"/>
<path d="M109.632 39.656C109.845 40.1467 109.952 40.712 109.952 41.352C109.952 41.928 109.856 42.4613 109.664 42.952C109.408 43.6347 108.976 44.168 108.368 44.552C107.771 44.936 107.061 45.128 106.24 45.128C105.429 45.128 104.715 44.9253 104.096 44.52C103.488 44.1147 103.051 43.5653 102.784 42.872C102.635 42.456 102.549 42.008 102.528 41.528C102.528 41.4 102.592 41.336 102.72 41.336H104.608C104.736 41.336 104.8 41.4 104.8 41.528C104.843 41.88 104.901 42.1413 104.976 42.312C105.072 42.5893 105.227 42.808 105.44 42.968C105.664 43.1173 105.925 43.192 106.224 43.192C106.821 43.192 107.232 42.9307 107.456 42.408C107.605 42.088 107.68 41.7147 107.68 41.288C107.68 40.7867 107.6 40.376 107.44 40.056C107.195 39.5547 106.784 39.304 106.208 39.304C106.091 39.304 105.968 39.3413 105.84 39.416C105.712 39.48 105.557 39.576 105.376 39.704C105.333 39.736 105.291 39.752 105.248 39.752C105.184 39.752 105.136 39.72 105.104 39.656L104.16 38.328C104.139 38.296 104.128 38.2587 104.128 38.216C104.128 38.152 104.149 38.0987 104.192 38.056L106.736 35.832C106.757 35.8107 106.763 35.7893 106.752 35.768C106.752 35.7467 106.736 35.736 106.704 35.736H102.944C102.891 35.736 102.843 35.72 102.8 35.688C102.768 35.6453 102.752 35.5973 102.752 35.544V33.992C102.752 33.9387 102.768 33.896 102.8 33.864C102.843 33.8213 102.891 33.8 102.944 33.8H109.616C109.669 33.8 109.712 33.8213 109.744 33.864C109.787 33.896 109.808 33.9387 109.808 33.992V35.752C109.808 35.8373 109.771 35.9173 109.696 35.992L107.6 37.912C107.579 37.9333 107.568 37.9547 107.568 37.976C107.579 37.9973 107.605 38.008 107.648 38.008C108.576 38.1893 109.237 38.7387 109.632 39.656Z" fill="white"/>
<path d="M161.736 40.12C161.789 40.12 161.832 40.1413 161.864 40.184C161.907 40.216 161.928 40.2587 161.928 40.312V41.928C161.928 41.9813 161.907 42.0293 161.864 42.072C161.832 42.104 161.789 42.12 161.736 42.12H161.048C160.995 42.12 160.968 42.1467 160.968 42.2V44.808C160.968 44.8613 160.947 44.9093 160.904 44.952C160.872 44.984 160.829 45 160.776 45H158.904C158.851 45 158.803 44.984 158.76 44.952C158.728 44.9093 158.712 44.8613 158.712 44.808V42.2C158.712 42.1467 158.685 42.12 158.632 42.12H153.72C153.667 42.12 153.619 42.104 153.576 42.072C153.544 42.0293 153.528 41.9813 153.528 41.928V40.648C153.528 40.584 153.544 40.504 153.576 40.408L156.456 33.944C156.499 33.848 156.573 33.8 156.68 33.8H158.68C158.755 33.8 158.803 33.8213 158.824 33.864C158.856 33.896 158.856 33.9493 158.824 34.024L156.152 40.024C156.141 40.0453 156.141 40.0667 156.152 40.088C156.163 40.1093 156.179 40.12 156.2 40.12H158.632C158.685 40.12 158.712 40.0933 158.712 40.04V38.056C158.712 38.0027 158.728 37.96 158.76 37.928C158.803 37.8853 158.851 37.864 158.904 37.864H160.776C160.829 37.864 160.872 37.8853 160.904 37.928C160.947 37.96 160.968 38.0027 160.968 38.056V40.04C160.968 40.0933 160.995 40.12 161.048 40.12H161.736Z" fill="white"/>
<path d="M213.856 39.896C214.016 40.4187 214.096 40.9253 214.096 41.416C214.096 41.96 214.011 42.4507 213.84 42.888C213.595 43.5707 213.163 44.1147 212.544 44.52C211.925 44.9147 211.2 45.112 210.368 45.112C209.557 45.112 208.843 44.92 208.224 44.536C207.616 44.1413 207.184 43.608 206.928 42.936C206.821 42.6587 206.741 42.3653 206.688 42.056V42.024C206.688 41.9067 206.752 41.848 206.88 41.848H208.816C208.923 41.848 208.992 41.9067 209.024 42.024C209.035 42.088 209.051 42.1413 209.072 42.184C209.093 42.2267 209.109 42.264 209.12 42.296C209.227 42.5733 209.387 42.7867 209.6 42.936C209.813 43.0853 210.064 43.16 210.352 43.16C210.651 43.16 210.912 43.08 211.136 42.92C211.36 42.76 211.525 42.536 211.632 42.248C211.739 42.0347 211.792 41.7573 211.792 41.416C211.792 41.1067 211.744 40.8293 211.648 40.584C211.573 40.3067 211.424 40.0933 211.2 39.944C210.976 39.7947 210.715 39.72 210.416 39.72C210.117 39.72 209.84 39.7893 209.584 39.928C209.328 40.0667 209.157 40.248 209.072 40.472C209.04 40.5787 208.971 40.632 208.864 40.632H206.896C206.843 40.632 206.795 40.616 206.752 40.584C206.72 40.5413 206.704 40.4933 206.704 40.44V33.992C206.704 33.9387 206.72 33.896 206.752 33.864C206.795 33.8213 206.843 33.8 206.896 33.8H213.504C213.557 33.8 213.6 33.8213 213.632 33.864C213.675 33.896 213.696 33.9387 213.696 33.992V35.544C213.696 35.5973 213.675 35.6453 213.632 35.688C213.6 35.72 213.557 35.736 213.504 35.736H209.04C208.987 35.736 208.96 35.7627 208.96 35.816L208.944 38.184C208.944 38.2587 208.976 38.2747 209.04 38.232C209.52 37.9227 210.075 37.768 210.704 37.768C211.451 37.768 212.101 37.96 212.656 38.344C213.221 38.7173 213.621 39.2347 213.856 39.896Z" fill="white"/>
<path d="M261.68 39.576C261.936 40.056 262.064 40.6693 262.064 41.416C262.064 42.0347 261.963 42.5893 261.76 43.08C261.483 43.7093 261.051 44.2053 260.464 44.568C259.877 44.9307 259.184 45.112 258.384 45.112C257.563 45.112 256.853 44.9253 256.256 44.552C255.659 44.168 255.227 43.64 254.96 42.968C254.768 42.4987 254.672 41.976 254.672 41.4V36.584C254.672 36.008 254.821 35.5013 255.12 35.064C255.429 34.616 255.856 34.2747 256.4 34.04C256.944 33.7947 257.568 33.672 258.272 33.672C258.965 33.672 259.579 33.7947 260.112 34.04C260.645 34.2747 261.056 34.6107 261.344 35.048C261.643 35.4747 261.792 35.9707 261.792 36.536V36.984C261.792 37.0373 261.771 37.0853 261.728 37.128C261.696 37.16 261.653 37.176 261.6 37.176H259.728C259.675 37.176 259.627 37.16 259.584 37.128C259.552 37.0853 259.536 37.0373 259.536 36.984V36.84C259.536 36.488 259.419 36.1947 259.184 35.96C258.949 35.7253 258.645 35.608 258.272 35.608C257.877 35.608 257.552 35.7307 257.296 35.976C257.051 36.2107 256.928 36.5147 256.928 36.888V38.392C256.928 38.424 256.939 38.4453 256.96 38.456C256.981 38.456 257.003 38.4453 257.024 38.424C257.461 38.0507 258.043 37.864 258.768 37.864C259.408 37.864 259.979 38.0133 260.48 38.312C260.992 38.6 261.392 39.0213 261.68 39.576ZM259.568 42.456C259.728 42.1787 259.808 41.8427 259.808 41.448C259.808 41.0213 259.723 40.6693 259.552 40.392C259.285 39.9653 258.896 39.752 258.384 39.752C257.808 39.752 257.408 39.9707 257.184 40.408C257.024 40.6853 256.944 41.0427 256.944 41.48C256.944 41.864 257.013 42.1893 257.152 42.456C257.387 42.9253 257.792 43.16 258.368 43.16C258.923 43.16 259.323 42.9253 259.568 42.456Z" fill="white"/>
<path d="M302.984 45C302.824 45 302.771 44.9253 302.824 44.776L306.296 35.832C306.317 35.768 306.296 35.736 306.232 35.736H303.24C303.187 35.736 303.16 35.7627 303.16 35.816V36.552C303.16 36.6053 303.139 36.6533 303.096 36.696C303.064 36.728 303.021 36.744 302.968 36.744H301.512C301.459 36.744 301.411 36.728 301.368 36.696C301.336 36.6533 301.32 36.6053 301.32 36.552L301.336 33.992C301.336 33.9387 301.352 33.896 301.384 33.864C301.427 33.8213 301.475 33.8 301.528 33.8H308.52C308.573 33.8 308.616 33.8213 308.648 33.864C308.691 33.896 308.712 33.9387 308.712 33.992V35.608C308.712 35.672 308.696 35.752 308.664 35.848L305.208 44.856C305.176 44.952 305.101 45 304.984 45H302.984Z" fill="white"/>
<path d="M59.52 16L59.504 9.28L56.208 14.816H55.04L51.76 9.424V16H49.328V4.8H51.472L55.664 11.76L59.792 4.8H61.92L61.952 16H59.52Z" fill="white" fill-opacity="0.8"/>
<path d="M104.648 6.912H101.064V4.8H110.824V6.912H107.24V16H104.648V6.912Z" fill="white" fill-opacity="0.8"/>
<path d="M208.648 6.912H205.064V4.8H214.824V6.912H211.24V16H208.648V6.912Z" fill="white" fill-opacity="0.8"/>
<path d="M256.92 6.88V9.84H262.104V11.92H256.92V16H254.328V4.8H262.792V6.88H256.92Z" fill="white" fill-opacity="0.8"/>
<path d="M306.008 16.192C305.123 16.192 304.264 16.0747 303.432 15.84C302.611 15.5947 301.949 15.28 301.448 14.896L302.328 12.944C302.808 13.296 303.379 13.5787 304.04 13.792C304.701 14.0053 305.363 14.112 306.024 14.112C306.76 14.112 307.304 14.0053 307.656 13.792C308.008 13.568 308.184 13.2747 308.184 12.912C308.184 12.6453 308.077 12.4267 307.864 12.256C307.661 12.0747 307.395 11.9307 307.064 11.824C306.744 11.7173 306.307 11.6 305.752 11.472C304.899 11.2693 304.2 11.0667 303.656 10.864C303.112 10.6613 302.643 10.336 302.248 9.888C301.864 9.44 301.672 8.84267 301.672 8.096C301.672 7.44533 301.848 6.85867 302.2 6.336C302.552 5.80267 303.08 5.38133 303.784 5.072C304.499 4.76267 305.368 4.608 306.392 4.608C307.107 4.608 307.805 4.69333 308.488 4.864C309.171 5.03467 309.768 5.28 310.28 5.6L309.48 7.568C308.445 6.98133 307.411 6.688 306.376 6.688C305.651 6.688 305.112 6.80533 304.76 7.04C304.419 7.27467 304.248 7.584 304.248 7.968C304.248 8.352 304.445 8.64 304.84 8.832C305.245 9.01333 305.859 9.19467 306.68 9.376C307.533 9.57867 308.232 9.78133 308.776 9.984C309.32 10.1867 309.784 10.5067 310.168 10.944C310.563 11.3813 310.76 11.9733 310.76 12.72C310.76 13.36 310.579 13.9467 310.216 14.48C309.864 15.0027 309.331 15.4187 308.616 15.728C307.901 16.0373 307.032 16.192 306.008 16.192Z" fill="white" fill-opacity="0.8"/>
<path d="M167.256 4.8L163.592 16H160.808L158.344 8.416L155.8 16H153.032L149.352 4.8H152.04L154.568 12.672L157.208 4.8H159.608L162.168 12.736L164.776 4.8H167.256Z" fill="white" fill-opacity="0.8"/>
</svg>
