<svg width="20" height="23" viewBox="0 0 20 23" fill="none" xmlns="http://www.w3.org/2000/svg">
<path d="M10 7.4097C9.26726 7.4097 8.55097 7.62698 7.94171 8.03408C7.33245 8.44117 6.85759 9.01979 6.57718 9.69676C6.29677 10.3737 6.2234 11.1187 6.36636 11.8373C6.50931 12.556 6.86216 13.2161 7.38029 13.7343C7.89842 14.2524 8.55856 14.6052 9.27723 14.7482C9.9959 14.8912 10.7408 14.8178 11.4178 14.5374C12.0948 14.257 12.6734 13.7821 13.0805 13.1728C13.4876 12.5636 13.7049 11.8473 13.7049 11.1145C13.7049 10.132 13.3145 9.18962 12.6197 8.49482C11.9249 7.80003 10.9826 7.4097 10 7.4097V7.4097ZM10 12.967C9.63364 12.967 9.27549 12.8583 8.97086 12.6548C8.66623 12.4512 8.4288 12.1619 8.2886 11.8234C8.14839 11.4849 8.11171 11.1125 8.18318 10.7532C8.25466 10.3938 8.43109 10.0637 8.69015 9.80468C8.94922 9.54562 9.27929 9.36919 9.63862 9.29771C9.99796 9.22624 10.3704 9.26292 10.7089 9.40313C11.0474 9.54333 11.3367 9.78076 11.5402 10.0854C11.7438 10.39 11.8524 10.7482 11.8524 11.1145C11.8524 11.6058 11.6573 12.077 11.3099 12.4244C10.9625 12.7718 10.4913 12.967 10 12.967Z" fill="black"/>
<path d="M18.6082 12.8743L18.197 12.6372C18.3821 11.6299 18.3821 10.5973 18.197 9.58999L18.6082 9.35288C18.9245 9.17043 19.2017 8.92748 19.424 8.6379C19.6464 8.34832 19.8095 8.01778 19.9041 7.66516C19.9987 7.31253 20.0229 6.94472 19.9754 6.58273C19.9279 6.22074 19.8095 5.87166 19.627 5.55541C19.4446 5.23917 19.2016 4.96196 18.9121 4.73961C18.6225 4.51726 18.2919 4.35412 17.9393 4.25952C17.5867 4.16491 17.2189 4.14068 16.8569 4.18822C16.4949 4.23576 16.1458 4.35413 15.8296 4.53658L15.4174 4.77462C14.639 4.10952 13.7444 3.59393 12.7786 3.25378V2.77863C12.7786 2.04169 12.4859 1.33494 11.9648 0.813843C11.4437 0.292748 10.7369 0 10 0C9.26306 0 8.5563 0.292748 8.03521 0.813843C7.51411 1.33494 7.22137 2.04169 7.22137 2.77863V3.25378C6.25569 3.59515 5.36139 4.11201 4.58352 4.77832L4.1695 4.53843C3.53082 4.16997 2.77192 4.0703 2.05976 4.26137C1.3476 4.45244 0.740505 4.91859 0.372035 5.55727C0.00356507 6.19595 -0.0960981 6.95484 0.09497 7.66701C0.286038 8.37917 0.752186 8.98626 1.39087 9.35473L1.8021 9.59184C1.61696 10.5992 1.61696 11.6318 1.8021 12.6391L1.39087 12.8762C0.752186 13.2447 0.286038 13.8518 0.09497 14.5639C-0.0960981 15.2761 0.00356507 16.035 0.372035 16.6737C0.740505 17.3123 1.3476 17.7785 2.05976 17.9696C2.77192 18.1606 3.53082 18.061 4.1695 17.6925L4.58166 17.4544C5.36039 18.1196 6.25531 18.6352 7.22137 18.9753V19.4504C7.22137 20.1874 7.51411 20.8941 8.03521 21.4152C8.5563 21.9363 9.26306 22.2291 10 22.2291C10.7369 22.2291 11.4437 21.9363 11.9648 21.4152C12.4859 20.8941 12.7786 20.1874 12.7786 19.4504V18.9753C13.7443 18.6339 14.6386 18.1171 15.4165 17.4507L15.8305 17.6897C16.4692 18.0582 17.2281 18.1578 17.9402 17.9668C18.6524 17.7757 19.2595 17.3096 19.628 16.6709C19.9964 16.0322 20.0961 15.2733 19.905 14.5611C19.714 13.849 19.2478 13.2419 18.6091 12.8734L18.6082 12.8743ZM16.2482 9.37696C16.5619 10.5135 16.5619 11.7137 16.2482 12.8503C16.1935 13.0481 16.2059 13.2585 16.2837 13.4484C16.3615 13.6384 16.5002 13.7971 16.678 13.8997L17.682 14.4795C17.8948 14.6023 18.0502 14.8046 18.1139 15.042C18.1775 15.2793 18.1443 15.5323 18.0215 15.7451C17.8986 15.958 17.6963 16.1133 17.4589 16.177C17.2216 16.2406 16.9686 16.2074 16.7558 16.0846L15.7499 15.5029C15.572 15.3999 15.3648 15.359 15.1611 15.3866C14.9573 15.4143 14.7686 15.509 14.6246 15.6557C13.8002 16.4974 12.7616 17.0978 11.6209 17.3924C11.4218 17.4436 11.2453 17.5596 11.1194 17.722C10.9935 17.8845 10.9252 18.0843 10.9253 18.2899V19.4504C10.9253 19.6961 10.8277 19.9317 10.654 20.1054C10.4803 20.2791 10.2447 20.3766 9.99907 20.3766C9.75343 20.3766 9.51784 20.2791 9.34414 20.1054C9.17045 19.9317 9.07286 19.6961 9.07286 19.4504V18.2908C9.07296 18.0852 9.00467 17.8855 8.87873 17.723C8.7528 17.5605 8.57638 17.4445 8.37728 17.3933C7.23651 17.0976 6.19821 16.4958 5.3745 15.653C5.2305 15.5062 5.04175 15.4115 4.838 15.3838C4.63425 15.3562 4.42709 15.3971 4.24915 15.5001L3.24514 16.0809C3.13977 16.1427 3.02321 16.183 2.90219 16.1995C2.78117 16.2161 2.65807 16.2085 2.53997 16.1773C2.42188 16.1461 2.31113 16.0918 2.2141 16.0176C2.11707 15.9434 2.03567 15.8508 1.9746 15.745C1.91352 15.6392 1.87397 15.5224 1.85823 15.4012C1.84249 15.2801 1.85086 15.1571 1.88286 15.0392C1.91487 14.9213 1.96987 14.8109 2.04471 14.7144C2.11955 14.6178 2.21274 14.5371 2.31893 14.4767L3.32294 13.8969C3.50073 13.7943 3.63941 13.6356 3.71719 13.4456C3.79498 13.2557 3.80747 13.0453 3.75271 12.8475C3.43905 11.711 3.43905 10.5107 3.75271 9.37418C3.80649 9.17679 3.7934 8.96715 3.71549 8.77797C3.63757 8.5888 3.49922 8.43075 3.32202 8.32849L2.318 7.74868C2.10515 7.62586 1.94981 7.42351 1.88615 7.18615C1.82249 6.94879 1.85572 6.69587 1.97855 6.48301C2.10137 6.27016 2.30372 6.11482 2.54108 6.05116C2.77844 5.9875 3.03136 6.02074 3.24422 6.14356L4.25008 6.72522C4.42752 6.8285 4.63426 6.8699 4.83779 6.84291C5.04132 6.81592 5.23011 6.72207 5.3745 6.5761C6.19891 5.73449 7.23751 5.13401 8.3782 4.83945C8.57792 4.78811 8.7548 4.67158 8.8808 4.50833C9.0068 4.34509 9.07472 4.14446 9.07379 3.93825V2.77863C9.07379 2.53299 9.17137 2.2974 9.34507 2.1237C9.51877 1.95001 9.75435 1.85242 10 1.85242C10.2456 1.85242 10.4812 1.95001 10.6549 2.1237C10.8286 2.2974 10.9262 2.53299 10.9262 2.77863V3.93825C10.9261 4.14383 10.9944 4.3436 11.1203 4.50609C11.2463 4.66858 11.4227 4.78456 11.6218 4.83575C12.7629 5.13135 13.8015 5.73314 14.6255 6.5761C14.7695 6.72287 14.9583 6.81756 15.162 6.84523C15.3658 6.87289 15.5729 6.83198 15.7508 6.72892L16.7549 6.14819C16.8602 6.08641 16.9768 6.04609 17.0978 6.02954C17.2188 6.013 17.3419 6.02055 17.46 6.05177C17.5781 6.08299 17.6889 6.13727 17.7859 6.21146C17.8829 6.28566 17.9643 6.37832 18.0254 6.4841C18.0865 6.58988 18.126 6.7067 18.1418 6.82783C18.1575 6.94896 18.1491 7.07201 18.1171 7.18989C18.0851 7.30777 18.0301 7.41816 17.9553 7.5147C17.8805 7.61123 17.7873 7.69201 17.6811 7.75239L16.6771 8.3322C16.5002 8.43473 16.3622 8.5929 16.2847 8.78205C16.2071 8.9712 16.1943 9.1807 16.2482 9.37789V9.37696Z" fill="black"/>
</svg>
