<svg width="251" height="79" viewBox="0 0 251 79" fill="none" xmlns="http://www.w3.org/2000/svg">
<line x1="1.5" y1="1.5" x2="1.5" y2="25.5" stroke="black" stroke-width="3" stroke-linecap="round"/>
<path d="M32.5625 16.2422V18H24.7812V16.5L28.4609 12.5547C28.8307 12.1432 29.1224 11.7812 29.3359 11.4688C29.5495 11.151 29.7031 10.8672 29.7969 10.6172C29.8958 10.362 29.9453 10.1198 29.9453 9.89062C29.9453 9.54688 29.888 9.2526 29.7734 9.00781C29.6589 8.75781 29.4896 8.5651 29.2656 8.42969C29.0469 8.29427 28.776 8.22656 28.4531 8.22656C28.1094 8.22656 27.8125 8.3099 27.5625 8.47656C27.3177 8.64323 27.1302 8.875 27 9.17188C26.875 9.46875 26.8125 9.80469 26.8125 10.1797H24.5547C24.5547 9.5026 24.7161 8.88281 25.0391 8.32031C25.362 7.7526 25.8177 7.30208 26.4062 6.96875C26.9948 6.63021 27.6927 6.46094 28.5 6.46094C29.2969 6.46094 29.9688 6.59115 30.5156 6.85156C31.0677 7.10677 31.4844 7.47656 31.7656 7.96094C32.0521 8.4401 32.1953 9.01302 32.1953 9.67969C32.1953 10.0547 32.1354 10.4219 32.0156 10.7812C31.8958 11.1354 31.724 11.4896 31.5 11.8438C31.2812 12.1927 31.0156 12.5469 30.7031 12.9062C30.3906 13.2656 30.0443 13.638 29.6641 14.0234L27.6875 16.2422H32.5625ZM37.0734 11.3359H38.2766C38.662 11.3359 38.9797 11.2708 39.2297 11.1406C39.4797 11.0052 39.6646 10.8177 39.7844 10.5781C39.9094 10.3333 39.9719 10.0495 39.9719 9.72656C39.9719 9.4349 39.9146 9.17708 39.8 8.95312C39.6906 8.72396 39.5214 8.54688 39.2922 8.42188C39.063 8.29167 38.774 8.22656 38.425 8.22656C38.149 8.22656 37.8938 8.28125 37.6594 8.39062C37.425 8.5 37.2375 8.65365 37.0969 8.85156C36.9563 9.04948 36.8859 9.28906 36.8859 9.57031H34.6281C34.6281 8.94531 34.7948 8.40104 35.1281 7.9375C35.4667 7.47396 35.9198 7.11198 36.4875 6.85156C37.0552 6.59115 37.6802 6.46094 38.3625 6.46094C39.1333 6.46094 39.8078 6.58594 40.3859 6.83594C40.9641 7.08073 41.4146 7.44271 41.7375 7.92188C42.0604 8.40104 42.2219 8.99479 42.2219 9.70312C42.2219 10.0625 42.1385 10.4115 41.9719 10.75C41.8052 11.0833 41.5656 11.3854 41.2531 11.6562C40.9458 11.9219 40.5708 12.1354 40.1281 12.2969C39.6854 12.4531 39.188 12.5312 38.6359 12.5312H37.0734V11.3359ZM37.0734 13.0469V11.8828H38.6359C39.2557 11.8828 39.8 11.9531 40.2688 12.0938C40.7375 12.2344 41.1307 12.4375 41.4484 12.7031C41.7661 12.9635 42.0057 13.2734 42.1672 13.6328C42.3286 13.987 42.4094 14.3802 42.4094 14.8125C42.4094 15.3438 42.3078 15.8177 42.1047 16.2344C41.9016 16.6458 41.6151 16.9948 41.2453 17.2812C40.8807 17.5677 40.4536 17.7865 39.9641 17.9375C39.4745 18.0833 38.9406 18.1562 38.3625 18.1562C37.8833 18.1562 37.412 18.0911 36.9484 17.9609C36.4901 17.8255 36.0734 17.625 35.6984 17.3594C35.3286 17.0885 35.0318 16.75 34.8078 16.3438C34.5891 15.9323 34.4797 15.4453 34.4797 14.8828H36.7375C36.7375 15.1745 36.8104 15.4349 36.9563 15.6641C37.1021 15.8932 37.3026 16.0729 37.5578 16.2031C37.8182 16.3333 38.1073 16.3984 38.425 16.3984C38.7844 16.3984 39.0917 16.3333 39.3469 16.2031C39.6073 16.0677 39.8052 15.8802 39.9406 15.6406C40.0813 15.3958 40.1516 15.112 40.1516 14.7891C40.1516 14.3724 40.076 14.0391 39.925 13.7891C39.774 13.5339 39.5578 13.3464 39.2766 13.2266C38.9953 13.1068 38.662 13.0469 38.2766 13.0469H37.0734ZM49.7203 16.9141C49.7203 16.5807 49.8349 16.3021 50.0641 16.0781C50.2984 15.8542 50.6083 15.7422 50.9937 15.7422C51.3792 15.7422 51.6865 15.8542 51.9156 16.0781C52.15 16.3021 52.2672 16.5807 52.2672 16.9141C52.2672 17.2474 52.15 17.526 51.9156 17.75C51.6865 17.974 51.3792 18.0859 50.9937 18.0859C50.6083 18.0859 50.2984 17.974 50.0641 17.75C49.8349 17.526 49.7203 17.2474 49.7203 16.9141ZM49.7203 10.4688C49.7203 10.1354 49.8349 9.85677 50.0641 9.63281C50.2984 9.40885 50.6083 9.29688 50.9937 9.29688C51.3792 9.29688 51.6865 9.40885 51.9156 9.63281C52.15 9.85677 52.2672 10.1354 52.2672 10.4688C52.2672 10.8021 52.15 11.0807 51.9156 11.3047C51.6865 11.5286 51.3792 11.6406 50.9937 11.6406C50.6083 11.6406 50.2984 11.5286 50.0641 11.3047C49.8349 11.0807 49.7203 10.8021 49.7203 10.4688ZM66.5422 12.8203L64.7453 12.3906L65.3937 6.625H71.7844V8.44531H67.2453L66.9641 10.9688C67.1151 10.8802 67.3443 10.7865 67.6516 10.6875C67.9589 10.5833 68.3026 10.5312 68.6828 10.5312C69.2349 10.5312 69.7245 10.6172 70.1516 10.7891C70.5786 10.9609 70.9406 11.2109 71.2375 11.5391C71.5396 11.8672 71.7687 12.2682 71.925 12.7422C72.0812 13.2161 72.1594 13.7526 72.1594 14.3516C72.1594 14.8568 72.0812 15.3385 71.925 15.7969C71.7687 16.25 71.5318 16.6562 71.2141 17.0156C70.8964 17.3698 70.4979 17.6484 70.0187 17.8516C69.5396 18.0547 68.9719 18.1562 68.3156 18.1562C67.826 18.1562 67.3521 18.0833 66.8937 17.9375C66.4406 17.7917 66.0318 17.5755 65.6672 17.2891C65.3078 17.0026 65.0187 16.6562 64.8 16.25C64.5865 15.8385 64.4745 15.3698 64.4641 14.8438H66.6984C66.7297 15.1667 66.813 15.4453 66.9484 15.6797C67.0891 15.9089 67.274 16.0859 67.5031 16.2109C67.7323 16.3359 68.0005 16.3984 68.3078 16.3984C68.5943 16.3984 68.8391 16.3438 69.0422 16.2344C69.2453 16.125 69.4094 15.974 69.5344 15.7812C69.6594 15.5833 69.7505 15.3542 69.8078 15.0938C69.8703 14.8281 69.9016 14.5417 69.9016 14.2344C69.9016 13.9271 69.8651 13.6484 69.7922 13.3984C69.7193 13.1484 69.6073 12.9323 69.4562 12.75C69.3052 12.5677 69.1125 12.4271 68.8781 12.3281C68.649 12.2292 68.3807 12.1797 68.0734 12.1797C67.6568 12.1797 67.3339 12.2448 67.1047 12.375C66.8807 12.5052 66.6932 12.6536 66.5422 12.8203ZM76.0062 16.2891H76.1547C76.7797 16.2891 77.3161 16.2135 77.7641 16.0625C78.2172 15.9062 78.5896 15.6823 78.8812 15.3906C79.1729 15.099 79.3891 14.7422 79.5297 14.3203C79.6703 13.8932 79.7406 13.4089 79.7406 12.8672V10.7109C79.7406 10.2995 79.699 9.9375 79.6156 9.625C79.5375 9.3125 79.4229 9.05469 79.2719 8.85156C79.126 8.64323 78.9542 8.48698 78.7562 8.38281C78.5635 8.27865 78.35 8.22656 78.1156 8.22656C77.8656 8.22656 77.6443 8.28906 77.4516 8.41406C77.2589 8.53385 77.0948 8.69792 76.9594 8.90625C76.8292 9.11458 76.7276 9.35417 76.6547 9.625C76.587 9.89062 76.5531 10.1693 76.5531 10.4609C76.5531 10.7526 76.587 11.0312 76.6547 11.2969C76.7224 11.5573 76.824 11.7891 76.9594 11.9922C77.0948 12.1901 77.2641 12.349 77.4672 12.4688C77.6703 12.5833 77.9099 12.6406 78.1859 12.6406C78.4516 12.6406 78.6885 12.5911 78.8969 12.4922C79.1104 12.388 79.2901 12.2526 79.4359 12.0859C79.587 11.9193 79.7016 11.7344 79.7797 11.5312C79.863 11.3281 79.9047 11.1224 79.9047 10.9141L80.6469 11.3203C80.6469 11.6849 80.5687 12.0443 80.4125 12.3984C80.2562 12.7526 80.0375 13.0755 79.7562 13.3672C79.4802 13.6536 79.1599 13.8828 78.7953 14.0547C78.4307 14.2266 78.0401 14.3125 77.6234 14.3125C77.0922 14.3125 76.6208 14.2161 76.2094 14.0234C75.7979 13.8255 75.449 13.5547 75.1625 13.2109C74.8812 12.862 74.6677 12.4557 74.5219 11.9922C74.376 11.5286 74.3031 11.026 74.3031 10.4844C74.3031 9.93229 74.3917 9.41406 74.5687 8.92969C74.751 8.44531 75.0089 8.01823 75.3422 7.64844C75.6807 7.27865 76.0844 6.98958 76.5531 6.78125C77.0271 6.56771 77.5531 6.46094 78.1312 6.46094C78.7094 6.46094 79.2354 6.57292 79.7094 6.79688C80.1833 7.02083 80.5896 7.33854 80.9281 7.75C81.2667 8.15625 81.5271 8.64323 81.7094 9.21094C81.8969 9.77865 81.9906 10.4089 81.9906 11.1016V11.8828C81.9906 12.6224 81.9099 13.3099 81.7484 13.9453C81.5922 14.5807 81.3552 15.1562 81.0375 15.6719C80.725 16.1823 80.3344 16.6198 79.8656 16.9844C79.4021 17.349 78.863 17.6276 78.2484 17.8203C77.6339 18.013 76.9464 18.1094 76.1859 18.1094H76.0062V16.2891ZM108.069 12.2344V14H103.655V12.2344H108.069ZM127.581 6.625V18H125.238V6.625H127.581ZM132.113 11.4844V13.3125H126.941V11.4844H132.113ZM132.659 6.625V8.46094H126.941V6.625H132.659ZM136.725 11.3906V18H134.475V9.54688H136.592L136.725 11.3906ZM139.272 9.49219L139.233 11.5781C139.123 11.5625 138.991 11.5495 138.834 11.5391C138.683 11.5234 138.545 11.5156 138.42 11.5156C138.103 11.5156 137.827 11.5573 137.592 11.6406C137.363 11.7188 137.17 11.8359 137.014 11.9922C136.863 12.1484 136.748 12.3385 136.67 12.5625C136.597 12.7865 136.556 13.0417 136.545 13.3281L136.092 13.1875C136.092 12.6406 136.147 12.138 136.256 11.6797C136.366 11.2161 136.524 10.8125 136.733 10.4688C136.946 10.125 137.207 9.85938 137.514 9.67188C137.821 9.48438 138.173 9.39062 138.569 9.39062C138.694 9.39062 138.821 9.40104 138.952 9.42188C139.082 9.4375 139.189 9.46094 139.272 9.49219ZM143.509 9.54688V18H141.252V9.54688H143.509ZM141.111 7.34375C141.111 7.01562 141.226 6.74479 141.455 6.53125C141.684 6.31771 141.991 6.21094 142.377 6.21094C142.757 6.21094 143.061 6.31771 143.291 6.53125C143.525 6.74479 143.642 7.01562 143.642 7.34375C143.642 7.67188 143.525 7.94271 143.291 8.15625C143.061 8.36979 142.757 8.47656 142.377 8.47656C141.991 8.47656 141.684 8.36979 141.455 8.15625C141.226 7.94271 141.111 7.67188 141.111 7.34375ZM151.161 16.1562V6H153.427V18H151.387L151.161 16.1562ZM145.817 13.875V13.7109C145.817 13.0651 145.89 12.4792 146.036 11.9531C146.182 11.4219 146.395 10.9661 146.677 10.5859C146.958 10.2057 147.304 9.91146 147.716 9.70312C148.127 9.49479 148.596 9.39062 149.122 9.39062C149.617 9.39062 150.049 9.49479 150.419 9.70312C150.794 9.91146 151.111 10.2083 151.372 10.5938C151.637 10.974 151.851 11.4245 152.012 11.9453C152.174 12.4609 152.291 13.026 152.364 13.6406V14C152.291 14.5885 152.174 15.1354 152.012 15.6406C151.851 16.1458 151.637 16.5885 151.372 16.9688C151.111 17.3438 150.794 17.6354 150.419 17.8438C150.044 18.0521 149.606 18.1562 149.106 18.1562C148.58 18.1562 148.111 18.0495 147.7 17.8359C147.294 17.6224 146.95 17.3229 146.669 16.9375C146.393 16.5521 146.182 16.099 146.036 15.5781C145.89 15.0573 145.817 14.4896 145.817 13.875ZM148.067 13.7109V13.875C148.067 14.224 148.093 14.5495 148.145 14.8516C148.203 15.1536 148.294 15.4219 148.419 15.6562C148.549 15.8854 148.716 16.0651 148.919 16.1953C149.127 16.3203 149.38 16.3828 149.677 16.3828C150.062 16.3828 150.38 16.2969 150.63 16.125C150.88 15.9479 151.07 15.7057 151.2 15.3984C151.335 15.0911 151.414 14.737 151.434 14.3359V13.3125C151.419 12.9844 151.372 12.6901 151.294 12.4297C151.221 12.1641 151.111 11.9375 150.966 11.75C150.825 11.5625 150.648 11.4167 150.434 11.3125C150.226 11.2083 149.979 11.1562 149.692 11.1562C149.401 11.1562 149.151 11.224 148.942 11.3594C148.734 11.4896 148.565 11.6693 148.434 11.8984C148.309 12.1276 148.216 12.3984 148.153 12.7109C148.096 13.0182 148.067 13.3516 148.067 13.7109ZM160.547 16.0938V12.3281C160.547 12.0573 160.503 11.8255 160.414 11.6328C160.326 11.4349 160.188 11.2812 160 11.1719C159.818 11.0625 159.581 11.0078 159.289 11.0078C159.039 11.0078 158.823 11.0521 158.641 11.1406C158.458 11.224 158.318 11.3464 158.219 11.5078C158.12 11.6641 158.07 11.849 158.07 12.0625H155.82C155.82 11.7031 155.904 11.362 156.07 11.0391C156.237 10.7161 156.479 10.4323 156.797 10.1875C157.115 9.9375 157.492 9.74219 157.93 9.60156C158.372 9.46094 158.867 9.39062 159.414 9.39062C160.07 9.39062 160.654 9.5 161.164 9.71875C161.674 9.9375 162.076 10.2656 162.367 10.7031C162.664 11.1406 162.812 11.6875 162.812 12.3438V15.9609C162.812 16.4245 162.841 16.8047 162.898 17.1016C162.956 17.3932 163.039 17.6484 163.148 17.8672V18H160.875C160.766 17.7708 160.682 17.4844 160.625 17.1406C160.573 16.7917 160.547 16.4427 160.547 16.0938ZM160.844 12.8516L160.859 14.125H159.602C159.305 14.125 159.047 14.1589 158.828 14.2266C158.609 14.2943 158.43 14.3906 158.289 14.5156C158.148 14.6354 158.044 14.776 157.977 14.9375C157.914 15.099 157.883 15.276 157.883 15.4688C157.883 15.6615 157.927 15.8359 158.016 15.9922C158.104 16.1432 158.232 16.263 158.398 16.3516C158.565 16.4349 158.76 16.4766 158.984 16.4766C159.323 16.4766 159.617 16.4089 159.867 16.2734C160.117 16.138 160.31 15.9714 160.445 15.7734C160.586 15.5755 160.659 15.388 160.664 15.2109L161.258 16.1641C161.174 16.3776 161.06 16.599 160.914 16.8281C160.773 17.0573 160.594 17.2734 160.375 17.4766C160.156 17.6745 159.893 17.8385 159.586 17.9688C159.279 18.0938 158.914 18.1562 158.492 18.1562C157.956 18.1562 157.469 18.0495 157.031 17.8359C156.599 17.6172 156.255 17.3177 156 16.9375C155.75 16.5521 155.625 16.1146 155.625 15.625C155.625 15.1823 155.708 14.7891 155.875 14.4453C156.042 14.1016 156.286 13.8125 156.609 13.5781C156.938 13.3385 157.346 13.1589 157.836 13.0391C158.326 12.9141 158.893 12.8516 159.539 12.8516H160.844ZM167.73 17.0469L169.972 9.54688H172.386L168.988 19.2734C168.915 19.487 168.816 19.7161 168.691 19.9609C168.571 20.2057 168.407 20.4375 168.198 20.6562C167.995 20.8802 167.738 21.0625 167.425 21.2031C167.118 21.3438 166.74 21.4141 166.292 21.4141C166.079 21.4141 165.904 21.401 165.769 21.375C165.633 21.349 165.472 21.3125 165.284 21.2656V19.6172C165.342 19.6172 165.402 19.6172 165.464 19.6172C165.527 19.6224 165.586 19.625 165.644 19.625C165.941 19.625 166.183 19.5911 166.37 19.5234C166.558 19.4557 166.709 19.3516 166.823 19.2109C166.938 19.0755 167.029 18.8984 167.097 18.6797L167.73 17.0469ZM166.792 9.54688L168.628 15.6719L168.948 18.0547L167.417 18.2188L164.378 9.54688H166.792Z" fill="#1C1C1C"/>
<path d="M29.688 53.192C28.5467 53.192 27.512 52.9467 26.584 52.456C25.6667 51.9547 24.9413 51.2667 24.408 50.392C23.8853 49.5067 23.624 48.5093 23.624 47.4C23.624 46.2907 23.8853 45.2987 24.408 44.424C24.9413 43.5387 25.6667 42.8507 26.584 42.36C27.512 41.8587 28.552 41.608 29.704 41.608C30.6747 41.608 31.5493 41.7787 32.328 42.12C33.1173 42.4613 33.7787 42.952 34.312 43.592L32.648 45.128C31.8907 44.2533 30.952 43.816 29.832 43.816C29.1387 43.816 28.52 43.9707 27.976 44.28C27.432 44.5787 27.0053 45 26.696 45.544C26.3973 46.088 26.248 46.7067 26.248 47.4C26.248 48.0933 26.3973 48.712 26.696 49.256C27.0053 49.8 27.432 50.2267 27.976 50.536C28.52 50.8347 29.1387 50.984 29.832 50.984C30.952 50.984 31.8907 50.5413 32.648 49.656L34.312 51.192C33.7787 51.8427 33.1173 52.3387 32.328 52.68C31.5387 53.0213 30.6587 53.192 29.688 53.192ZM35.8864 41.128H38.3824V53H35.8864V41.128ZM49.1309 48.728C49.1309 48.76 49.1149 48.984 49.0829 49.4H42.5709C42.6882 49.9333 42.9655 50.3547 43.4029 50.664C43.8402 50.9733 44.3842 51.128 45.0349 51.128C45.4829 51.128 45.8775 51.064 46.2189 50.936C46.5709 50.7973 46.8962 50.584 47.1949 50.296L48.5229 51.736C47.7122 52.664 46.5282 53.128 44.9709 53.128C44.0002 53.128 43.1415 52.9413 42.3949 52.568C41.6482 52.184 41.0722 51.656 40.6669 50.984C40.2615 50.312 40.0589 49.5493 40.0589 48.696C40.0589 47.8533 40.2562 47.096 40.6509 46.424C41.0562 45.7413 41.6055 45.2133 42.2989 44.84C43.0029 44.456 43.7869 44.264 44.6509 44.264C45.4935 44.264 46.2562 44.4453 46.9389 44.808C47.6215 45.1707 48.1549 45.6933 48.5389 46.376C48.9335 47.048 49.1309 47.832 49.1309 48.728ZM44.6669 46.152C44.1015 46.152 43.6269 46.312 43.2429 46.632C42.8589 46.952 42.6242 47.3893 42.5389 47.944H46.7789C46.6935 47.4 46.4589 46.968 46.0749 46.648C45.6909 46.3173 45.2215 46.152 44.6669 46.152ZM54.0303 44.264C55.3636 44.264 56.3876 44.584 57.1023 45.224C57.8169 45.8533 58.1743 46.808 58.1743 48.088V53H55.8383V51.928C55.3689 52.728 54.4943 53.128 53.2143 53.128C52.5529 53.128 51.9769 53.016 51.4863 52.792C51.0063 52.568 50.6383 52.2587 50.3823 51.864C50.1263 51.4693 49.9983 51.0213 49.9983 50.52C49.9983 49.72 50.2969 49.0907 50.8943 48.632C51.5023 48.1733 52.4356 47.944 53.6943 47.944H55.6783C55.6783 47.4 55.5129 46.984 55.1823 46.696C54.8516 46.3973 54.3556 46.248 53.6943 46.248C53.2356 46.248 52.7823 46.3227 52.3343 46.472C51.8969 46.6107 51.5236 46.8027 51.2143 47.048L50.3183 45.304C50.7876 44.9733 51.3476 44.7173 51.9983 44.536C52.6596 44.3547 53.3369 44.264 54.0303 44.264ZM53.8383 51.448C54.2649 51.448 54.6436 51.352 54.9743 51.16C55.3049 50.9573 55.5396 50.664 55.6783 50.28V49.4H53.9663C52.9423 49.4 52.4303 49.736 52.4303 50.408C52.4303 50.728 52.5529 50.984 52.7983 51.176C53.0543 51.3573 53.4009 51.448 53.8383 51.448ZM65.6653 44.264C66.7319 44.264 67.5906 44.584 68.2413 45.224C68.9026 45.864 69.2333 46.8133 69.2333 48.072V53H66.7373V48.456C66.7373 47.7733 66.5879 47.2667 66.2893 46.936C65.9906 46.5947 65.5586 46.424 64.9933 46.424C64.3639 46.424 63.8626 46.6213 63.4893 47.016C63.1159 47.4 62.9293 47.976 62.9293 48.744V53H60.4333V44.392H62.8173V45.4C63.1479 45.0373 63.5586 44.76 64.0493 44.568C64.5399 44.3653 65.0786 44.264 65.6653 44.264ZM81.563 53.192C80.4217 53.192 79.387 52.9467 78.459 52.456C77.5417 51.9547 76.8163 51.2667 76.283 50.392C75.7603 49.5067 75.499 48.5093 75.499 47.4C75.499 46.2907 75.7603 45.2987 76.283 44.424C76.8163 43.5387 77.5417 42.8507 78.459 42.36C79.387 41.8587 80.427 41.608 81.579 41.608C82.5497 41.608 83.4243 41.7787 84.203 42.12C84.9923 42.4613 85.6537 42.952 86.187 43.592L84.523 45.128C83.7657 44.2533 82.827 43.816 81.707 43.816C81.0137 43.816 80.395 43.9707 79.851 44.28C79.307 44.5787 78.8803 45 78.571 45.544C78.2723 46.088 78.123 46.7067 78.123 47.4C78.123 48.0933 78.2723 48.712 78.571 49.256C78.8803 49.8 79.307 50.2267 79.851 50.536C80.395 50.8347 81.0137 50.984 81.707 50.984C82.827 50.984 83.7657 50.5413 84.523 49.656L86.187 51.192C85.6537 51.8427 84.9923 52.3387 84.203 52.68C83.4137 53.0213 82.5337 53.192 81.563 53.192ZM91.5605 53.128C90.6538 53.128 89.8378 52.9413 89.1125 52.568C88.3978 52.184 87.8378 51.656 87.4325 50.984C87.0272 50.312 86.8245 49.5493 86.8245 48.696C86.8245 47.8427 87.0272 47.08 87.4325 46.408C87.8378 45.736 88.3978 45.2133 89.1125 44.84C89.8378 44.456 90.6538 44.264 91.5605 44.264C92.4672 44.264 93.2778 44.456 93.9925 44.84C94.7072 45.2133 95.2672 45.736 95.6725 46.408C96.0778 47.08 96.2805 47.8427 96.2805 48.696C96.2805 49.5493 96.0778 50.312 95.6725 50.984C95.2672 51.656 94.7072 52.184 93.9925 52.568C93.2778 52.9413 92.4672 53.128 91.5605 53.128ZM91.5605 51.08C92.2005 51.08 92.7232 50.8667 93.1285 50.44C93.5445 50.0027 93.7525 49.4213 93.7525 48.696C93.7525 47.9707 93.5445 47.3947 93.1285 46.968C92.7232 46.5307 92.2005 46.312 91.5605 46.312C90.9205 46.312 90.3925 46.5307 89.9765 46.968C89.5605 47.3947 89.3525 47.9707 89.3525 48.696C89.3525 49.4213 89.5605 50.0027 89.9765 50.44C90.3925 50.8667 90.9205 51.08 91.5605 51.08ZM106.717 41.128V53H104.333V52.008C103.714 52.7547 102.818 53.128 101.645 53.128C100.834 53.128 100.098 52.9467 99.4369 52.584C98.7862 52.2213 98.2742 51.704 97.9009 51.032C97.5275 50.36 97.3409 49.5813 97.3409 48.696C97.3409 47.8107 97.5275 47.032 97.9009 46.36C98.2742 45.688 98.7862 45.1707 99.4369 44.808C100.098 44.4453 100.834 44.264 101.645 44.264C102.744 44.264 103.602 44.6107 104.221 45.304V41.128H106.717ZM102.077 51.08C102.706 51.08 103.229 50.8667 103.645 50.44C104.061 50.0027 104.269 49.4213 104.269 48.696C104.269 47.9707 104.061 47.3947 103.645 46.968C103.229 46.5307 102.706 46.312 102.077 46.312C101.437 46.312 100.909 46.5307 100.493 46.968C100.077 47.3947 99.8689 47.9707 99.8689 48.696C99.8689 49.4213 100.077 50.0027 100.493 50.44C100.909 50.8667 101.437 51.08 102.077 51.08ZM117.459 48.728C117.459 48.76 117.443 48.984 117.411 49.4H110.899C111.016 49.9333 111.294 50.3547 111.731 50.664C112.168 50.9733 112.712 51.128 113.363 51.128C113.811 51.128 114.206 51.064 114.547 50.936C114.899 50.7973 115.224 50.584 115.523 50.296L116.851 51.736C116.04 52.664 114.856 53.128 113.299 53.128C112.328 53.128 111.47 52.9413 110.723 52.568C109.976 52.184 109.4 51.656 108.995 50.984C108.59 50.312 108.387 49.5493 108.387 48.696C108.387 47.8533 108.584 47.096 108.979 46.424C109.384 45.7413 109.934 45.2133 110.627 44.84C111.331 44.456 112.115 44.264 112.979 44.264C113.822 44.264 114.584 44.4453 115.267 44.808C115.95 45.1707 116.483 45.6933 116.867 46.376C117.262 47.048 117.459 47.832 117.459 48.728ZM112.995 46.152C112.43 46.152 111.955 46.312 111.571 46.632C111.187 46.952 110.952 47.3893 110.867 47.944H115.107C115.022 47.4 114.787 46.968 114.403 46.648C114.019 46.3173 113.55 46.152 112.995 46.152Z" fill="#1C1C1C"/>
<path d="M24.913 66.3H26.695V72.548H30.556V74H24.913V66.3ZM37.1847 71.063C37.1847 71.085 37.1737 71.239 37.1517 71.525H32.6747C32.7554 71.8917 32.946 72.1813 33.2467 72.394C33.5474 72.6067 33.9214 72.713 34.3687 72.713C34.6767 72.713 34.948 72.669 35.1827 72.581C35.4247 72.4857 35.6484 72.339 35.8537 72.141L36.7667 73.131C36.2094 73.769 35.3954 74.088 34.3247 74.088C33.6574 74.088 33.067 73.9597 32.5537 73.703C32.0404 73.439 31.6444 73.076 31.3657 72.614C31.087 72.152 30.9477 71.6277 30.9477 71.041C30.9477 70.4617 31.0834 69.941 31.3547 69.479C31.6334 69.0097 32.011 68.6467 32.4877 68.39C32.9717 68.126 33.5107 67.994 34.1047 67.994C34.684 67.994 35.2084 68.1187 35.6777 68.368C36.147 68.6173 36.5137 68.9767 36.7777 69.446C37.049 69.908 37.1847 70.447 37.1847 71.063ZM34.1157 69.292C33.727 69.292 33.4007 69.402 33.1367 69.622C32.8727 69.842 32.7114 70.1427 32.6527 70.524H35.5677C35.509 70.15 35.3477 69.853 35.0837 69.633C34.8197 69.4057 34.497 69.292 34.1157 69.292ZM41.1432 74.088C40.5198 74.088 39.9588 73.9597 39.4602 73.703C38.9688 73.439 38.5838 73.076 38.3052 72.614C38.0265 72.152 37.8872 71.6277 37.8872 71.041C37.8872 70.4543 38.0265 69.93 38.3052 69.468C38.5838 69.006 38.9688 68.6467 39.4602 68.39C39.9588 68.126 40.5198 67.994 41.1432 67.994C41.7665 67.994 42.3238 68.126 42.8152 68.39C43.3065 68.6467 43.6915 69.006 43.9702 69.468C44.2488 69.93 44.3882 70.4543 44.3882 71.041C44.3882 71.6277 44.2488 72.152 43.9702 72.614C43.6915 73.076 43.3065 73.439 42.8152 73.703C42.3238 73.9597 41.7665 74.088 41.1432 74.088ZM41.1432 72.68C41.5832 72.68 41.9425 72.5333 42.2212 72.24C42.5072 71.9393 42.6502 71.5397 42.6502 71.041C42.6502 70.5423 42.5072 70.1463 42.2212 69.853C41.9425 69.5523 41.5832 69.402 41.1432 69.402C40.7032 69.402 40.3402 69.5523 40.0542 69.853C39.7682 70.1463 39.6252 70.5423 39.6252 71.041C39.6252 71.5397 39.7682 71.9393 40.0542 72.24C40.3402 72.5333 40.7032 72.68 41.1432 72.68ZM49.1322 67.994C49.8655 67.994 50.4558 68.214 50.9032 68.654C51.3578 69.094 51.5852 69.7467 51.5852 70.612V74H49.8692V70.876C49.8692 70.4067 49.7665 70.0583 49.5612 69.831C49.3558 69.5963 49.0588 69.479 48.6702 69.479C48.2375 69.479 47.8928 69.6147 47.6362 69.886C47.3795 70.15 47.2512 70.546 47.2512 71.074V74H45.5352V68.082H47.1742V68.775C47.4015 68.5257 47.6838 68.335 48.0212 68.203C48.3585 68.0637 48.7288 67.994 49.1322 67.994ZM55.5276 67.994C56.4443 67.994 57.1483 68.214 57.6396 68.654C58.131 69.0867 58.3766 69.743 58.3766 70.623V74H56.7706V73.263C56.448 73.813 55.8466 74.088 54.9666 74.088C54.512 74.088 54.116 74.011 53.7786 73.857C53.4486 73.703 53.1956 73.4903 53.0196 73.219C52.8436 72.9477 52.7556 72.6397 52.7556 72.295C52.7556 71.745 52.961 71.3123 53.3716 70.997C53.7896 70.6817 54.4313 70.524 55.2966 70.524H56.6606C56.6606 70.15 56.547 69.864 56.3196 69.666C56.0923 69.4607 55.7513 69.358 55.2966 69.358C54.9813 69.358 54.6696 69.4093 54.3616 69.512C54.061 69.6073 53.8043 69.7393 53.5916 69.908L52.9756 68.709C53.2983 68.4817 53.6833 68.3057 54.1306 68.181C54.5853 68.0563 55.051 67.994 55.5276 67.994ZM55.3956 72.933C55.689 72.933 55.9493 72.867 56.1766 72.735C56.404 72.5957 56.5653 72.394 56.6606 72.13V71.525H55.4836C54.7796 71.525 54.4276 71.756 54.4276 72.218C54.4276 72.438 54.512 72.614 54.6806 72.746C54.8566 72.8707 55.095 72.933 55.3956 72.933ZM61.5687 68.863C61.774 68.577 62.049 68.3607 62.3937 68.214C62.7457 68.0673 63.149 67.994 63.6037 67.994V69.578C63.413 69.5633 63.2847 69.556 63.2187 69.556C62.7274 69.556 62.3424 69.6953 62.0637 69.974C61.785 70.2453 61.6457 70.656 61.6457 71.206V74H59.9297V68.082H61.5687V68.863ZM70.5983 65.838V74H68.9593V73.318C68.534 73.8313 67.918 74.088 67.1113 74.088C66.554 74.088 66.048 73.9633 65.5933 73.714C65.146 73.4647 64.794 73.109 64.5373 72.647C64.2807 72.185 64.1523 71.6497 64.1523 71.041C64.1523 70.4323 64.2807 69.897 64.5373 69.435C64.794 68.973 65.146 68.6173 65.5933 68.368C66.048 68.1187 66.554 67.994 67.1113 67.994C67.8667 67.994 68.457 68.2323 68.8823 68.709V65.838H70.5983ZM67.4083 72.68C67.841 72.68 68.2003 72.5333 68.4863 72.24C68.7723 71.9393 68.9153 71.5397 68.9153 71.041C68.9153 70.5423 68.7723 70.1463 68.4863 69.853C68.2003 69.5523 67.841 69.402 67.4083 69.402C66.9683 69.402 66.6053 69.5523 66.3193 69.853C66.0333 70.1463 65.8903 70.5423 65.8903 71.041C65.8903 71.5397 66.0333 71.9393 66.3193 72.24C66.6053 72.5333 66.9683 72.68 67.4083 72.68ZM75.0025 74.088C74.3792 74.088 73.8182 73.9597 73.3195 73.703C72.8282 73.439 72.4432 73.076 72.1645 72.614C71.8859 72.152 71.7465 71.6277 71.7465 71.041C71.7465 70.4543 71.8859 69.93 72.1645 69.468C72.4432 69.006 72.8282 68.6467 73.3195 68.39C73.8182 68.126 74.3792 67.994 75.0025 67.994C75.6259 67.994 76.1832 68.126 76.6745 68.39C77.1659 68.6467 77.5509 69.006 77.8295 69.468C78.1082 69.93 78.2475 70.4543 78.2475 71.041C78.2475 71.6277 78.1082 72.152 77.8295 72.614C77.5509 73.076 77.1659 73.439 76.6745 73.703C76.1832 73.9597 75.6259 74.088 75.0025 74.088ZM75.0025 72.68C75.4425 72.68 75.8019 72.5333 76.0805 72.24C76.3665 71.9393 76.5095 71.5397 76.5095 71.041C76.5095 70.5423 76.3665 70.1463 76.0805 69.853C75.8019 69.5523 75.4425 69.402 75.0025 69.402C74.5625 69.402 74.1995 69.5523 73.9135 69.853C73.6275 70.1463 73.4845 70.5423 73.4845 71.041C73.4845 71.5397 73.6275 71.9393 73.9135 72.24C74.1995 72.5333 74.5625 72.68 75.0025 72.68ZM82.6308 66.3H86.1288C86.9648 66.3 87.7018 66.4613 88.3398 66.784C88.9851 67.0993 89.4838 67.5467 89.8358 68.126C90.1951 68.7053 90.3748 69.38 90.3748 70.15C90.3748 70.92 90.1951 71.5947 89.8358 72.174C89.4838 72.7533 88.9851 73.2043 88.3398 73.527C87.7018 73.8423 86.9648 74 86.1288 74H82.6308V66.3ZM86.0408 72.537C86.8108 72.537 87.4231 72.3243 87.8778 71.899C88.3398 71.4663 88.5708 70.8833 88.5708 70.15C88.5708 69.4167 88.3398 68.8373 87.8778 68.412C87.4231 67.9793 86.8108 67.763 86.0408 67.763H84.4128V72.537H86.0408ZM93.9847 67.994C94.9013 67.994 95.6053 68.214 96.0967 68.654C96.588 69.0867 96.8337 69.743 96.8337 70.623V74H95.2277V73.263C94.905 73.813 94.3037 74.088 93.4237 74.088C92.969 74.088 92.573 74.011 92.2357 73.857C91.9057 73.703 91.6527 73.4903 91.4767 73.219C91.3007 72.9477 91.2127 72.6397 91.2127 72.295C91.2127 71.745 91.418 71.3123 91.8287 70.997C92.2467 70.6817 92.8883 70.524 93.7537 70.524H95.1177C95.1177 70.15 95.004 69.864 94.7767 69.666C94.5493 69.4607 94.2083 69.358 93.7537 69.358C93.4383 69.358 93.1267 69.4093 92.8187 69.512C92.518 69.6073 92.2613 69.7393 92.0487 69.908L91.4327 68.709C91.7553 68.4817 92.1403 68.3057 92.5877 68.181C93.0423 68.0563 93.508 67.994 93.9847 67.994ZM93.8527 72.933C94.146 72.933 94.4063 72.867 94.6337 72.735C94.861 72.5957 95.0223 72.394 95.1177 72.13V71.525H93.9407C93.2367 71.525 92.8847 71.756 92.8847 72.218C92.8847 72.438 92.969 72.614 93.1377 72.746C93.3137 72.8707 93.552 72.933 93.8527 72.933ZM101.623 66.3H103.405V72.548H107.266V74H101.623V66.3ZM108.141 68.082H109.857V74H108.141V68.082ZM108.999 67.257C108.683 67.257 108.427 67.1653 108.229 66.982C108.031 66.7987 107.932 66.5713 107.932 66.3C107.932 66.0287 108.031 65.8013 108.229 65.618C108.427 65.4347 108.683 65.343 108.999 65.343C109.314 65.343 109.571 65.431 109.769 65.607C109.967 65.783 110.066 66.003 110.066 66.267C110.066 66.553 109.967 66.7913 109.769 66.982C109.571 67.1653 109.314 67.257 108.999 67.257ZM114.309 74.088C113.679 74.088 113.11 73.9597 112.604 73.703C112.106 73.439 111.713 73.076 111.427 72.614C111.149 72.152 111.009 71.6277 111.009 71.041C111.009 70.4543 111.149 69.93 111.427 69.468C111.713 69.006 112.106 68.6467 112.604 68.39C113.11 68.126 113.679 67.994 114.309 67.994C114.933 67.994 115.475 68.126 115.937 68.39C116.407 68.6467 116.748 69.017 116.96 69.501L115.629 70.216C115.321 69.6733 114.878 69.402 114.298 69.402C113.851 69.402 113.481 69.5487 113.187 69.842C112.894 70.1353 112.747 70.535 112.747 71.041C112.747 71.547 112.894 71.9467 113.187 72.24C113.481 72.5333 113.851 72.68 114.298 72.68C114.885 72.68 115.329 72.4087 115.629 71.866L116.96 72.592C116.748 73.0613 116.407 73.428 115.937 73.692C115.475 73.956 114.933 74.088 114.309 74.088ZM117.948 68.082H119.664V74H117.948V68.082ZM118.806 67.257C118.491 67.257 118.234 67.1653 118.036 66.982C117.838 66.7987 117.739 66.5713 117.739 66.3C117.739 66.0287 117.838 65.8013 118.036 65.618C118.234 65.4347 118.491 65.343 118.806 65.343C119.122 65.343 119.378 65.431 119.576 65.607C119.774 65.783 119.873 66.003 119.873 66.267C119.873 66.553 119.774 66.7913 119.576 66.982C119.378 67.1653 119.122 67.257 118.806 67.257ZM124.854 67.994C125.587 67.994 126.178 68.214 126.625 68.654C127.08 69.094 127.307 69.7467 127.307 70.612V74H125.591V70.876C125.591 70.4067 125.488 70.0583 125.283 69.831C125.078 69.5963 124.781 69.479 124.392 69.479C123.959 69.479 123.615 69.6147 123.358 69.886C123.101 70.15 122.973 70.546 122.973 71.074V74H121.257V68.082H122.896V68.775C123.123 68.5257 123.406 68.335 123.743 68.203C124.08 68.0637 124.451 67.994 124.854 67.994Z" fill="#1C1C1C" fill-opacity="0.6"/>
</svg>
