<svg width="320" height="146" viewBox="0 0 320 146" fill="none" xmlns="http://www.w3.org/2000/svg">
<g filter="url(#filter0_d_272_3)">
<path d="M7 32C7 18.1929 18.1929 7 32 7H313V114C313 127.807 301.807 139 288 139H32C18.1929 139 7 127.807 7 114V32Z" fill="#FEA501" fill-opacity="0.9" shape-rendering="crispEdges"/>
</g>
<line x1="39.5" y1="30.5" x2="39.5" y2="54.5" stroke="white" stroke-width="3" stroke-linecap="round"/>
<path d="M68.2656 35.6016V47H66.0156V38.1953L63.3125 39.0547V37.2812L68.0234 35.6016H68.2656ZM80.425 40.3125V42.2812C80.425 43.1354 80.3339 43.8724 80.1516 44.4922C79.9693 45.1068 79.7063 45.612 79.3625 46.0078C79.024 46.3984 78.6203 46.6875 78.1516 46.875C77.6828 47.0625 77.162 47.1562 76.5891 47.1562C76.1307 47.1562 75.7036 47.099 75.3078 46.9844C74.912 46.8646 74.5552 46.6797 74.2375 46.4297C73.925 46.1797 73.6542 45.8646 73.425 45.4844C73.201 45.099 73.0292 44.6406 72.9094 44.1094C72.7896 43.5781 72.7297 42.9688 72.7297 42.2812V40.3125C72.7297 39.4583 72.8208 38.7266 73.0031 38.1172C73.1906 37.5026 73.4536 37 73.7922 36.6094C74.1359 36.2188 74.5422 35.9323 75.0109 35.75C75.4797 35.5625 76.0005 35.4688 76.5734 35.4688C77.0318 35.4688 77.4563 35.5286 77.8469 35.6484C78.2427 35.763 78.5995 35.9427 78.9172 36.1875C79.2349 36.4323 79.5057 36.7474 79.7297 37.1328C79.9536 37.513 80.1255 37.9688 80.2453 38.5C80.3651 39.026 80.425 39.6302 80.425 40.3125ZM78.1672 42.5781V40.0078C78.1672 39.5964 78.1438 39.237 78.0969 38.9297C78.0552 38.6224 77.9901 38.362 77.9016 38.1484C77.813 37.9297 77.7036 37.7526 77.5734 37.6172C77.4432 37.4818 77.2948 37.3828 77.1281 37.3203C76.9615 37.2578 76.7766 37.2266 76.5734 37.2266C76.3182 37.2266 76.0917 37.276 75.8938 37.375C75.701 37.474 75.537 37.6328 75.4016 37.8516C75.2661 38.0651 75.162 38.3516 75.0891 38.7109C75.0214 39.0651 74.9875 39.4974 74.9875 40.0078V42.5781C74.9875 42.9896 75.0083 43.3516 75.05 43.6641C75.0969 43.9766 75.1646 44.2448 75.2531 44.4688C75.3469 44.6875 75.4563 44.8672 75.5813 45.0078C75.7115 45.1432 75.8599 45.2422 76.0266 45.3047C76.1984 45.3672 76.3859 45.3984 76.5891 45.3984C76.8391 45.3984 77.0604 45.349 77.2531 45.25C77.451 45.1458 77.6177 44.9844 77.7531 44.7656C77.8938 44.5417 77.9979 44.25 78.0656 43.8906C78.1333 43.5312 78.1672 43.0938 78.1672 42.5781ZM87.7203 45.9141C87.7203 45.5807 87.8349 45.3021 88.0641 45.0781C88.2984 44.8542 88.6083 44.7422 88.9937 44.7422C89.3792 44.7422 89.6865 44.8542 89.9156 45.0781C90.15 45.3021 90.2672 45.5807 90.2672 45.9141C90.2672 46.2474 90.15 46.526 89.9156 46.75C89.6865 46.974 89.3792 47.0859 88.9937 47.0859C88.6083 47.0859 88.2984 46.974 88.0641 46.75C87.8349 46.526 87.7203 46.2474 87.7203 45.9141ZM87.7203 39.4688C87.7203 39.1354 87.8349 38.8568 88.0641 38.6328C88.2984 38.4089 88.6083 38.2969 88.9937 38.2969C89.3792 38.2969 89.6865 38.4089 89.9156 38.6328C90.15 38.8568 90.2672 39.1354 90.2672 39.4688C90.2672 39.8021 90.15 40.0807 89.9156 40.3047C89.6865 40.5286 89.3792 40.6406 88.9937 40.6406C88.6083 40.6406 88.2984 40.5286 88.0641 40.3047C87.8349 40.0807 87.7203 39.8021 87.7203 39.4688ZM104.542 41.8203L102.745 41.3906L103.394 35.625H109.784V37.4453H105.245L104.964 39.9688C105.115 39.8802 105.344 39.7865 105.652 39.6875C105.959 39.5833 106.303 39.5312 106.683 39.5312C107.235 39.5312 107.724 39.6172 108.152 39.7891C108.579 39.9609 108.941 40.2109 109.237 40.5391C109.54 40.8672 109.769 41.2682 109.925 41.7422C110.081 42.2161 110.159 42.7526 110.159 43.3516C110.159 43.8568 110.081 44.3385 109.925 44.7969C109.769 45.25 109.532 45.6562 109.214 46.0156C108.896 46.3698 108.498 46.6484 108.019 46.8516C107.54 47.0547 106.972 47.1562 106.316 47.1562C105.826 47.1562 105.352 47.0833 104.894 46.9375C104.441 46.7917 104.032 46.5755 103.667 46.2891C103.308 46.0026 103.019 45.6562 102.8 45.25C102.586 44.8385 102.474 44.3698 102.464 43.8438H104.698C104.73 44.1667 104.813 44.4453 104.948 44.6797C105.089 44.9089 105.274 45.0859 105.503 45.2109C105.732 45.3359 106.001 45.3984 106.308 45.3984C106.594 45.3984 106.839 45.3438 107.042 45.2344C107.245 45.125 107.409 44.974 107.534 44.7812C107.659 44.5833 107.751 44.3542 107.808 44.0938C107.87 43.8281 107.902 43.5417 107.902 43.2344C107.902 42.9271 107.865 42.6484 107.792 42.3984C107.719 42.1484 107.607 41.9323 107.456 41.75C107.305 41.5677 107.112 41.4271 106.878 41.3281C106.649 41.2292 106.381 41.1797 106.073 41.1797C105.657 41.1797 105.334 41.2448 105.105 41.375C104.881 41.5052 104.693 41.6536 104.542 41.8203ZM114.006 45.2891H114.155C114.78 45.2891 115.316 45.2135 115.764 45.0625C116.217 44.9062 116.59 44.6823 116.881 44.3906C117.173 44.099 117.389 43.7422 117.53 43.3203C117.67 42.8932 117.741 42.4089 117.741 41.8672V39.7109C117.741 39.2995 117.699 38.9375 117.616 38.625C117.537 38.3125 117.423 38.0547 117.272 37.8516C117.126 37.6432 116.954 37.487 116.756 37.3828C116.564 37.2786 116.35 37.2266 116.116 37.2266C115.866 37.2266 115.644 37.2891 115.452 37.4141C115.259 37.5339 115.095 37.6979 114.959 37.9062C114.829 38.1146 114.728 38.3542 114.655 38.625C114.587 38.8906 114.553 39.1693 114.553 39.4609C114.553 39.7526 114.587 40.0312 114.655 40.2969C114.722 40.5573 114.824 40.7891 114.959 40.9922C115.095 41.1901 115.264 41.349 115.467 41.4688C115.67 41.5833 115.91 41.6406 116.186 41.6406C116.452 41.6406 116.689 41.5911 116.897 41.4922C117.11 41.388 117.29 41.2526 117.436 41.0859C117.587 40.9193 117.702 40.7344 117.78 40.5312C117.863 40.3281 117.905 40.1224 117.905 39.9141L118.647 40.3203C118.647 40.6849 118.569 41.0443 118.412 41.3984C118.256 41.7526 118.037 42.0755 117.756 42.3672C117.48 42.6536 117.16 42.8828 116.795 43.0547C116.431 43.2266 116.04 43.3125 115.623 43.3125C115.092 43.3125 114.621 43.2161 114.209 43.0234C113.798 42.8255 113.449 42.5547 113.162 42.2109C112.881 41.862 112.668 41.4557 112.522 40.9922C112.376 40.5286 112.303 40.026 112.303 39.4844C112.303 38.9323 112.392 38.4141 112.569 37.9297C112.751 37.4453 113.009 37.0182 113.342 36.6484C113.681 36.2786 114.084 35.9896 114.553 35.7812C115.027 35.5677 115.553 35.4609 116.131 35.4609C116.709 35.4609 117.235 35.5729 117.709 35.7969C118.183 36.0208 118.59 36.3385 118.928 36.75C119.267 37.1562 119.527 37.6432 119.709 38.2109C119.897 38.7786 119.991 39.4089 119.991 40.1016V40.8828C119.991 41.6224 119.91 42.3099 119.748 42.9453C119.592 43.5807 119.355 44.1562 119.037 44.6719C118.725 45.1823 118.334 45.6198 117.866 45.9844C117.402 46.349 116.863 46.6276 116.248 46.8203C115.634 47.013 114.946 47.1094 114.186 47.1094H114.006V45.2891ZM146.069 41.2344V43H141.655V41.2344H146.069ZM169.159 44.0234C169.159 43.8203 169.128 43.638 169.066 43.4766C169.008 43.3099 168.899 43.1589 168.738 43.0234C168.576 42.8828 168.349 42.7448 168.058 42.6094C167.766 42.474 167.389 42.3333 166.925 42.1875C166.409 42.0208 165.92 41.8333 165.456 41.625C164.998 41.4167 164.592 41.1745 164.238 40.8984C163.889 40.6172 163.613 40.2917 163.409 39.9219C163.211 39.5521 163.113 39.1224 163.113 38.6328C163.113 38.1589 163.217 37.7292 163.425 37.3438C163.633 36.9531 163.925 36.6198 164.3 36.3438C164.675 36.0625 165.118 35.8464 165.628 35.6953C166.144 35.5443 166.709 35.4688 167.323 35.4688C168.162 35.4688 168.894 35.6198 169.519 35.9219C170.144 36.224 170.628 36.638 170.972 37.1641C171.321 37.6901 171.495 38.2917 171.495 38.9688H169.167C169.167 38.6354 169.097 38.3438 168.956 38.0938C168.821 37.8385 168.613 37.638 168.331 37.4922C168.055 37.3464 167.706 37.2734 167.284 37.2734C166.878 37.2734 166.54 37.3359 166.269 37.4609C165.998 37.5807 165.795 37.7448 165.659 37.9531C165.524 38.1562 165.456 38.3854 165.456 38.6406C165.456 38.8333 165.503 39.0078 165.597 39.1641C165.696 39.3203 165.842 39.4661 166.034 39.6016C166.227 39.737 166.464 39.8646 166.745 39.9844C167.027 40.1042 167.352 40.2214 167.722 40.3359C168.342 40.5234 168.886 40.7344 169.355 40.9688C169.829 41.2031 170.224 41.4661 170.542 41.7578C170.86 42.0495 171.099 42.3802 171.261 42.75C171.422 43.1198 171.503 43.5391 171.503 44.0078C171.503 44.5026 171.407 44.9453 171.214 45.3359C171.021 45.7266 170.743 46.0573 170.378 46.3281C170.014 46.599 169.579 46.8047 169.073 46.9453C168.568 47.0859 168.003 47.1562 167.378 47.1562C166.816 47.1562 166.261 47.0833 165.714 46.9375C165.167 46.7865 164.67 46.5599 164.222 46.2578C163.779 45.9557 163.425 45.5703 163.159 45.1016C162.894 44.6328 162.761 44.0781 162.761 43.4375H165.113C165.113 43.7917 165.167 44.0911 165.277 44.3359C165.386 44.5807 165.54 44.7786 165.738 44.9297C165.941 45.0807 166.18 45.1901 166.456 45.2578C166.738 45.3255 167.045 45.3594 167.378 45.3594C167.784 45.3594 168.118 45.3021 168.378 45.1875C168.644 45.0729 168.839 44.9141 168.964 44.7109C169.094 44.5078 169.159 44.2786 169.159 44.0234ZM178.319 45.0938V41.3281C178.319 41.0573 178.274 40.8255 178.186 40.6328C178.097 40.4349 177.959 40.2812 177.772 40.1719C177.59 40.0625 177.353 40.0078 177.061 40.0078C176.811 40.0078 176.595 40.0521 176.412 40.1406C176.23 40.224 176.09 40.3464 175.991 40.5078C175.892 40.6641 175.842 40.849 175.842 41.0625H173.592C173.592 40.7031 173.676 40.362 173.842 40.0391C174.009 39.7161 174.251 39.4323 174.569 39.1875C174.886 38.9375 175.264 38.7422 175.702 38.6016C176.144 38.4609 176.639 38.3906 177.186 38.3906C177.842 38.3906 178.426 38.5 178.936 38.7188C179.446 38.9375 179.847 39.2656 180.139 39.7031C180.436 40.1406 180.584 40.6875 180.584 41.3438V44.9609C180.584 45.4245 180.613 45.8047 180.67 46.1016C180.728 46.3932 180.811 46.6484 180.92 46.8672V47H178.647C178.537 46.7708 178.454 46.4844 178.397 46.1406C178.345 45.7917 178.319 45.4427 178.319 45.0938ZM178.616 41.8516L178.631 43.125H177.373C177.077 43.125 176.819 43.1589 176.6 43.2266C176.381 43.2943 176.202 43.3906 176.061 43.5156C175.92 43.6354 175.816 43.776 175.748 43.9375C175.686 44.099 175.655 44.276 175.655 44.4688C175.655 44.6615 175.699 44.8359 175.787 44.9922C175.876 45.1432 176.004 45.263 176.17 45.3516C176.337 45.4349 176.532 45.4766 176.756 45.4766C177.095 45.4766 177.389 45.4089 177.639 45.2734C177.889 45.138 178.082 44.9714 178.217 44.7734C178.358 44.5755 178.431 44.388 178.436 44.2109L179.03 45.1641C178.946 45.3776 178.832 45.599 178.686 45.8281C178.545 46.0573 178.366 46.2734 178.147 46.4766C177.928 46.6745 177.665 46.8385 177.358 46.9688C177.051 47.0938 176.686 47.1562 176.264 47.1562C175.728 47.1562 175.241 47.0495 174.803 46.8359C174.371 46.6172 174.027 46.3177 173.772 45.9375C173.522 45.5521 173.397 45.1146 173.397 44.625C173.397 44.1823 173.48 43.7891 173.647 43.4453C173.814 43.1016 174.058 42.8125 174.381 42.5781C174.709 42.3385 175.118 42.1589 175.608 42.0391C176.097 41.9141 176.665 41.8516 177.311 41.8516H178.616ZM187.259 38.5469V40.1406H182.338V38.5469H187.259ZM183.556 36.4609H185.806V44.4531C185.806 44.6979 185.838 44.8854 185.9 45.0156C185.968 45.1458 186.067 45.237 186.197 45.2891C186.327 45.3359 186.491 45.3594 186.689 45.3594C186.83 45.3594 186.955 45.3542 187.064 45.3438C187.179 45.3281 187.275 45.3125 187.353 45.2969L187.361 46.9531C187.168 47.0156 186.96 47.0651 186.736 47.1016C186.512 47.138 186.265 47.1562 185.994 47.1562C185.499 47.1562 185.067 47.0755 184.697 46.9141C184.332 46.7474 184.051 46.4818 183.853 46.1172C183.655 45.7526 183.556 45.2734 183.556 44.6797V36.4609ZM194.341 44.9766V38.5469H196.591V47H194.473L194.341 44.9766ZM194.591 43.2422L195.255 43.2266C195.255 43.7891 195.19 44.3125 195.059 44.7969C194.929 45.276 194.734 45.6927 194.473 46.0469C194.213 46.3958 193.885 46.6693 193.489 46.8672C193.093 47.0599 192.627 47.1562 192.091 47.1562C191.679 47.1562 191.299 47.099 190.95 46.9844C190.606 46.8646 190.309 46.6797 190.059 46.4297C189.815 46.1745 189.622 45.849 189.481 45.4531C189.346 45.0521 189.278 44.5703 189.278 44.0078V38.5469H191.528V44.0234C191.528 44.2734 191.557 44.4844 191.614 44.6562C191.677 44.8281 191.762 44.9688 191.872 45.0781C191.981 45.1875 192.109 45.2656 192.255 45.3125C192.406 45.3594 192.572 45.3828 192.755 45.3828C193.218 45.3828 193.583 45.2891 193.848 45.1016C194.119 44.9141 194.309 44.6589 194.419 44.3359C194.533 44.0078 194.591 43.6432 194.591 43.2422ZM201.359 40.3906V47H199.109V38.5469H201.227L201.359 40.3906ZM203.906 38.4922L203.867 40.5781C203.758 40.5625 203.625 40.5495 203.469 40.5391C203.318 40.5234 203.18 40.5156 203.055 40.5156C202.737 40.5156 202.461 40.5573 202.227 40.6406C201.997 40.7188 201.805 40.8359 201.648 40.9922C201.497 41.1484 201.383 41.3385 201.305 41.5625C201.232 41.7865 201.19 42.0417 201.18 42.3281L200.727 42.1875C200.727 41.6406 200.781 41.138 200.891 40.6797C201 40.2161 201.159 39.8125 201.367 39.4688C201.581 39.125 201.841 38.8594 202.148 38.6719C202.456 38.4844 202.807 38.3906 203.203 38.3906C203.328 38.3906 203.456 38.401 203.586 38.4219C203.716 38.4375 203.823 38.4609 203.906 38.4922ZM210.605 45.1562V35H212.87V47H210.831L210.605 45.1562ZM205.261 42.875V42.7109C205.261 42.0651 205.334 41.4792 205.48 40.9531C205.626 40.4219 205.839 39.9661 206.12 39.5859C206.402 39.2057 206.748 38.9115 207.159 38.7031C207.571 38.4948 208.04 38.3906 208.566 38.3906C209.06 38.3906 209.493 38.4948 209.863 38.7031C210.238 38.9115 210.555 39.2083 210.816 39.5938C211.081 39.974 211.295 40.4245 211.456 40.9453C211.618 41.4609 211.735 42.026 211.808 42.6406V43C211.735 43.5885 211.618 44.1354 211.456 44.6406C211.295 45.1458 211.081 45.5885 210.816 45.9688C210.555 46.3438 210.238 46.6354 209.863 46.8438C209.488 47.0521 209.05 47.1562 208.55 47.1562C208.024 47.1562 207.555 47.0495 207.144 46.8359C206.738 46.6224 206.394 46.3229 206.113 45.9375C205.836 45.5521 205.626 45.099 205.48 44.5781C205.334 44.0573 205.261 43.4896 205.261 42.875ZM207.511 42.7109V42.875C207.511 43.224 207.537 43.5495 207.589 43.8516C207.646 44.1536 207.738 44.4219 207.863 44.6562C207.993 44.8854 208.159 45.0651 208.363 45.1953C208.571 45.3203 208.823 45.3828 209.12 45.3828C209.506 45.3828 209.823 45.2969 210.073 45.125C210.323 44.9479 210.514 44.7057 210.644 44.3984C210.779 44.0911 210.857 43.737 210.878 43.3359V42.3125C210.863 41.9844 210.816 41.6901 210.738 41.4297C210.665 41.1641 210.555 40.9375 210.409 40.75C210.269 40.5625 210.092 40.4167 209.878 40.3125C209.67 40.2083 209.422 40.1562 209.136 40.1562C208.844 40.1562 208.594 40.224 208.386 40.3594C208.178 40.4896 208.008 40.6693 207.878 40.8984C207.753 41.1276 207.659 41.3984 207.597 41.7109C207.54 42.0182 207.511 42.3516 207.511 42.7109ZM219.991 45.0938V41.3281C219.991 41.0573 219.946 40.8255 219.858 40.6328C219.769 40.4349 219.631 40.2812 219.444 40.1719C219.261 40.0625 219.024 40.0078 218.733 40.0078C218.483 40.0078 218.267 40.0521 218.084 40.1406C217.902 40.224 217.761 40.3464 217.663 40.5078C217.564 40.6641 217.514 40.849 217.514 41.0625H215.264C215.264 40.7031 215.347 40.362 215.514 40.0391C215.681 39.7161 215.923 39.4323 216.241 39.1875C216.558 38.9375 216.936 38.7422 217.373 38.6016C217.816 38.4609 218.311 38.3906 218.858 38.3906C219.514 38.3906 220.097 38.5 220.608 38.7188C221.118 38.9375 221.519 39.2656 221.811 39.7031C222.108 40.1406 222.256 40.6875 222.256 41.3438V44.9609C222.256 45.4245 222.285 45.8047 222.342 46.1016C222.399 46.3932 222.483 46.6484 222.592 46.8672V47H220.319C220.209 46.7708 220.126 46.4844 220.069 46.1406C220.017 45.7917 219.991 45.4427 219.991 45.0938ZM220.288 41.8516L220.303 43.125H219.045C218.748 43.125 218.491 43.1589 218.272 43.2266C218.053 43.2943 217.873 43.3906 217.733 43.5156C217.592 43.6354 217.488 43.776 217.42 43.9375C217.358 44.099 217.327 44.276 217.327 44.4688C217.327 44.6615 217.371 44.8359 217.459 44.9922C217.548 45.1432 217.676 45.263 217.842 45.3516C218.009 45.4349 218.204 45.4766 218.428 45.4766C218.767 45.4766 219.061 45.4089 219.311 45.2734C219.561 45.138 219.754 44.9714 219.889 44.7734C220.03 44.5755 220.103 44.388 220.108 44.2109L220.702 45.1641C220.618 45.3776 220.504 45.599 220.358 45.8281C220.217 46.0573 220.038 46.2734 219.819 46.4766C219.6 46.6745 219.337 46.8385 219.03 46.9688C218.722 47.0938 218.358 47.1562 217.936 47.1562C217.399 47.1562 216.913 47.0495 216.475 46.8359C216.043 46.6172 215.699 46.3177 215.444 45.9375C215.194 45.5521 215.069 45.1146 215.069 44.625C215.069 44.1823 215.152 43.7891 215.319 43.4453C215.485 43.1016 215.73 42.8125 216.053 42.5781C216.381 42.3385 216.79 42.1589 217.28 42.0391C217.769 41.9141 218.337 41.8516 218.983 41.8516H220.288ZM227.173 46.0469L229.416 38.5469H231.83L228.431 48.2734C228.358 48.487 228.259 48.7161 228.134 48.9609C228.015 49.2057 227.851 49.4375 227.642 49.6562C227.439 49.8802 227.181 50.0625 226.869 50.2031C226.561 50.3438 226.184 50.4141 225.736 50.4141C225.522 50.4141 225.348 50.401 225.212 50.375C225.077 50.349 224.916 50.3125 224.728 50.2656V48.6172C224.785 48.6172 224.845 48.6172 224.908 48.6172C224.97 48.6224 225.03 48.625 225.087 48.625C225.384 48.625 225.627 48.5911 225.814 48.5234C226.002 48.4557 226.153 48.3516 226.267 48.2109C226.382 48.0755 226.473 47.8984 226.541 47.6797L227.173 46.0469ZM226.236 38.5469L228.072 44.6719L228.392 47.0547L226.861 47.2188L223.822 38.5469H226.236Z" fill="white"/>
<path d="M64.648 72.912H61.064V70.8H70.824V72.912H67.24V82H64.648V72.912ZM77.2746 73.264C78.3413 73.264 79.2 73.584 79.8506 74.224C80.512 74.864 80.8426 75.8133 80.8426 77.072V82H78.3466V77.456C78.3466 76.7733 78.1973 76.2667 77.8986 75.936C77.6 75.5947 77.168 75.424 76.6026 75.424C75.9733 75.424 75.472 75.6213 75.0986 76.016C74.7253 76.4 74.5386 76.976 74.5386 77.744V82H72.0426V70.128H74.5386V74.288C74.8693 73.9573 75.2693 73.7067 75.7386 73.536C76.208 73.3547 76.72 73.264 77.2746 73.264ZM91.6309 77.728C91.6309 77.76 91.6149 77.984 91.5829 78.4H85.0709C85.1882 78.9333 85.4655 79.3547 85.9029 79.664C86.3402 79.9733 86.8842 80.128 87.5349 80.128C87.9829 80.128 88.3775 80.064 88.7189 79.936C89.0709 79.7973 89.3962 79.584 89.6949 79.296L91.0229 80.736C90.2122 81.664 89.0282 82.128 87.4709 82.128C86.5002 82.128 85.6415 81.9413 84.8949 81.568C84.1482 81.184 83.5722 80.656 83.1669 79.984C82.7615 79.312 82.5589 78.5493 82.5589 77.696C82.5589 76.8533 82.7562 76.096 83.1509 75.424C83.5562 74.7413 84.1055 74.2133 84.7989 73.84C85.5029 73.456 86.2869 73.264 87.1509 73.264C87.9935 73.264 88.7562 73.4453 89.4389 73.808C90.1215 74.1707 90.6549 74.6933 91.0389 75.376C91.4335 76.048 91.6309 76.832 91.6309 77.728ZM87.1669 75.152C86.6015 75.152 86.1269 75.312 85.7429 75.632C85.3589 75.952 85.1242 76.3893 85.0389 76.944H89.2789C89.1935 76.4 88.9589 75.968 88.5749 75.648C88.1909 75.3173 87.7215 75.152 87.1669 75.152ZM102.848 70.8C103.84 70.8 104.699 70.9653 105.424 71.296C106.16 71.6267 106.725 72.096 107.12 72.704C107.515 73.312 107.712 74.032 107.712 74.864C107.712 75.6853 107.515 76.4053 107.12 77.024C106.725 77.632 106.16 78.1013 105.424 78.432C104.699 78.752 103.84 78.912 102.848 78.912H100.592V82H97.9999V70.8H102.848ZM102.704 76.8C103.483 76.8 104.075 76.6347 104.48 76.304C104.885 75.9627 105.088 75.4827 105.088 74.864C105.088 74.2347 104.885 73.7547 104.48 73.424C104.075 73.0827 103.483 72.912 102.704 72.912H100.592V76.8H102.704ZM111.77 74.528C112.069 74.112 112.469 73.7973 112.97 73.584C113.482 73.3707 114.069 73.264 114.73 73.264V75.568C114.453 75.5467 114.266 75.536 114.17 75.536C113.456 75.536 112.896 75.7387 112.49 76.144C112.085 76.5387 111.882 77.136 111.882 77.936V82H109.386V73.392H111.77V74.528ZM119.64 73.264C120.973 73.264 121.997 73.584 122.712 74.224C123.426 74.8533 123.784 75.808 123.784 77.088V82H121.448V80.928C120.978 81.728 120.104 82.128 118.824 82.128C118.162 82.128 117.586 82.016 117.096 81.792C116.616 81.568 116.248 81.2587 115.992 80.864C115.736 80.4693 115.608 80.0213 115.608 79.52C115.608 78.72 115.906 78.0907 116.504 77.632C117.112 77.1733 118.045 76.944 119.304 76.944H121.288C121.288 76.4 121.122 75.984 120.792 75.696C120.461 75.3973 119.965 75.248 119.304 75.248C118.845 75.248 118.392 75.3227 117.944 75.472C117.506 75.6107 117.133 75.8027 116.824 76.048L115.928 74.304C116.397 73.9733 116.957 73.7173 117.608 73.536C118.269 73.3547 118.946 73.264 119.64 73.264ZM119.448 80.448C119.874 80.448 120.253 80.352 120.584 80.16C120.914 79.9573 121.149 79.664 121.288 79.28V78.4H119.576C118.552 78.4 118.04 78.736 118.04 79.408C118.04 79.728 118.162 79.984 118.408 80.176C118.664 80.3573 119.01 80.448 119.448 80.448ZM135.016 73.392V80.56C135.016 82.1387 134.606 83.312 133.784 84.08C132.963 84.848 131.763 85.232 130.184 85.232C129.352 85.232 128.563 85.1307 127.816 84.928C127.07 84.7253 126.451 84.432 125.96 84.048L126.952 82.256C127.315 82.5547 127.774 82.7893 128.328 82.96C128.883 83.1413 129.438 83.232 129.992 83.232C130.856 83.232 131.491 83.0347 131.896 82.64C132.312 82.256 132.52 81.6693 132.52 80.88V80.512C131.87 81.2267 130.963 81.584 129.8 81.584C129.011 81.584 128.286 81.4133 127.624 81.072C126.974 80.72 126.456 80.2293 126.072 79.6C125.688 78.9707 125.496 78.2453 125.496 77.424C125.496 76.6027 125.688 75.8773 126.072 75.248C126.456 74.6187 126.974 74.1333 127.624 73.792C128.286 73.44 129.011 73.264 129.8 73.264C131.048 73.264 131.998 73.6747 132.648 74.496V73.392H135.016ZM130.296 79.536C130.958 79.536 131.496 79.344 131.912 78.96C132.339 78.5653 132.552 78.0533 132.552 77.424C132.552 76.7947 132.339 76.288 131.912 75.904C131.496 75.5093 130.958 75.312 130.296 75.312C129.635 75.312 129.091 75.5093 128.664 75.904C128.238 76.288 128.024 76.7947 128.024 77.424C128.024 78.0533 128.238 78.5653 128.664 78.96C129.091 79.344 129.635 79.536 130.296 79.536ZM148.364 73.264C149.441 73.264 150.294 73.584 150.924 74.224C151.564 74.8533 151.884 75.8027 151.884 77.072V82H149.388V77.456C149.388 76.7733 149.244 76.2667 148.956 75.936C148.678 75.5947 148.278 75.424 147.756 75.424C147.169 75.424 146.705 75.616 146.364 76C146.022 76.3733 145.852 76.9333 145.852 77.68V82H143.356V77.456C143.356 76.1013 142.812 75.424 141.724 75.424C141.148 75.424 140.689 75.616 140.348 76C140.006 76.3733 139.836 76.9333 139.836 77.68V82H137.34V73.392H139.724V74.384C140.044 74.0213 140.433 73.744 140.891 73.552C141.361 73.36 141.873 73.264 142.428 73.264C143.036 73.264 143.585 73.3867 144.076 73.632C144.566 73.8667 144.961 74.2133 145.26 74.672C145.612 74.224 146.054 73.8773 146.588 73.632C147.132 73.3867 147.724 73.264 148.364 73.264ZM157.593 73.264C158.926 73.264 159.95 73.584 160.665 74.224C161.379 74.8533 161.737 75.808 161.737 77.088V82H159.401V80.928C158.931 81.728 158.057 82.128 156.777 82.128C156.115 82.128 155.539 82.016 155.049 81.792C154.569 81.568 154.201 81.2587 153.945 80.864C153.689 80.4693 153.561 80.0213 153.561 79.52C153.561 78.72 153.859 78.0907 154.457 77.632C155.065 77.1733 155.998 76.944 157.257 76.944H159.241C159.241 76.4 159.075 75.984 158.745 75.696C158.414 75.3973 157.918 75.248 157.257 75.248C156.798 75.248 156.345 75.3227 155.897 75.472C155.459 75.6107 155.086 75.8027 154.777 76.048L153.881 74.304C154.35 73.9733 154.91 73.7173 155.561 73.536C156.222 73.3547 156.899 73.264 157.593 73.264ZM157.401 80.448C157.827 80.448 158.206 80.352 158.537 80.16C158.867 79.9573 159.102 79.664 159.241 79.28V78.4H157.529C156.505 78.4 155.993 78.736 155.993 79.408C155.993 79.728 156.115 79.984 156.361 80.176C156.617 80.3573 156.963 80.448 157.401 80.448ZM169.548 81.584C169.302 81.7653 168.998 81.904 168.636 82C168.284 82.0853 167.91 82.128 167.516 82.128C166.492 82.128 165.697 81.8667 165.132 81.344C164.577 80.8213 164.3 80.0533 164.3 79.04V75.504H162.972V73.584H164.3V71.488H166.796V73.584H168.94V75.504H166.796V79.008C166.796 79.3707 166.886 79.6533 167.068 79.856C167.26 80.048 167.526 80.144 167.868 80.144C168.262 80.144 168.598 80.0373 168.876 79.824L169.548 81.584ZM170.949 73.392H173.445V82H170.949V73.392ZM172.197 72.192C171.738 72.192 171.365 72.0587 171.077 71.792C170.789 71.5253 170.645 71.1947 170.645 70.8C170.645 70.4053 170.789 70.0747 171.077 69.808C171.365 69.5413 171.738 69.408 172.197 69.408C172.656 69.408 173.029 69.536 173.317 69.792C173.605 70.048 173.749 70.368 173.749 70.752C173.749 71.168 173.605 71.5147 173.317 71.792C173.029 72.0587 172.656 72.192 172.197 72.192ZM179.921 82.128C179.004 82.128 178.177 81.9413 177.441 81.568C176.716 81.184 176.145 80.656 175.729 79.984C175.324 79.312 175.121 78.5493 175.121 77.696C175.121 76.8427 175.324 76.08 175.729 75.408C176.145 74.736 176.716 74.2133 177.441 73.84C178.177 73.456 179.004 73.264 179.921 73.264C180.828 73.264 181.617 73.456 182.289 73.84C182.972 74.2133 183.468 74.752 183.777 75.456L181.841 76.496C181.393 75.7067 180.748 75.312 179.905 75.312C179.255 75.312 178.716 75.5253 178.289 75.952C177.863 76.3787 177.649 76.96 177.649 77.696C177.649 78.432 177.863 79.0133 178.289 79.44C178.716 79.8667 179.255 80.08 179.905 80.08C180.759 80.08 181.404 79.6853 181.841 78.896L183.777 79.952C183.468 80.6347 182.972 81.168 182.289 81.552C181.617 81.936 180.828 82.128 179.921 82.128ZM194.77 70.8C195.762 70.8 196.62 70.9653 197.346 71.296C198.082 71.6267 198.647 72.096 199.042 72.704C199.436 73.312 199.634 74.032 199.634 74.864C199.634 75.6853 199.436 76.4053 199.042 77.024C198.647 77.632 198.082 78.1013 197.346 78.432C196.62 78.752 195.762 78.912 194.77 78.912H192.514V82H189.922V70.8H194.77ZM194.626 76.8C195.404 76.8 195.996 76.6347 196.402 76.304C196.807 75.9627 197.01 75.4827 197.01 74.864C197.01 74.2347 196.807 73.7547 196.402 73.424C195.996 73.0827 195.404 72.912 194.626 72.912H192.514V76.8H194.626ZM203.692 74.528C203.991 74.112 204.391 73.7973 204.892 73.584C205.404 73.3707 205.991 73.264 206.652 73.264V75.568C206.375 75.5467 206.188 75.536 206.092 75.536C205.378 75.536 204.818 75.7387 204.412 76.144C204.007 76.5387 203.804 77.136 203.804 77.936V82H201.308V73.392H203.692V74.528ZM212.154 82.128C211.248 82.128 210.432 81.9413 209.706 81.568C208.992 81.184 208.432 80.656 208.026 79.984C207.621 79.312 207.418 78.5493 207.418 77.696C207.418 76.8427 207.621 76.08 208.026 75.408C208.432 74.736 208.992 74.2133 209.706 73.84C210.432 73.456 211.248 73.264 212.154 73.264C213.061 73.264 213.872 73.456 214.586 73.84C215.301 74.2133 215.861 74.736 216.266 75.408C216.672 76.08 216.874 76.8427 216.874 77.696C216.874 78.5493 216.672 79.312 216.266 79.984C215.861 80.656 215.301 81.184 214.586 81.568C213.872 81.9413 213.061 82.128 212.154 82.128ZM212.154 80.08C212.794 80.08 213.317 79.8667 213.722 79.44C214.138 79.0027 214.346 78.4213 214.346 77.696C214.346 76.9707 214.138 76.3947 213.722 75.968C213.317 75.5307 212.794 75.312 212.154 75.312C211.514 75.312 210.986 75.5307 210.57 75.968C210.154 76.3947 209.946 76.9707 209.946 77.696C209.946 78.4213 210.154 79.0027 210.57 79.44C210.986 79.8667 211.514 80.08 212.154 80.08ZM227.423 73.392V80.56C227.423 82.1387 227.012 83.312 226.191 84.08C225.369 84.848 224.169 85.232 222.591 85.232C221.759 85.232 220.969 85.1307 220.223 84.928C219.476 84.7253 218.857 84.432 218.367 84.048L219.359 82.256C219.721 82.5547 220.18 82.7893 220.735 82.96C221.289 83.1413 221.844 83.232 222.399 83.232C223.263 83.232 223.897 83.0347 224.303 82.64C224.719 82.256 224.927 81.6693 224.927 80.88V80.512C224.276 81.2267 223.369 81.584 222.207 81.584C221.417 81.584 220.692 81.4133 220.031 81.072C219.38 80.72 218.863 80.2293 218.479 79.6C218.095 78.9707 217.903 78.2453 217.903 77.424C217.903 76.6027 218.095 75.8773 218.479 75.248C218.863 74.6187 219.38 74.1333 220.031 73.792C220.692 73.44 221.417 73.264 222.207 73.264C223.455 73.264 224.404 73.6747 225.055 74.496V73.392H227.423ZM222.703 79.536C223.364 79.536 223.903 79.344 224.319 78.96C224.745 78.5653 224.959 78.0533 224.959 77.424C224.959 76.7947 224.745 76.288 224.319 75.904C223.903 75.5093 223.364 75.312 222.703 75.312C222.041 75.312 221.497 75.5093 221.071 75.904C220.644 76.288 220.431 76.7947 220.431 77.424C220.431 78.0533 220.644 78.5653 221.071 78.96C221.497 79.344 222.041 79.536 222.703 79.536ZM232.13 74.528C232.428 74.112 232.828 73.7973 233.33 73.584C233.842 73.3707 234.428 73.264 235.09 73.264V75.568C234.812 75.5467 234.626 75.536 234.53 75.536C233.815 75.536 233.255 75.7387 232.85 76.144C232.444 76.5387 232.242 77.136 232.242 77.936V82H229.746V73.392H232.13V74.528ZM239.999 73.264C241.332 73.264 242.356 73.584 243.071 74.224C243.786 74.8533 244.143 75.808 244.143 77.088V82H241.807V80.928C241.338 81.728 240.463 82.128 239.183 82.128C238.522 82.128 237.946 82.016 237.455 81.792C236.975 81.568 236.607 81.2587 236.351 80.864C236.095 80.4693 235.967 80.0213 235.967 79.52C235.967 78.72 236.266 78.0907 236.863 77.632C237.471 77.1733 238.404 76.944 239.663 76.944H241.647C241.647 76.4 241.482 75.984 241.151 75.696C240.82 75.3973 240.324 75.248 239.663 75.248C239.204 75.248 238.751 75.3227 238.303 75.472C237.866 75.6107 237.492 75.8027 237.183 76.048L236.287 74.304C236.756 73.9733 237.316 73.7173 237.967 73.536C238.628 73.3547 239.306 73.264 239.999 73.264ZM239.807 80.448C240.234 80.448 240.612 80.352 240.943 80.16C241.274 79.9573 241.508 79.664 241.647 79.28V78.4H239.935C238.911 78.4 238.399 78.736 238.399 79.408C238.399 79.728 238.522 79.984 238.767 80.176C239.023 80.3573 239.37 80.448 239.807 80.448ZM257.426 73.264C258.503 73.264 259.357 73.584 259.986 74.224C260.626 74.8533 260.946 75.8027 260.946 77.072V82H258.45V77.456C258.45 76.7733 258.306 76.2667 258.018 75.936C257.741 75.5947 257.341 75.424 256.818 75.424C256.231 75.424 255.767 75.616 255.426 76C255.085 76.3733 254.914 76.9333 254.914 77.68V82H252.418V77.456C252.418 76.1013 251.874 75.424 250.786 75.424C250.21 75.424 249.751 75.616 249.41 76C249.069 76.3733 248.898 76.9333 248.898 77.68V82H246.402V73.392H248.786V74.384C249.106 74.0213 249.495 73.744 249.954 73.552C250.423 73.36 250.935 73.264 251.49 73.264C252.098 73.264 252.647 73.3867 253.138 73.632C253.629 73.8667 254.023 74.2133 254.322 74.672C254.674 74.224 255.117 73.8773 255.65 73.632C256.194 73.3867 256.786 73.264 257.426 73.264ZM274.207 73.264C275.285 73.264 276.138 73.584 276.767 74.224C277.407 74.8533 277.727 75.8027 277.727 77.072V82H275.231V77.456C275.231 76.7733 275.087 76.2667 274.799 75.936C274.522 75.5947 274.122 75.424 273.599 75.424C273.013 75.424 272.549 75.616 272.207 76C271.866 76.3733 271.695 76.9333 271.695 77.68V82H269.199V77.456C269.199 76.1013 268.655 75.424 267.567 75.424C266.991 75.424 266.533 75.616 266.191 76C265.85 76.3733 265.679 76.9333 265.679 77.68V82H263.183V73.392H265.567V74.384C265.887 74.0213 266.277 73.744 266.735 73.552C267.205 73.36 267.717 73.264 268.271 73.264C268.879 73.264 269.429 73.3867 269.919 73.632C270.41 73.8667 270.805 74.2133 271.103 74.672C271.455 74.224 271.898 73.8773 272.431 73.632C272.975 73.3867 273.567 73.264 274.207 73.264ZM288.49 77.728C288.49 77.76 288.474 77.984 288.442 78.4H281.93C282.048 78.9333 282.325 79.3547 282.762 79.664C283.2 79.9733 283.744 80.128 284.394 80.128C284.842 80.128 285.237 80.064 285.578 79.936C285.93 79.7973 286.256 79.584 286.554 79.296L287.882 80.736C287.072 81.664 285.888 82.128 284.33 82.128C283.36 82.128 282.501 81.9413 281.754 81.568C281.008 81.184 280.432 80.656 280.026 79.984C279.621 79.312 279.418 78.5493 279.418 77.696C279.418 76.8533 279.616 76.096 280.01 75.424C280.416 74.7413 280.965 74.2133 281.658 73.84C282.362 73.456 283.146 73.264 284.01 73.264C284.853 73.264 285.616 73.4453 286.298 73.808C286.981 74.1707 287.514 74.6933 287.898 75.376C288.293 76.048 288.49 76.832 288.49 77.728ZM284.026 75.152C283.461 75.152 282.986 75.312 282.602 75.632C282.218 75.952 281.984 76.3893 281.898 76.944H286.138C286.053 76.4 285.818 75.968 285.434 75.648C285.05 75.3173 284.581 75.152 284.026 75.152ZM292.536 74.528C292.835 74.112 293.235 73.7973 293.736 73.584C294.248 73.3707 294.835 73.264 295.496 73.264V75.568C295.219 75.5467 295.032 75.536 294.936 75.536C294.221 75.536 293.661 75.7387 293.256 76.144C292.851 76.5387 292.648 77.136 292.648 77.936V82H290.152V73.392H292.536V74.528Z" fill="white"/>
<path d="M67.984 101.35H64.409L63.727 103H61.901L65.333 95.3H67.093L70.536 103H68.666L67.984 101.35ZM67.423 99.997L66.202 97.049L64.981 99.997H67.423ZM74.8109 96.994C75.5442 96.994 76.1345 97.214 76.5819 97.654C77.0365 98.094 77.2639 98.7467 77.2639 99.612V103H75.5479V99.876C75.5479 99.4067 75.4452 99.0583 75.2399 98.831C75.0345 98.5963 74.7375 98.479 74.3489 98.479C73.9162 98.479 73.5715 98.6147 73.3149 98.886C73.0582 99.15 72.9299 99.546 72.9299 100.074V103H71.2139V97.082H72.8529V97.775C73.0802 97.5257 73.3625 97.335 73.6999 97.203C74.0372 97.0637 74.4075 96.994 74.8109 96.994ZM84.9118 94.838V103H83.2728V102.318C82.8475 102.831 82.2315 103.088 81.4248 103.088C80.8675 103.088 80.3615 102.963 79.9068 102.714C79.4595 102.465 79.1075 102.109 78.8508 101.647C78.5941 101.185 78.4658 100.65 78.4658 100.041C78.4658 99.4323 78.5941 98.897 78.8508 98.435C79.1075 97.973 79.4595 97.6173 79.9068 97.368C80.3615 97.1187 80.8675 96.994 81.4248 96.994C82.1801 96.994 82.7705 97.2323 83.1958 97.709V94.838H84.9118ZM81.7218 101.68C82.1545 101.68 82.5138 101.533 82.7998 101.24C83.0858 100.939 83.2288 100.54 83.2288 100.041C83.2288 99.5423 83.0858 99.1463 82.7998 98.853C82.5138 98.5523 82.1545 98.402 81.7218 98.402C81.2818 98.402 80.9188 98.5523 80.6328 98.853C80.3468 99.1463 80.2038 99.5423 80.2038 100.041C80.2038 100.54 80.3468 100.939 80.6328 101.24C80.9188 101.533 81.2818 101.68 81.7218 101.68ZM88.139 97.863C88.3443 97.577 88.6193 97.3607 88.964 97.214C89.316 97.0673 89.7193 96.994 90.174 96.994V98.578C89.9833 98.5633 89.855 98.556 89.789 98.556C89.2977 98.556 88.9127 98.6953 88.634 98.974C88.3553 99.2453 88.216 99.656 88.216 100.206V103H86.5V97.082H88.139V97.863ZM93.9566 103.088C93.3333 103.088 92.7723 102.96 92.2736 102.703C91.7823 102.439 91.3973 102.076 91.1186 101.614C90.84 101.152 90.7006 100.628 90.7006 100.041C90.7006 99.4543 90.84 98.93 91.1186 98.468C91.3973 98.006 91.7823 97.6467 92.2736 97.39C92.7723 97.126 93.3333 96.994 93.9566 96.994C94.58 96.994 95.1373 97.126 95.6286 97.39C96.12 97.6467 96.505 98.006 96.7836 98.468C97.0623 98.93 97.2016 99.4543 97.2016 100.041C97.2016 100.628 97.0623 101.152 96.7836 101.614C96.505 102.076 96.12 102.439 95.6286 102.703C95.1373 102.96 94.58 103.088 93.9566 103.088ZM93.9566 101.68C94.3966 101.68 94.756 101.533 95.0346 101.24C95.3206 100.939 95.4636 100.54 95.4636 100.041C95.4636 99.5423 95.3206 99.1463 95.0346 98.853C94.756 98.5523 94.3966 98.402 93.9566 98.402C93.5166 98.402 93.1536 98.5523 92.8676 98.853C92.5816 99.1463 92.4386 99.5423 92.4386 100.041C92.4386 100.54 92.5816 100.939 92.8676 101.24C93.1536 101.533 93.5166 101.68 93.9566 101.68ZM98.3486 94.838H100.065V103H98.3486V94.838ZM101.657 97.082H103.373V103H101.657V97.082ZM102.515 96.257C102.2 96.257 101.943 96.1653 101.745 95.982C101.547 95.7987 101.448 95.5713 101.448 95.3C101.448 95.0287 101.547 94.8013 101.745 94.618C101.943 94.4347 102.2 94.343 102.515 94.343C102.831 94.343 103.087 94.431 103.285 94.607C103.483 94.783 103.582 95.003 103.582 95.267C103.582 95.553 103.483 95.7913 103.285 95.982C103.087 96.1653 102.831 96.257 102.515 96.257ZM108.563 96.994C109.296 96.994 109.886 97.214 110.334 97.654C110.788 98.094 111.016 98.7467 111.016 99.612V103H109.3V99.876C109.3 99.4067 109.197 99.0583 108.992 98.831C108.786 98.5963 108.489 98.479 108.101 98.479C107.668 98.479 107.323 98.6147 107.067 98.886C106.81 99.15 106.682 99.546 106.682 100.074V103H104.966V97.082H106.605V97.775C106.832 97.5257 107.114 97.335 107.452 97.203C107.789 97.0637 108.159 96.994 108.563 96.994ZM118.433 100.063C118.433 100.085 118.422 100.239 118.4 100.525H113.923C114.003 100.892 114.194 101.181 114.495 101.394C114.795 101.607 115.169 101.713 115.617 101.713C115.925 101.713 116.196 101.669 116.431 101.581C116.673 101.486 116.896 101.339 117.102 101.141L118.015 102.131C117.457 102.769 116.643 103.088 115.573 103.088C114.905 103.088 114.315 102.96 113.802 102.703C113.288 102.439 112.892 102.076 112.614 101.614C112.335 101.152 112.196 100.628 112.196 100.041C112.196 99.4617 112.331 98.941 112.603 98.479C112.881 98.0097 113.259 97.6467 113.736 97.39C114.22 97.126 114.759 96.994 115.353 96.994C115.932 96.994 116.456 97.1187 116.926 97.368C117.395 97.6173 117.762 97.9767 118.026 98.446C118.297 98.908 118.433 99.447 118.433 100.063ZM115.364 98.292C114.975 98.292 114.649 98.402 114.385 98.622C114.121 98.842 113.959 99.1427 113.901 99.524H116.816C116.757 99.15 116.596 98.853 116.332 98.633C116.068 98.4057 115.745 98.292 115.364 98.292ZM126.54 103.132C125.741 103.132 125.019 102.96 124.373 102.615C123.735 102.27 123.233 101.797 122.866 101.196C122.507 100.587 122.327 99.9053 122.327 99.15C122.327 98.3947 122.507 97.7163 122.866 97.115C123.233 96.5063 123.735 96.0297 124.373 95.685C125.019 95.3403 125.741 95.168 126.54 95.168C127.34 95.168 128.058 95.3403 128.696 95.685C129.334 96.0297 129.837 96.5063 130.203 97.115C130.57 97.7163 130.753 98.3947 130.753 99.15C130.753 99.9053 130.57 100.587 130.203 101.196C129.837 101.797 129.334 102.27 128.696 102.615C128.058 102.96 127.34 103.132 126.54 103.132ZM126.54 101.614C126.995 101.614 127.406 101.511 127.772 101.306C128.139 101.093 128.425 100.8 128.63 100.426C128.843 100.052 128.949 99.6267 128.949 99.15C128.949 98.6733 128.843 98.248 128.63 97.874C128.425 97.5 128.139 97.2103 127.772 97.005C127.406 96.7923 126.995 96.686 126.54 96.686C126.086 96.686 125.675 96.7923 125.308 97.005C124.942 97.2103 124.652 97.5 124.439 97.874C124.234 98.248 124.131 98.6733 124.131 99.15C124.131 99.6267 124.234 100.052 124.439 100.426C124.652 100.8 124.942 101.093 125.308 101.306C125.675 101.511 126.086 101.614 126.54 101.614ZM134.832 103.088C134.201 103.088 133.633 102.96 133.127 102.703C132.628 102.439 132.236 102.076 131.95 101.614C131.671 101.152 131.532 100.628 131.532 100.041C131.532 99.4543 131.671 98.93 131.95 98.468C132.236 98.006 132.628 97.6467 133.127 97.39C133.633 97.126 134.201 96.994 134.832 96.994C135.455 96.994 135.998 97.126 136.46 97.39C136.929 97.6467 137.27 98.017 137.483 98.501L136.152 99.216C135.844 98.6733 135.4 98.402 134.821 98.402C134.373 98.402 134.003 98.5487 133.71 98.842C133.416 99.1353 133.27 99.535 133.27 100.041C133.27 100.547 133.416 100.947 133.71 101.24C134.003 101.533 134.373 101.68 134.821 101.68C135.407 101.68 135.851 101.409 136.152 100.866L137.483 101.592C137.27 102.061 136.929 102.428 136.46 102.692C135.998 102.956 135.455 103.088 134.832 103.088ZM142.374 102.714C142.205 102.839 141.996 102.934 141.747 103C141.505 103.059 141.248 103.088 140.977 103.088C140.273 103.088 139.726 102.908 139.338 102.549C138.956 102.19 138.766 101.662 138.766 100.965V98.534H137.853V97.214H138.766V95.773H140.482V97.214H141.956V98.534H140.482V100.943C140.482 101.192 140.544 101.387 140.669 101.526C140.801 101.658 140.984 101.724 141.219 101.724C141.49 101.724 141.721 101.651 141.912 101.504L142.374 102.714ZM145.97 103.088C145.347 103.088 144.786 102.96 144.287 102.703C143.796 102.439 143.411 102.076 143.132 101.614C142.854 101.152 142.714 100.628 142.714 100.041C142.714 99.4543 142.854 98.93 143.132 98.468C143.411 98.006 143.796 97.6467 144.287 97.39C144.786 97.126 145.347 96.994 145.97 96.994C146.594 96.994 147.151 97.126 147.642 97.39C148.134 97.6467 148.519 98.006 148.797 98.468C149.076 98.93 149.215 99.4543 149.215 100.041C149.215 100.628 149.076 101.152 148.797 101.614C148.519 102.076 148.134 102.439 147.642 102.703C147.151 102.96 146.594 103.088 145.97 103.088ZM145.97 101.68C146.41 101.68 146.77 101.533 147.048 101.24C147.334 100.939 147.477 100.54 147.477 100.041C147.477 99.5423 147.334 99.1463 147.048 98.853C146.77 98.5523 146.41 98.402 145.97 98.402C145.53 98.402 145.167 98.5523 144.881 98.853C144.595 99.1463 144.452 99.5423 144.452 100.041C144.452 100.54 144.595 100.939 144.881 101.24C145.167 101.533 145.53 101.68 145.97 101.68ZM153.86 96.994C154.41 96.994 154.909 97.1223 155.356 97.379C155.811 97.6283 156.167 97.984 156.423 98.446C156.68 98.9007 156.808 99.4323 156.808 100.041C156.808 100.65 156.68 101.185 156.423 101.647C156.167 102.102 155.811 102.457 155.356 102.714C154.909 102.963 154.41 103.088 153.86 103.088C153.105 103.088 152.511 102.85 152.078 102.373V105.134H150.362V97.082H152.001V97.764C152.427 97.2507 153.046 96.994 153.86 96.994ZM153.563 101.68C154.003 101.68 154.363 101.533 154.641 101.24C154.927 100.939 155.07 100.54 155.07 100.041C155.07 99.5423 154.927 99.1463 154.641 98.853C154.363 98.5523 154.003 98.402 153.563 98.402C153.123 98.402 152.76 98.5523 152.474 98.853C152.196 99.1463 152.056 99.5423 152.056 100.041C152.056 100.54 152.196 100.939 152.474 101.24C152.76 101.533 153.123 101.68 153.563 101.68ZM163.919 97.082V103H162.291V102.296C162.064 102.553 161.792 102.751 161.477 102.89C161.162 103.022 160.821 103.088 160.454 103.088C159.677 103.088 159.061 102.864 158.606 102.417C158.151 101.97 157.924 101.306 157.924 100.426V97.082H159.64V100.173C159.64 101.126 160.04 101.603 160.839 101.603C161.25 101.603 161.58 101.471 161.829 101.207C162.078 100.936 162.203 100.536 162.203 100.008V97.082H163.919ZM167.5 103.088C167.008 103.088 166.528 103.029 166.059 102.912C165.589 102.787 165.215 102.633 164.937 102.45L165.509 101.218C165.773 101.387 166.092 101.526 166.466 101.636C166.84 101.739 167.206 101.79 167.566 101.79C168.292 101.79 168.655 101.61 168.655 101.251C168.655 101.082 168.556 100.961 168.358 100.888C168.16 100.815 167.855 100.752 167.445 100.701C166.961 100.628 166.561 100.543 166.246 100.448C165.93 100.353 165.655 100.184 165.421 99.942C165.193 99.7 165.08 99.3553 165.08 98.908C165.08 98.534 165.186 98.204 165.399 97.918C165.619 97.6247 165.934 97.3973 166.345 97.236C166.763 97.0747 167.254 96.994 167.819 96.994C168.237 96.994 168.651 97.0417 169.062 97.137C169.48 97.225 169.824 97.3497 170.096 97.511L169.524 98.732C169.003 98.4387 168.435 98.292 167.819 98.292C167.452 98.292 167.177 98.3433 166.994 98.446C166.81 98.5487 166.719 98.6807 166.719 98.842C166.719 99.0253 166.818 99.1537 167.016 99.227C167.214 99.3003 167.529 99.37 167.962 99.436C168.446 99.5167 168.842 99.6047 169.15 99.7C169.458 99.788 169.725 99.953 169.953 100.195C170.18 100.437 170.294 100.774 170.294 101.207C170.294 101.574 170.184 101.9 169.964 102.186C169.744 102.472 169.421 102.696 168.996 102.857C168.578 103.011 168.079 103.088 167.5 103.088Z" fill="white" fill-opacity="0.65"/>
<defs>
<filter id="filter0_d_272_3" x="0" y="0" width="320" height="146" filterUnits="userSpaceOnUse" color-interpolation-filters="sRGB">
<feFlood flood-opacity="0" result="BackgroundImageFix"/>
<feColorMatrix in="SourceAlpha" type="matrix" values="0 0 0 0 0 0 0 0 0 0 0 0 0 0 0 0 0 0 127 0" result="hardAlpha"/>
<feOffset/>
<feGaussianBlur stdDeviation="3.5"/>
<feComposite in2="hardAlpha" operator="out"/>
<feColorMatrix type="matrix" values="0 0 0 0 0 0 0 0 0 0 0 0 0 0 0 0 0 0 0.25 0"/>
<feBlend mode="normal" in2="BackgroundImageFix" result="effect1_dropShadow_272_3"/>
<feBlend mode="normal" in="SourceGraphic" in2="effect1_dropShadow_272_3" result="shape"/>
</filter>
</defs>
</svg>
