<svg width="251" height="79" viewBox="0 0 251 79" fill="none" xmlns="http://www.w3.org/2000/svg">
<line x1="1.5" y1="1.5" x2="1.5" y2="25.5" stroke="black" stroke-width="3" stroke-linecap="round"/>
<path d="M32.5625 16.2422V18H24.7812V16.5L28.4609 12.5547C28.8307 12.1432 29.1224 11.7812 29.3359 11.4688C29.5495 11.151 29.7031 10.8672 29.7969 10.6172C29.8958 10.362 29.9453 10.1198 29.9453 9.89062C29.9453 9.54688 29.888 9.2526 29.7734 9.00781C29.6589 8.75781 29.4896 8.5651 29.2656 8.42969C29.0469 8.29427 28.776 8.22656 28.4531 8.22656C28.1094 8.22656 27.8125 8.3099 27.5625 8.47656C27.3177 8.64323 27.1302 8.875 27 9.17188C26.875 9.46875 26.8125 9.80469 26.8125 10.1797H24.5547C24.5547 9.5026 24.7161 8.88281 25.0391 8.32031C25.362 7.7526 25.8177 7.30208 26.4062 6.96875C26.9948 6.63021 27.6927 6.46094 28.5 6.46094C29.2969 6.46094 29.9688 6.59115 30.5156 6.85156C31.0677 7.10677 31.4844 7.47656 31.7656 7.96094C32.0521 8.4401 32.1953 9.01302 32.1953 9.67969C32.1953 10.0547 32.1354 10.4219 32.0156 10.7812C31.8958 11.1354 31.724 11.4896 31.5 11.8438C31.2812 12.1927 31.0156 12.5469 30.7031 12.9062C30.3906 13.2656 30.0443 13.638 29.6641 14.0234L27.6875 16.2422H32.5625ZM37.0734 11.3359H38.2766C38.662 11.3359 38.9797 11.2708 39.2297 11.1406C39.4797 11.0052 39.6646 10.8177 39.7844 10.5781C39.9094 10.3333 39.9719 10.0495 39.9719 9.72656C39.9719 9.4349 39.9146 9.17708 39.8 8.95312C39.6906 8.72396 39.5214 8.54688 39.2922 8.42188C39.063 8.29167 38.774 8.22656 38.425 8.22656C38.149 8.22656 37.8938 8.28125 37.6594 8.39062C37.425 8.5 37.2375 8.65365 37.0969 8.85156C36.9563 9.04948 36.8859 9.28906 36.8859 9.57031H34.6281C34.6281 8.94531 34.7948 8.40104 35.1281 7.9375C35.4667 7.47396 35.9198 7.11198 36.4875 6.85156C37.0552 6.59115 37.6802 6.46094 38.3625 6.46094C39.1333 6.46094 39.8078 6.58594 40.3859 6.83594C40.9641 7.08073 41.4146 7.44271 41.7375 7.92188C42.0604 8.40104 42.2219 8.99479 42.2219 9.70312C42.2219 10.0625 42.1385 10.4115 41.9719 10.75C41.8052 11.0833 41.5656 11.3854 41.2531 11.6562C40.9458 11.9219 40.5708 12.1354 40.1281 12.2969C39.6854 12.4531 39.188 12.5312 38.6359 12.5312H37.0734V11.3359ZM37.0734 13.0469V11.8828H38.6359C39.2557 11.8828 39.8 11.9531 40.2688 12.0938C40.7375 12.2344 41.1307 12.4375 41.4484 12.7031C41.7661 12.9635 42.0057 13.2734 42.1672 13.6328C42.3286 13.987 42.4094 14.3802 42.4094 14.8125C42.4094 15.3438 42.3078 15.8177 42.1047 16.2344C41.9016 16.6458 41.6151 16.9948 41.2453 17.2812C40.8807 17.5677 40.4536 17.7865 39.9641 17.9375C39.4745 18.0833 38.9406 18.1562 38.3625 18.1562C37.8833 18.1562 37.412 18.0911 36.9484 17.9609C36.4901 17.8255 36.0734 17.625 35.6984 17.3594C35.3286 17.0885 35.0318 16.75 34.8078 16.3438C34.5891 15.9323 34.4797 15.4453 34.4797 14.8828H36.7375C36.7375 15.1745 36.8104 15.4349 36.9563 15.6641C37.1021 15.8932 37.3026 16.0729 37.5578 16.2031C37.8182 16.3333 38.1073 16.3984 38.425 16.3984C38.7844 16.3984 39.0917 16.3333 39.3469 16.2031C39.6073 16.0677 39.8052 15.8802 39.9406 15.6406C40.0813 15.3958 40.1516 15.112 40.1516 14.7891C40.1516 14.3724 40.076 14.0391 39.925 13.7891C39.774 13.5339 39.5578 13.3464 39.2766 13.2266C38.9953 13.1068 38.662 13.0469 38.2766 13.0469H37.0734ZM49.7203 16.9141C49.7203 16.5807 49.8349 16.3021 50.0641 16.0781C50.2984 15.8542 50.6083 15.7422 50.9937 15.7422C51.3792 15.7422 51.6865 15.8542 51.9156 16.0781C52.15 16.3021 52.2672 16.5807 52.2672 16.9141C52.2672 17.2474 52.15 17.526 51.9156 17.75C51.6865 17.974 51.3792 18.0859 50.9937 18.0859C50.6083 18.0859 50.2984 17.974 50.0641 17.75C49.8349 17.526 49.7203 17.2474 49.7203 16.9141ZM49.7203 10.4688C49.7203 10.1354 49.8349 9.85677 50.0641 9.63281C50.2984 9.40885 50.6083 9.29688 50.9937 9.29688C51.3792 9.29688 51.6865 9.40885 51.9156 9.63281C52.15 9.85677 52.2672 10.1354 52.2672 10.4688C52.2672 10.8021 52.15 11.0807 51.9156 11.3047C51.6865 11.5286 51.3792 11.6406 50.9937 11.6406C50.6083 11.6406 50.2984 11.5286 50.0641 11.3047C49.8349 11.0807 49.7203 10.8021 49.7203 10.4688ZM66.5422 12.8203L64.7453 12.3906L65.3937 6.625H71.7844V8.44531H67.2453L66.9641 10.9688C67.1151 10.8802 67.3443 10.7865 67.6516 10.6875C67.9589 10.5833 68.3026 10.5312 68.6828 10.5312C69.2349 10.5312 69.7245 10.6172 70.1516 10.7891C70.5786 10.9609 70.9406 11.2109 71.2375 11.5391C71.5396 11.8672 71.7687 12.2682 71.925 12.7422C72.0812 13.2161 72.1594 13.7526 72.1594 14.3516C72.1594 14.8568 72.0812 15.3385 71.925 15.7969C71.7687 16.25 71.5318 16.6562 71.2141 17.0156C70.8964 17.3698 70.4979 17.6484 70.0187 17.8516C69.5396 18.0547 68.9719 18.1562 68.3156 18.1562C67.826 18.1562 67.3521 18.0833 66.8937 17.9375C66.4406 17.7917 66.0318 17.5755 65.6672 17.2891C65.3078 17.0026 65.0187 16.6562 64.8 16.25C64.5865 15.8385 64.4745 15.3698 64.4641 14.8438H66.6984C66.7297 15.1667 66.813 15.4453 66.9484 15.6797C67.0891 15.9089 67.274 16.0859 67.5031 16.2109C67.7323 16.3359 68.0005 16.3984 68.3078 16.3984C68.5943 16.3984 68.8391 16.3438 69.0422 16.2344C69.2453 16.125 69.4094 15.974 69.5344 15.7812C69.6594 15.5833 69.7505 15.3542 69.8078 15.0938C69.8703 14.8281 69.9016 14.5417 69.9016 14.2344C69.9016 13.9271 69.8651 13.6484 69.7922 13.3984C69.7193 13.1484 69.6073 12.9323 69.4562 12.75C69.3052 12.5677 69.1125 12.4271 68.8781 12.3281C68.649 12.2292 68.3807 12.1797 68.0734 12.1797C67.6568 12.1797 67.3339 12.2448 67.1047 12.375C66.8807 12.5052 66.6932 12.6536 66.5422 12.8203ZM76.0062 16.2891H76.1547C76.7797 16.2891 77.3161 16.2135 77.7641 16.0625C78.2172 15.9062 78.5896 15.6823 78.8812 15.3906C79.1729 15.099 79.3891 14.7422 79.5297 14.3203C79.6703 13.8932 79.7406 13.4089 79.7406 12.8672V10.7109C79.7406 10.2995 79.699 9.9375 79.6156 9.625C79.5375 9.3125 79.4229 9.05469 79.2719 8.85156C79.126 8.64323 78.9542 8.48698 78.7562 8.38281C78.5635 8.27865 78.35 8.22656 78.1156 8.22656C77.8656 8.22656 77.6443 8.28906 77.4516 8.41406C77.2589 8.53385 77.0948 8.69792 76.9594 8.90625C76.8292 9.11458 76.7276 9.35417 76.6547 9.625C76.587 9.89062 76.5531 10.1693 76.5531 10.4609C76.5531 10.7526 76.587 11.0312 76.6547 11.2969C76.7224 11.5573 76.824 11.7891 76.9594 11.9922C77.0948 12.1901 77.2641 12.349 77.4672 12.4688C77.6703 12.5833 77.9099 12.6406 78.1859 12.6406C78.4516 12.6406 78.6885 12.5911 78.8969 12.4922C79.1104 12.388 79.2901 12.2526 79.4359 12.0859C79.587 11.9193 79.7016 11.7344 79.7797 11.5312C79.863 11.3281 79.9047 11.1224 79.9047 10.9141L80.6469 11.3203C80.6469 11.6849 80.5687 12.0443 80.4125 12.3984C80.2562 12.7526 80.0375 13.0755 79.7562 13.3672C79.4802 13.6536 79.1599 13.8828 78.7953 14.0547C78.4307 14.2266 78.0401 14.3125 77.6234 14.3125C77.0922 14.3125 76.6208 14.2161 76.2094 14.0234C75.7979 13.8255 75.449 13.5547 75.1625 13.2109C74.8812 12.862 74.6677 12.4557 74.5219 11.9922C74.376 11.5286 74.3031 11.026 74.3031 10.4844C74.3031 9.93229 74.3917 9.41406 74.5687 8.92969C74.751 8.44531 75.0089 8.01823 75.3422 7.64844C75.6807 7.27865 76.0844 6.98958 76.5531 6.78125C77.0271 6.56771 77.5531 6.46094 78.1312 6.46094C78.7094 6.46094 79.2354 6.57292 79.7094 6.79688C80.1833 7.02083 80.5896 7.33854 80.9281 7.75C81.2667 8.15625 81.5271 8.64323 81.7094 9.21094C81.8969 9.77865 81.9906 10.4089 81.9906 11.1016V11.8828C81.9906 12.6224 81.9099 13.3099 81.7484 13.9453C81.5922 14.5807 81.3552 15.1562 81.0375 15.6719C80.725 16.1823 80.3344 16.6198 79.8656 16.9844C79.4021 17.349 78.863 17.6276 78.2484 17.8203C77.6339 18.013 76.9464 18.1094 76.1859 18.1094H76.0062V16.2891ZM108.069 12.2344V14H103.655V12.2344H108.069ZM131.159 15.0234C131.159 14.8203 131.128 14.638 131.066 14.4766C131.008 14.3099 130.899 14.1589 130.738 14.0234C130.576 13.8828 130.349 13.7448 130.058 13.6094C129.766 13.474 129.389 13.3333 128.925 13.1875C128.409 13.0208 127.92 12.8333 127.456 12.625C126.998 12.4167 126.592 12.1745 126.238 11.8984C125.889 11.6172 125.613 11.2917 125.409 10.9219C125.211 10.5521 125.113 10.1224 125.113 9.63281C125.113 9.15885 125.217 8.72917 125.425 8.34375C125.633 7.95312 125.925 7.61979 126.3 7.34375C126.675 7.0625 127.118 6.84635 127.628 6.69531C128.144 6.54427 128.709 6.46875 129.323 6.46875C130.162 6.46875 130.894 6.61979 131.519 6.92188C132.144 7.22396 132.628 7.63802 132.972 8.16406C133.321 8.6901 133.495 9.29167 133.495 9.96875H131.167C131.167 9.63542 131.097 9.34375 130.956 9.09375C130.821 8.83854 130.613 8.63802 130.331 8.49219C130.055 8.34635 129.706 8.27344 129.284 8.27344C128.878 8.27344 128.54 8.33594 128.269 8.46094C127.998 8.58073 127.795 8.74479 127.659 8.95312C127.524 9.15625 127.456 9.38542 127.456 9.64062C127.456 9.83333 127.503 10.0078 127.597 10.1641C127.696 10.3203 127.842 10.4661 128.034 10.6016C128.227 10.737 128.464 10.8646 128.745 10.9844C129.027 11.1042 129.352 11.2214 129.722 11.3359C130.342 11.5234 130.886 11.7344 131.355 11.9688C131.829 12.2031 132.224 12.4661 132.542 12.7578C132.86 13.0495 133.099 13.3802 133.261 13.75C133.422 14.1198 133.503 14.5391 133.503 15.0078C133.503 15.5026 133.407 15.9453 133.214 16.3359C133.021 16.7266 132.743 17.0573 132.378 17.3281C132.014 17.599 131.579 17.8047 131.073 17.9453C130.568 18.0859 130.003 18.1562 129.378 18.1562C128.816 18.1562 128.261 18.0833 127.714 17.9375C127.167 17.7865 126.67 17.5599 126.222 17.2578C125.779 16.9557 125.425 16.5703 125.159 16.1016C124.894 15.6328 124.761 15.0781 124.761 14.4375H127.113C127.113 14.7917 127.167 15.0911 127.277 15.3359C127.386 15.5807 127.54 15.7786 127.738 15.9297C127.941 16.0807 128.18 16.1901 128.456 16.2578C128.738 16.3255 129.045 16.3594 129.378 16.3594C129.784 16.3594 130.118 16.3021 130.378 16.1875C130.644 16.0729 130.839 15.9141 130.964 15.7109C131.094 15.5078 131.159 15.2786 131.159 15.0234ZM140.319 16.0938V12.3281C140.319 12.0573 140.274 11.8255 140.186 11.6328C140.097 11.4349 139.959 11.2812 139.772 11.1719C139.59 11.0625 139.353 11.0078 139.061 11.0078C138.811 11.0078 138.595 11.0521 138.412 11.1406C138.23 11.224 138.09 11.3464 137.991 11.5078C137.892 11.6641 137.842 11.849 137.842 12.0625H135.592C135.592 11.7031 135.676 11.362 135.842 11.0391C136.009 10.7161 136.251 10.4323 136.569 10.1875C136.886 9.9375 137.264 9.74219 137.702 9.60156C138.144 9.46094 138.639 9.39062 139.186 9.39062C139.842 9.39062 140.426 9.5 140.936 9.71875C141.446 9.9375 141.847 10.2656 142.139 10.7031C142.436 11.1406 142.584 11.6875 142.584 12.3438V15.9609C142.584 16.4245 142.613 16.8047 142.67 17.1016C142.728 17.3932 142.811 17.6484 142.92 17.8672V18H140.647C140.537 17.7708 140.454 17.4844 140.397 17.1406C140.345 16.7917 140.319 16.4427 140.319 16.0938ZM140.616 12.8516L140.631 14.125H139.373C139.077 14.125 138.819 14.1589 138.6 14.2266C138.381 14.2943 138.202 14.3906 138.061 14.5156C137.92 14.6354 137.816 14.776 137.748 14.9375C137.686 15.099 137.655 15.276 137.655 15.4688C137.655 15.6615 137.699 15.8359 137.787 15.9922C137.876 16.1432 138.004 16.263 138.17 16.3516C138.337 16.4349 138.532 16.4766 138.756 16.4766C139.095 16.4766 139.389 16.4089 139.639 16.2734C139.889 16.138 140.082 15.9714 140.217 15.7734C140.358 15.5755 140.431 15.388 140.436 15.2109L141.03 16.1641C140.946 16.3776 140.832 16.599 140.686 16.8281C140.545 17.0573 140.366 17.2734 140.147 17.4766C139.928 17.6745 139.665 17.8385 139.358 17.9688C139.051 18.0938 138.686 18.1562 138.264 18.1562C137.728 18.1562 137.241 18.0495 136.803 17.8359C136.371 17.6172 136.027 17.3177 135.772 16.9375C135.522 16.5521 135.397 16.1146 135.397 15.625C135.397 15.1823 135.48 14.7891 135.647 14.4453C135.814 14.1016 136.058 13.8125 136.381 13.5781C136.709 13.3385 137.118 13.1589 137.608 13.0391C138.097 12.9141 138.665 12.8516 139.311 12.8516H140.616ZM149.259 9.54688V11.1406H144.338V9.54688H149.259ZM145.556 7.46094H147.806V15.4531C147.806 15.6979 147.838 15.8854 147.9 16.0156C147.968 16.1458 148.067 16.237 148.197 16.2891C148.327 16.3359 148.491 16.3594 148.689 16.3594C148.83 16.3594 148.955 16.3542 149.064 16.3438C149.179 16.3281 149.275 16.3125 149.353 16.2969L149.361 17.9531C149.168 18.0156 148.96 18.0651 148.736 18.1016C148.512 18.138 148.265 18.1562 147.994 18.1562C147.499 18.1562 147.067 18.0755 146.697 17.9141C146.332 17.7474 146.051 17.4818 145.853 17.1172C145.655 16.7526 145.556 16.2734 145.556 15.6797V7.46094ZM156.341 15.9766V9.54688H158.591V18H156.473L156.341 15.9766ZM156.591 14.2422L157.255 14.2266C157.255 14.7891 157.19 15.3125 157.059 15.7969C156.929 16.276 156.734 16.6927 156.473 17.0469C156.213 17.3958 155.885 17.6693 155.489 17.8672C155.093 18.0599 154.627 18.1562 154.091 18.1562C153.679 18.1562 153.299 18.099 152.95 17.9844C152.606 17.8646 152.309 17.6797 152.059 17.4297C151.815 17.1745 151.622 16.849 151.481 16.4531C151.346 16.0521 151.278 15.5703 151.278 15.0078V9.54688H153.528V15.0234C153.528 15.2734 153.557 15.4844 153.614 15.6562C153.677 15.8281 153.762 15.9688 153.872 16.0781C153.981 16.1875 154.109 16.2656 154.255 16.3125C154.406 16.3594 154.572 16.3828 154.755 16.3828C155.218 16.3828 155.583 16.2891 155.848 16.1016C156.119 15.9141 156.309 15.6589 156.419 15.3359C156.533 15.0078 156.591 14.6432 156.591 14.2422ZM163.359 11.3906V18H161.109V9.54688H163.227L163.359 11.3906ZM165.906 9.49219L165.867 11.5781C165.758 11.5625 165.625 11.5495 165.469 11.5391C165.318 11.5234 165.18 11.5156 165.055 11.5156C164.737 11.5156 164.461 11.5573 164.227 11.6406C163.997 11.7188 163.805 11.8359 163.648 11.9922C163.497 12.1484 163.383 12.3385 163.305 12.5625C163.232 12.7865 163.19 13.0417 163.18 13.3281L162.727 13.1875C162.727 12.6406 162.781 12.138 162.891 11.6797C163 11.2161 163.159 10.8125 163.367 10.4688C163.581 10.125 163.841 9.85938 164.148 9.67188C164.456 9.48438 164.807 9.39062 165.203 9.39062C165.328 9.39062 165.456 9.40104 165.586 9.42188C165.716 9.4375 165.823 9.46094 165.906 9.49219ZM172.605 16.1562V6H174.87V18H172.831L172.605 16.1562ZM167.261 13.875V13.7109C167.261 13.0651 167.334 12.4792 167.48 11.9531C167.626 11.4219 167.839 10.9661 168.12 10.5859C168.402 10.2057 168.748 9.91146 169.159 9.70312C169.571 9.49479 170.04 9.39062 170.566 9.39062C171.06 9.39062 171.493 9.49479 171.863 9.70312C172.238 9.91146 172.555 10.2083 172.816 10.5938C173.081 10.974 173.295 11.4245 173.456 11.9453C173.618 12.4609 173.735 13.026 173.808 13.6406V14C173.735 14.5885 173.618 15.1354 173.456 15.6406C173.295 16.1458 173.081 16.5885 172.816 16.9688C172.555 17.3438 172.238 17.6354 171.863 17.8438C171.488 18.0521 171.05 18.1562 170.55 18.1562C170.024 18.1562 169.555 18.0495 169.144 17.8359C168.738 17.6224 168.394 17.3229 168.113 16.9375C167.836 16.5521 167.626 16.099 167.48 15.5781C167.334 15.0573 167.261 14.4896 167.261 13.875ZM169.511 13.7109V13.875C169.511 14.224 169.537 14.5495 169.589 14.8516C169.646 15.1536 169.738 15.4219 169.863 15.6562C169.993 15.8854 170.159 16.0651 170.363 16.1953C170.571 16.3203 170.823 16.3828 171.12 16.3828C171.506 16.3828 171.823 16.2969 172.073 16.125C172.323 15.9479 172.514 15.7057 172.644 15.3984C172.779 15.0911 172.857 14.737 172.878 14.3359V13.3125C172.863 12.9844 172.816 12.6901 172.738 12.4297C172.665 12.1641 172.555 11.9375 172.409 11.75C172.269 11.5625 172.092 11.4167 171.878 11.3125C171.67 11.2083 171.422 11.1562 171.136 11.1562C170.844 11.1562 170.594 11.224 170.386 11.3594C170.178 11.4896 170.008 11.6693 169.878 11.8984C169.753 12.1276 169.659 12.3984 169.597 12.7109C169.54 13.0182 169.511 13.3516 169.511 13.7109ZM181.991 16.0938V12.3281C181.991 12.0573 181.946 11.8255 181.858 11.6328C181.769 11.4349 181.631 11.2812 181.444 11.1719C181.261 11.0625 181.024 11.0078 180.733 11.0078C180.483 11.0078 180.267 11.0521 180.084 11.1406C179.902 11.224 179.761 11.3464 179.663 11.5078C179.564 11.6641 179.514 11.849 179.514 12.0625H177.264C177.264 11.7031 177.347 11.362 177.514 11.0391C177.681 10.7161 177.923 10.4323 178.241 10.1875C178.558 9.9375 178.936 9.74219 179.373 9.60156C179.816 9.46094 180.311 9.39062 180.858 9.39062C181.514 9.39062 182.097 9.5 182.608 9.71875C183.118 9.9375 183.519 10.2656 183.811 10.7031C184.108 11.1406 184.256 11.6875 184.256 12.3438V15.9609C184.256 16.4245 184.285 16.8047 184.342 17.1016C184.399 17.3932 184.483 17.6484 184.592 17.8672V18H182.319C182.209 17.7708 182.126 17.4844 182.069 17.1406C182.017 16.7917 181.991 16.4427 181.991 16.0938ZM182.288 12.8516L182.303 14.125H181.045C180.748 14.125 180.491 14.1589 180.272 14.2266C180.053 14.2943 179.873 14.3906 179.733 14.5156C179.592 14.6354 179.488 14.776 179.42 14.9375C179.358 15.099 179.327 15.276 179.327 15.4688C179.327 15.6615 179.371 15.8359 179.459 15.9922C179.548 16.1432 179.676 16.263 179.842 16.3516C180.009 16.4349 180.204 16.4766 180.428 16.4766C180.767 16.4766 181.061 16.4089 181.311 16.2734C181.561 16.138 181.754 15.9714 181.889 15.7734C182.03 15.5755 182.103 15.388 182.108 15.2109L182.702 16.1641C182.618 16.3776 182.504 16.599 182.358 16.8281C182.217 17.0573 182.038 17.2734 181.819 17.4766C181.6 17.6745 181.337 17.8385 181.03 17.9688C180.722 18.0938 180.358 18.1562 179.936 18.1562C179.399 18.1562 178.913 18.0495 178.475 17.8359C178.043 17.6172 177.699 17.3177 177.444 16.9375C177.194 16.5521 177.069 16.1146 177.069 15.625C177.069 15.1823 177.152 14.7891 177.319 14.4453C177.485 14.1016 177.73 13.8125 178.053 13.5781C178.381 13.3385 178.79 13.1589 179.28 13.0391C179.769 12.9141 180.337 12.8516 180.983 12.8516H182.288ZM189.173 17.0469L191.416 9.54688H193.83L190.431 19.2734C190.358 19.487 190.259 19.7161 190.134 19.9609C190.015 20.2057 189.851 20.4375 189.642 20.6562C189.439 20.8802 189.181 21.0625 188.869 21.2031C188.561 21.3438 188.184 21.4141 187.736 21.4141C187.522 21.4141 187.348 21.401 187.212 21.375C187.077 21.349 186.916 21.3125 186.728 21.2656V19.6172C186.785 19.6172 186.845 19.6172 186.908 19.6172C186.97 19.6224 187.03 19.625 187.087 19.625C187.384 19.625 187.627 19.5911 187.814 19.5234C188.002 19.4557 188.153 19.3516 188.267 19.2109C188.382 19.0755 188.473 18.8984 188.541 18.6797L189.173 17.0469ZM188.236 9.54688L190.072 15.6719L190.392 18.0547L188.861 18.2188L185.822 9.54688H188.236Z" fill="#1C1C1C"/>
<path d="M29.688 53.192C28.5467 53.192 27.512 52.9467 26.584 52.456C25.6667 51.9547 24.9413 51.2667 24.408 50.392C23.8853 49.5067 23.624 48.5093 23.624 47.4C23.624 46.2907 23.8853 45.2987 24.408 44.424C24.9413 43.5387 25.6667 42.8507 26.584 42.36C27.512 41.8587 28.552 41.608 29.704 41.608C30.6747 41.608 31.5493 41.7787 32.328 42.12C33.1173 42.4613 33.7787 42.952 34.312 43.592L32.648 45.128C31.8907 44.2533 30.952 43.816 29.832 43.816C29.1387 43.816 28.52 43.9707 27.976 44.28C27.432 44.5787 27.0053 45 26.696 45.544C26.3973 46.088 26.248 46.7067 26.248 47.4C26.248 48.0933 26.3973 48.712 26.696 49.256C27.0053 49.8 27.432 50.2267 27.976 50.536C28.52 50.8347 29.1387 50.984 29.832 50.984C30.952 50.984 31.8907 50.5413 32.648 49.656L34.312 51.192C33.7787 51.8427 33.1173 52.3387 32.328 52.68C31.5387 53.0213 30.6587 53.192 29.688 53.192ZM39.6855 53.128C38.7788 53.128 37.9628 52.9413 37.2375 52.568C36.5228 52.184 35.9628 51.656 35.5575 50.984C35.1522 50.312 34.9495 49.5493 34.9495 48.696C34.9495 47.8427 35.1522 47.08 35.5575 46.408C35.9628 45.736 36.5228 45.2133 37.2375 44.84C37.9628 44.456 38.7788 44.264 39.6855 44.264C40.5922 44.264 41.4028 44.456 42.1175 44.84C42.8322 45.2133 43.3922 45.736 43.7975 46.408C44.2028 47.08 44.4055 47.8427 44.4055 48.696C44.4055 49.5493 44.2028 50.312 43.7975 50.984C43.3922 51.656 42.8322 52.184 42.1175 52.568C41.4028 52.9413 40.5922 53.128 39.6855 53.128ZM39.6855 51.08C40.3255 51.08 40.8482 50.8667 41.2535 50.44C41.6695 50.0027 41.8775 49.4213 41.8775 48.696C41.8775 47.9707 41.6695 47.3947 41.2535 46.968C40.8482 46.5307 40.3255 46.312 39.6855 46.312C39.0455 46.312 38.5175 46.5307 38.1015 46.968C37.6855 47.3947 37.4775 47.9707 37.4775 48.696C37.4775 49.4213 37.6855 50.0027 38.1015 50.44C38.5175 50.8667 39.0455 51.08 39.6855 51.08ZM54.8419 41.128V53H52.4579V52.008C51.8392 52.7547 50.9432 53.128 49.7699 53.128C48.9592 53.128 48.2232 52.9467 47.5619 52.584C46.9112 52.2213 46.3992 51.704 46.0259 51.032C45.6525 50.36 45.4659 49.5813 45.4659 48.696C45.4659 47.8107 45.6525 47.032 46.0259 46.36C46.3992 45.688 46.9112 45.1707 47.5619 44.808C48.2232 44.4453 48.9592 44.264 49.7699 44.264C50.8685 44.264 51.7272 44.6107 52.3459 45.304V41.128H54.8419ZM50.2019 51.08C50.8312 51.08 51.3539 50.8667 51.7699 50.44C52.1859 50.0027 52.3939 49.4213 52.3939 48.696C52.3939 47.9707 52.1859 47.3947 51.7699 46.968C51.3539 46.5307 50.8312 46.312 50.2019 46.312C49.5619 46.312 49.0339 46.5307 48.6179 46.968C48.2019 47.3947 47.9939 47.9707 47.9939 48.696C47.9939 49.4213 48.2019 50.0027 48.6179 50.44C49.0339 50.8667 49.5619 51.08 50.2019 51.08ZM65.584 48.728C65.584 48.76 65.568 48.984 65.536 49.4H59.024C59.1413 49.9333 59.4187 50.3547 59.856 50.664C60.2933 50.9733 60.8373 51.128 61.488 51.128C61.936 51.128 62.3307 51.064 62.672 50.936C63.024 50.7973 63.3493 50.584 63.648 50.296L64.976 51.736C64.1653 52.664 62.9813 53.128 61.424 53.128C60.4533 53.128 59.5947 52.9413 58.848 52.568C58.1013 52.184 57.5253 51.656 57.12 50.984C56.7147 50.312 56.512 49.5493 56.512 48.696C56.512 47.8533 56.7093 47.096 57.104 46.424C57.5093 45.7413 58.0587 45.2133 58.752 44.84C59.456 44.456 60.24 44.264 61.104 44.264C61.9467 44.264 62.7093 44.4453 63.392 44.808C64.0747 45.1707 64.608 45.6933 64.992 46.376C65.3867 47.048 65.584 47.832 65.584 48.728ZM61.12 46.152C60.5547 46.152 60.08 46.312 59.696 46.632C59.312 46.952 59.0773 47.3893 58.992 47.944H63.232C63.1467 47.4 62.912 46.968 62.528 46.648C62.144 46.3173 61.6747 46.152 61.12 46.152ZM77.313 53.192C76.1717 53.192 75.137 52.9467 74.209 52.456C73.2917 51.9547 72.5663 51.2667 72.033 50.392C71.5103 49.5067 71.249 48.5093 71.249 47.4C71.249 46.2907 71.5103 45.2987 72.033 44.424C72.5663 43.5387 73.2917 42.8507 74.209 42.36C75.137 41.8587 76.177 41.608 77.329 41.608C78.2997 41.608 79.1743 41.7787 79.953 42.12C80.7423 42.4613 81.4037 42.952 81.937 43.592L80.273 45.128C79.5157 44.2533 78.577 43.816 77.457 43.816C76.7637 43.816 76.145 43.9707 75.601 44.28C75.057 44.5787 74.6303 45 74.321 45.544C74.0223 46.088 73.873 46.7067 73.873 47.4C73.873 48.0933 74.0223 48.712 74.321 49.256C74.6303 49.8 75.057 50.2267 75.601 50.536C76.145 50.8347 76.7637 50.984 77.457 50.984C78.577 50.984 79.5157 50.5413 80.273 49.656L81.937 51.192C81.4037 51.8427 80.7423 52.3387 79.953 52.68C79.1637 53.0213 78.2837 53.192 77.313 53.192ZM87.3105 53.128C86.4038 53.128 85.5878 52.9413 84.8625 52.568C84.1478 52.184 83.5878 51.656 83.1825 50.984C82.7772 50.312 82.5745 49.5493 82.5745 48.696C82.5745 47.8427 82.7772 47.08 83.1825 46.408C83.5878 45.736 84.1478 45.2133 84.8625 44.84C85.5878 44.456 86.4038 44.264 87.3105 44.264C88.2172 44.264 89.0278 44.456 89.7425 44.84C90.4572 45.2133 91.0172 45.736 91.4225 46.408C91.8278 47.08 92.0305 47.8427 92.0305 48.696C92.0305 49.5493 91.8278 50.312 91.4225 50.984C91.0172 51.656 90.4572 52.184 89.7425 52.568C89.0278 52.9413 88.2172 53.128 87.3105 53.128ZM87.3105 51.08C87.9505 51.08 88.4732 50.8667 88.8785 50.44C89.2945 50.0027 89.5025 49.4213 89.5025 48.696C89.5025 47.9707 89.2945 47.3947 88.8785 46.968C88.4732 46.5307 87.9505 46.312 87.3105 46.312C86.6705 46.312 86.1425 46.5307 85.7265 46.968C85.3105 47.3947 85.1025 47.9707 85.1025 48.696C85.1025 49.4213 85.3105 50.0027 85.7265 50.44C86.1425 50.8667 86.6705 51.08 87.3105 51.08ZM104.723 44.264C105.8 44.264 106.654 44.584 107.283 45.224C107.923 45.8533 108.243 46.8027 108.243 48.072V53H105.747V48.456C105.747 47.7733 105.603 47.2667 105.315 46.936C105.038 46.5947 104.638 46.424 104.115 46.424C103.528 46.424 103.064 46.616 102.723 47C102.382 47.3733 102.211 47.9333 102.211 48.68V53H99.7149V48.456C99.7149 47.1013 99.1709 46.424 98.0829 46.424C97.5069 46.424 97.0482 46.616 96.7069 47C96.3655 47.3733 96.1949 47.9333 96.1949 48.68V53H93.6989V44.392H96.0829V45.384C96.4029 45.0213 96.7922 44.744 97.2509 44.552C97.7202 44.36 98.2322 44.264 98.7869 44.264C99.3949 44.264 99.9442 44.3867 100.435 44.632C100.926 44.8667 101.32 45.2133 101.619 45.672C101.971 45.224 102.414 44.8773 102.947 44.632C103.491 44.3867 104.083 44.264 104.723 44.264ZM115.568 44.264C116.368 44.264 117.093 44.4507 117.744 44.824C118.405 45.1867 118.923 45.704 119.296 46.376C119.669 47.0373 119.856 47.8107 119.856 48.696C119.856 49.5813 119.669 50.36 119.296 51.032C118.923 51.6933 118.405 52.2107 117.744 52.584C117.093 52.9467 116.368 53.128 115.568 53.128C114.469 53.128 113.605 52.7813 112.976 52.088V56.104H110.48V44.392H112.864V45.384C113.483 44.6373 114.384 44.264 115.568 44.264ZM115.136 51.08C115.776 51.08 116.299 50.8667 116.704 50.44C117.12 50.0027 117.328 49.4213 117.328 48.696C117.328 47.9707 117.12 47.3947 116.704 46.968C116.299 46.5307 115.776 46.312 115.136 46.312C114.496 46.312 113.968 46.5307 113.552 46.968C113.147 47.3947 112.944 47.9707 112.944 48.696C112.944 49.4213 113.147 50.0027 113.552 50.44C113.968 50.8667 114.496 51.08 115.136 51.08ZM121.527 41.128H124.023V53H121.527V41.128ZM134.772 48.728C134.772 48.76 134.756 48.984 134.724 49.4H128.212C128.329 49.9333 128.606 50.3547 129.044 50.664C129.481 50.9733 130.025 51.128 130.676 51.128C131.124 51.128 131.518 51.064 131.86 50.936C132.212 50.7973 132.537 50.584 132.836 50.296L134.164 51.736C133.353 52.664 132.169 53.128 130.612 53.128C129.641 53.128 128.782 52.9413 128.036 52.568C127.289 52.184 126.713 51.656 126.308 50.984C125.902 50.312 125.7 49.5493 125.7 48.696C125.7 47.8533 125.897 47.096 126.292 46.424C126.697 45.7413 127.246 45.2133 127.94 44.84C128.644 44.456 129.428 44.264 130.292 44.264C131.134 44.264 131.897 44.4453 132.58 44.808C133.262 45.1707 133.796 45.6933 134.18 46.376C134.574 47.048 134.772 47.832 134.772 48.728ZM130.308 46.152C129.742 46.152 129.268 46.312 128.884 46.632C128.5 46.952 128.265 47.3893 128.18 47.944H132.42C132.334 47.4 132.1 46.968 131.716 46.648C131.332 46.3173 130.862 46.152 130.308 46.152ZM141.985 52.584C141.74 52.7653 141.436 52.904 141.073 53C140.721 53.0853 140.348 53.128 139.953 53.128C138.929 53.128 138.135 52.8667 137.569 52.344C137.015 51.8213 136.737 51.0533 136.737 50.04V46.504H135.409V44.584H136.737V42.488H139.233V44.584H141.377V46.504H139.233V50.008C139.233 50.3707 139.324 50.6533 139.505 50.856C139.697 51.048 139.964 51.144 140.305 51.144C140.7 51.144 141.036 51.0373 141.313 50.824L141.985 52.584ZM151.553 48.728C151.553 48.76 151.537 48.984 151.505 49.4H144.993C145.11 49.9333 145.387 50.3547 145.825 50.664C146.262 50.9733 146.806 51.128 147.457 51.128C147.905 51.128 148.299 51.064 148.641 50.936C148.993 50.7973 149.318 50.584 149.617 50.296L150.945 51.736C150.134 52.664 148.95 53.128 147.393 53.128C146.422 53.128 145.563 52.9413 144.817 52.568C144.07 52.184 143.494 51.656 143.089 50.984C142.683 50.312 142.481 49.5493 142.481 48.696C142.481 47.8533 142.678 47.096 143.073 46.424C143.478 45.7413 144.027 45.2133 144.721 44.84C145.425 44.456 146.209 44.264 147.073 44.264C147.915 44.264 148.678 44.4453 149.361 44.808C150.043 45.1707 150.577 45.6933 150.961 46.376C151.355 47.048 151.553 47.832 151.553 48.728ZM147.089 46.152C146.523 46.152 146.049 46.312 145.665 46.632C145.281 46.952 145.046 47.3893 144.961 47.944H149.201C149.115 47.4 148.881 46.968 148.497 46.648C148.113 46.3173 147.643 46.152 147.089 46.152Z" fill="#1C1C1C"/>
<path d="M31.92 74L31.909 69.38L29.643 73.186H28.84L26.585 69.479V74H24.913V66.3H26.387L29.269 71.085L32.107 66.3H33.57L33.592 74H31.92ZM38.1139 74.088C37.4905 74.088 36.9295 73.9597 36.4309 73.703C35.9395 73.439 35.5545 73.076 35.2759 72.614C34.9972 72.152 34.8579 71.6277 34.8579 71.041C34.8579 70.4543 34.9972 69.93 35.2759 69.468C35.5545 69.006 35.9395 68.6467 36.4309 68.39C36.9295 68.126 37.4905 67.994 38.1139 67.994C38.7372 67.994 39.2945 68.126 39.7859 68.39C40.2772 68.6467 40.6622 69.006 40.9409 69.468C41.2195 69.93 41.3589 70.4543 41.3589 71.041C41.3589 71.6277 41.2195 72.152 40.9409 72.614C40.6622 73.076 40.2772 73.439 39.7859 73.703C39.2945 73.9597 38.7372 74.088 38.1139 74.088ZM38.1139 72.68C38.5539 72.68 38.9132 72.5333 39.1919 72.24C39.4779 71.9393 39.6209 71.5397 39.6209 71.041C39.6209 70.5423 39.4779 70.1463 39.1919 69.853C38.9132 69.5523 38.5539 69.402 38.1139 69.402C37.6739 69.402 37.3109 69.5523 37.0249 69.853C36.7389 70.1463 36.5959 70.5423 36.5959 71.041C36.5959 71.5397 36.7389 71.9393 37.0249 72.24C37.3109 72.5333 37.6739 72.68 38.1139 72.68ZM46.1029 67.994C46.8362 67.994 47.4265 68.214 47.8739 68.654C48.3285 69.094 48.5559 69.7467 48.5559 70.612V74H46.8399V70.876C46.8399 70.4067 46.7372 70.0583 46.5319 69.831C46.3265 69.5963 46.0295 69.479 45.6409 69.479C45.2082 69.479 44.8635 69.6147 44.6069 69.886C44.3502 70.15 44.2219 70.546 44.2219 71.074V74H42.5059V65.838H44.2219V68.698C44.4492 68.4707 44.7242 68.2983 45.0469 68.181C45.3695 68.0563 45.7215 67.994 46.1029 67.994ZM50.7603 74.088C50.4597 74.088 50.2067 73.9853 50.0013 73.78C49.796 73.5747 49.6933 73.318 49.6933 73.01C49.6933 72.6947 49.796 72.4417 50.0013 72.251C50.2067 72.053 50.4597 71.954 50.7603 71.954C51.061 71.954 51.314 72.053 51.5193 72.251C51.7247 72.4417 51.8273 72.6947 51.8273 73.01C51.8273 73.318 51.7247 73.5747 51.5193 73.78C51.314 73.9853 51.061 74.088 50.7603 74.088ZM56.2265 66.3H59.7245C60.5605 66.3 61.2975 66.4613 61.9355 66.784C62.5808 67.0993 63.0795 67.5467 63.4315 68.126C63.7908 68.7053 63.9705 69.38 63.9705 70.15C63.9705 70.92 63.7908 71.5947 63.4315 72.174C63.0795 72.7533 62.5808 73.2043 61.9355 73.527C61.2975 73.8423 60.5605 74 59.7245 74H56.2265V66.3ZM59.6365 72.537C60.4065 72.537 61.0188 72.3243 61.4735 71.899C61.9355 71.4663 62.1665 70.8833 62.1665 70.15C62.1665 69.4167 61.9355 68.8373 61.4735 68.412C61.0188 67.9793 60.4065 67.763 59.6365 67.763H58.0085V72.537H59.6365ZM67.5804 67.994C68.497 67.994 69.201 68.214 69.6924 68.654C70.1837 69.0867 70.4294 69.743 70.4294 70.623V74H68.8234V73.263C68.5007 73.813 67.8994 74.088 67.0194 74.088C66.5647 74.088 66.1687 74.011 65.8314 73.857C65.5014 73.703 65.2484 73.4903 65.0724 73.219C64.8964 72.9477 64.8084 72.6397 64.8084 72.295C64.8084 71.745 65.0137 71.3123 65.4244 70.997C65.8424 70.6817 66.484 70.524 67.3494 70.524H68.7134C68.7134 70.15 68.5997 69.864 68.3724 69.666C68.145 69.4607 67.804 69.358 67.3494 69.358C67.034 69.358 66.7224 69.4093 66.4144 69.512C66.1137 69.6073 65.857 69.7393 65.6444 69.908L65.0284 68.709C65.351 68.4817 65.736 68.3057 66.1834 68.181C66.638 68.0563 67.1037 67.994 67.5804 67.994ZM67.4484 72.933C67.7417 72.933 68.002 72.867 68.2294 72.735C68.4567 72.5957 68.618 72.394 68.7134 72.13V71.525H67.5364C66.8324 71.525 66.4804 71.756 66.4804 72.218C66.4804 72.438 66.5647 72.614 66.7334 72.746C66.9094 72.8707 67.1477 72.933 67.4484 72.933ZM75.5794 67.994C76.3128 67.994 76.9031 68.214 77.3504 68.654C77.8051 69.094 78.0324 69.7467 78.0324 70.612V74H76.3164V70.876C76.3164 70.4067 76.2138 70.0583 76.0084 69.831C75.8031 69.5963 75.5061 69.479 75.1174 69.479C74.6848 69.479 74.3401 69.6147 74.0834 69.886C73.8268 70.15 73.6984 70.546 73.6984 71.074V74H71.9824V68.082H73.6214V68.775C73.8488 68.5257 74.1311 68.335 74.4684 68.203C74.8058 68.0637 75.1761 67.994 75.5794 67.994ZM85.6804 65.838V74H84.0414V73.318C83.616 73.8313 83 74.088 82.1934 74.088C81.636 74.088 81.13 73.9633 80.6754 73.714C80.228 73.4647 79.876 73.109 79.6194 72.647C79.3627 72.185 79.2344 71.6497 79.2344 71.041C79.2344 70.4323 79.3627 69.897 79.6194 69.435C79.876 68.973 80.228 68.6173 80.6754 68.368C81.13 68.1187 81.636 67.994 82.1934 67.994C82.9487 67.994 83.539 68.2323 83.9644 68.709V65.838H85.6804ZM82.4904 72.68C82.923 72.68 83.2824 72.5333 83.5684 72.24C83.8544 71.9393 83.9974 71.5397 83.9974 71.041C83.9974 70.5423 83.8544 70.1463 83.5684 69.853C83.2824 69.5523 82.923 69.402 82.4904 69.402C82.0504 69.402 81.6874 69.5523 81.4014 69.853C81.1154 70.1463 80.9724 70.5423 80.9724 71.041C80.9724 71.5397 81.1154 71.9393 81.4014 72.24C81.6874 72.5333 82.0504 72.68 82.4904 72.68ZM93.0656 71.063C93.0656 71.085 93.0546 71.239 93.0326 71.525H88.5556C88.6362 71.8917 88.8269 72.1813 89.1276 72.394C89.4282 72.6067 89.8022 72.713 90.2496 72.713C90.5576 72.713 90.8289 72.669 91.0636 72.581C91.3056 72.4857 91.5292 72.339 91.7346 72.141L92.6476 73.131C92.0902 73.769 91.2762 74.088 90.2056 74.088C89.5382 74.088 88.9479 73.9597 88.4346 73.703C87.9212 73.439 87.5252 73.076 87.2466 72.614C86.9679 72.152 86.8286 71.6277 86.8286 71.041C86.8286 70.4617 86.9642 69.941 87.2356 69.479C87.5142 69.0097 87.8919 68.6467 88.3686 68.39C88.8526 68.126 89.3916 67.994 89.9856 67.994C90.5649 67.994 91.0892 68.1187 91.5586 68.368C92.0279 68.6173 92.3946 68.9767 92.6586 69.446C92.9299 69.908 93.0656 70.447 93.0656 71.063ZM89.9966 69.292C89.6079 69.292 89.2816 69.402 89.0176 69.622C88.7536 69.842 88.5922 70.1427 88.5336 70.524H91.4486C91.3899 70.15 91.2286 69.853 90.9646 69.633C90.7006 69.4057 90.3779 69.292 89.9966 69.292ZM95.847 68.863C96.0523 68.577 96.3273 68.3607 96.672 68.214C97.024 68.0673 97.4273 67.994 97.882 67.994V69.578C97.6913 69.5633 97.563 69.556 97.497 69.556C97.0057 69.556 96.6207 69.6953 96.342 69.974C96.0633 70.2453 95.924 70.656 95.924 71.206V74H94.208V68.082H95.847V68.863Z" fill="#1C1C1C" fill-opacity="0.6"/>
</svg>
