<svg width="320" height="146" viewBox="0 0 320 146" fill="none" xmlns="http://www.w3.org/2000/svg">
<g filter="url(#filter0_d_264_2)">
<path d="M7 32C7 18.1929 18.1929 7 32 7H313V114C313 127.807 301.807 139 288 139H32C18.1929 139 7 127.807 7 114V32Z" fill="#FDAD19"/>
</g>
<line x1="39.5" y1="30.5" x2="39.5" y2="54.5" stroke="white" stroke-width="3" stroke-linecap="round"/>
<path d="M68.2656 35.6016V47H66.0156V38.1953L63.3125 39.0547V37.2812L68.0234 35.6016H68.2656ZM80.425 40.3125V42.2812C80.425 43.1354 80.3339 43.8724 80.1516 44.4922C79.9693 45.1068 79.7063 45.612 79.3625 46.0078C79.024 46.3984 78.6203 46.6875 78.1516 46.875C77.6828 47.0625 77.162 47.1562 76.5891 47.1562C76.1307 47.1562 75.7036 47.099 75.3078 46.9844C74.912 46.8646 74.5552 46.6797 74.2375 46.4297C73.925 46.1797 73.6542 45.8646 73.425 45.4844C73.201 45.099 73.0292 44.6406 72.9094 44.1094C72.7896 43.5781 72.7297 42.9688 72.7297 42.2812V40.3125C72.7297 39.4583 72.8208 38.7266 73.0031 38.1172C73.1906 37.5026 73.4536 37 73.7922 36.6094C74.1359 36.2188 74.5422 35.9323 75.0109 35.75C75.4797 35.5625 76.0005 35.4688 76.5734 35.4688C77.0318 35.4688 77.4563 35.5286 77.8469 35.6484C78.2427 35.763 78.5995 35.9427 78.9172 36.1875C79.2349 36.4323 79.5057 36.7474 79.7297 37.1328C79.9536 37.513 80.1255 37.9688 80.2453 38.5C80.3651 39.026 80.425 39.6302 80.425 40.3125ZM78.1672 42.5781V40.0078C78.1672 39.5964 78.1438 39.237 78.0969 38.9297C78.0552 38.6224 77.9901 38.362 77.9016 38.1484C77.813 37.9297 77.7036 37.7526 77.5734 37.6172C77.4432 37.4818 77.2948 37.3828 77.1281 37.3203C76.9615 37.2578 76.7766 37.2266 76.5734 37.2266C76.3182 37.2266 76.0917 37.276 75.8938 37.375C75.701 37.474 75.537 37.6328 75.4016 37.8516C75.2661 38.0651 75.162 38.3516 75.0891 38.7109C75.0214 39.0651 74.9875 39.4974 74.9875 40.0078V42.5781C74.9875 42.9896 75.0083 43.3516 75.05 43.6641C75.0969 43.9766 75.1646 44.2448 75.2531 44.4688C75.3469 44.6875 75.4563 44.8672 75.5813 45.0078C75.7115 45.1432 75.8599 45.2422 76.0266 45.3047C76.1984 45.3672 76.3859 45.3984 76.5891 45.3984C76.8391 45.3984 77.0604 45.349 77.2531 45.25C77.451 45.1458 77.6177 44.9844 77.7531 44.7656C77.8938 44.5417 77.9979 44.25 78.0656 43.8906C78.1333 43.5312 78.1672 43.0938 78.1672 42.5781ZM87.7203 45.9141C87.7203 45.5807 87.8349 45.3021 88.0641 45.0781C88.2984 44.8542 88.6083 44.7422 88.9937 44.7422C89.3792 44.7422 89.6865 44.8542 89.9156 45.0781C90.15 45.3021 90.2672 45.5807 90.2672 45.9141C90.2672 46.2474 90.15 46.526 89.9156 46.75C89.6865 46.974 89.3792 47.0859 88.9937 47.0859C88.6083 47.0859 88.2984 46.974 88.0641 46.75C87.8349 46.526 87.7203 46.2474 87.7203 45.9141ZM87.7203 39.4688C87.7203 39.1354 87.8349 38.8568 88.0641 38.6328C88.2984 38.4089 88.6083 38.2969 88.9937 38.2969C89.3792 38.2969 89.6865 38.4089 89.9156 38.6328C90.15 38.8568 90.2672 39.1354 90.2672 39.4688C90.2672 39.8021 90.15 40.0807 89.9156 40.3047C89.6865 40.5286 89.3792 40.6406 88.9937 40.6406C88.6083 40.6406 88.2984 40.5286 88.0641 40.3047C87.8349 40.0807 87.7203 39.8021 87.7203 39.4688ZM104.542 41.8203L102.745 41.3906L103.394 35.625H109.784V37.4453H105.245L104.964 39.9688C105.115 39.8802 105.344 39.7865 105.652 39.6875C105.959 39.5833 106.303 39.5312 106.683 39.5312C107.235 39.5312 107.724 39.6172 108.152 39.7891C108.579 39.9609 108.941 40.2109 109.237 40.5391C109.54 40.8672 109.769 41.2682 109.925 41.7422C110.081 42.2161 110.159 42.7526 110.159 43.3516C110.159 43.8568 110.081 44.3385 109.925 44.7969C109.769 45.25 109.532 45.6562 109.214 46.0156C108.896 46.3698 108.498 46.6484 108.019 46.8516C107.54 47.0547 106.972 47.1562 106.316 47.1562C105.826 47.1562 105.352 47.0833 104.894 46.9375C104.441 46.7917 104.032 46.5755 103.667 46.2891C103.308 46.0026 103.019 45.6562 102.8 45.25C102.586 44.8385 102.474 44.3698 102.464 43.8438H104.698C104.73 44.1667 104.813 44.4453 104.948 44.6797C105.089 44.9089 105.274 45.0859 105.503 45.2109C105.732 45.3359 106.001 45.3984 106.308 45.3984C106.594 45.3984 106.839 45.3438 107.042 45.2344C107.245 45.125 107.409 44.974 107.534 44.7812C107.659 44.5833 107.751 44.3542 107.808 44.0938C107.87 43.8281 107.902 43.5417 107.902 43.2344C107.902 42.9271 107.865 42.6484 107.792 42.3984C107.719 42.1484 107.607 41.9323 107.456 41.75C107.305 41.5677 107.112 41.4271 106.878 41.3281C106.649 41.2292 106.381 41.1797 106.073 41.1797C105.657 41.1797 105.334 41.2448 105.105 41.375C104.881 41.5052 104.693 41.6536 104.542 41.8203ZM114.006 45.2891H114.155C114.78 45.2891 115.316 45.2135 115.764 45.0625C116.217 44.9062 116.59 44.6823 116.881 44.3906C117.173 44.099 117.389 43.7422 117.53 43.3203C117.67 42.8932 117.741 42.4089 117.741 41.8672V39.7109C117.741 39.2995 117.699 38.9375 117.616 38.625C117.537 38.3125 117.423 38.0547 117.272 37.8516C117.126 37.6432 116.954 37.487 116.756 37.3828C116.564 37.2786 116.35 37.2266 116.116 37.2266C115.866 37.2266 115.644 37.2891 115.452 37.4141C115.259 37.5339 115.095 37.6979 114.959 37.9062C114.829 38.1146 114.728 38.3542 114.655 38.625C114.587 38.8906 114.553 39.1693 114.553 39.4609C114.553 39.7526 114.587 40.0312 114.655 40.2969C114.722 40.5573 114.824 40.7891 114.959 40.9922C115.095 41.1901 115.264 41.349 115.467 41.4688C115.67 41.5833 115.91 41.6406 116.186 41.6406C116.452 41.6406 116.689 41.5911 116.897 41.4922C117.11 41.388 117.29 41.2526 117.436 41.0859C117.587 40.9193 117.702 40.7344 117.78 40.5312C117.863 40.3281 117.905 40.1224 117.905 39.9141L118.647 40.3203C118.647 40.6849 118.569 41.0443 118.412 41.3984C118.256 41.7526 118.037 42.0755 117.756 42.3672C117.48 42.6536 117.16 42.8828 116.795 43.0547C116.431 43.2266 116.04 43.3125 115.623 43.3125C115.092 43.3125 114.621 43.2161 114.209 43.0234C113.798 42.8255 113.449 42.5547 113.162 42.2109C112.881 41.862 112.668 41.4557 112.522 40.9922C112.376 40.5286 112.303 40.026 112.303 39.4844C112.303 38.9323 112.392 38.4141 112.569 37.9297C112.751 37.4453 113.009 37.0182 113.342 36.6484C113.681 36.2786 114.084 35.9896 114.553 35.7812C115.027 35.5677 115.553 35.4609 116.131 35.4609C116.709 35.4609 117.235 35.5729 117.709 35.7969C118.183 36.0208 118.59 36.3385 118.928 36.75C119.267 37.1562 119.527 37.6432 119.709 38.2109C119.897 38.7786 119.991 39.4089 119.991 40.1016V40.8828C119.991 41.6224 119.91 42.3099 119.748 42.9453C119.592 43.5807 119.355 44.1562 119.037 44.6719C118.725 45.1823 118.334 45.6198 117.866 45.9844C117.402 46.349 116.863 46.6276 116.248 46.8203C115.634 47.013 114.946 47.1094 114.186 47.1094H114.006V45.2891ZM146.069 41.2344V43H141.655V41.2344H146.069ZM165.581 35.625V47H163.238V35.625H165.581ZM170.113 40.4844V42.3125H164.941V40.4844H170.113ZM170.659 35.625V37.4609H164.941V35.625H170.659ZM174.725 40.3906V47H172.475V38.5469H174.592L174.725 40.3906ZM177.272 38.4922L177.233 40.5781C177.123 40.5625 176.991 40.5495 176.834 40.5391C176.683 40.5234 176.545 40.5156 176.42 40.5156C176.103 40.5156 175.827 40.5573 175.592 40.6406C175.363 40.7188 175.17 40.8359 175.014 40.9922C174.863 41.1484 174.748 41.3385 174.67 41.5625C174.597 41.7865 174.556 42.0417 174.545 42.3281L174.092 42.1875C174.092 41.6406 174.147 41.138 174.256 40.6797C174.366 40.2161 174.524 39.8125 174.733 39.4688C174.946 39.125 175.207 38.8594 175.514 38.6719C175.821 38.4844 176.173 38.3906 176.569 38.3906C176.694 38.3906 176.821 38.401 176.952 38.4219C177.082 38.4375 177.189 38.4609 177.272 38.4922ZM181.509 38.5469V47H179.252V38.5469H181.509ZM179.111 36.3438C179.111 36.0156 179.226 35.7448 179.455 35.5312C179.684 35.3177 179.991 35.2109 180.377 35.2109C180.757 35.2109 181.061 35.3177 181.291 35.5312C181.525 35.7448 181.642 36.0156 181.642 36.3438C181.642 36.6719 181.525 36.9427 181.291 37.1562C181.061 37.3698 180.757 37.4766 180.377 37.4766C179.991 37.4766 179.684 37.3698 179.455 37.1562C179.226 36.9427 179.111 36.6719 179.111 36.3438ZM189.161 45.1562V35H191.427V47H189.387L189.161 45.1562ZM183.817 42.875V42.7109C183.817 42.0651 183.89 41.4792 184.036 40.9531C184.182 40.4219 184.395 39.9661 184.677 39.5859C184.958 39.2057 185.304 38.9115 185.716 38.7031C186.127 38.4948 186.596 38.3906 187.122 38.3906C187.617 38.3906 188.049 38.4948 188.419 38.7031C188.794 38.9115 189.111 39.2083 189.372 39.5938C189.637 39.974 189.851 40.4245 190.012 40.9453C190.174 41.4609 190.291 42.026 190.364 42.6406V43C190.291 43.5885 190.174 44.1354 190.012 44.6406C189.851 45.1458 189.637 45.5885 189.372 45.9688C189.111 46.3438 188.794 46.6354 188.419 46.8438C188.044 47.0521 187.606 47.1562 187.106 47.1562C186.58 47.1562 186.111 47.0495 185.7 46.8359C185.294 46.6224 184.95 46.3229 184.669 45.9375C184.393 45.5521 184.182 45.099 184.036 44.5781C183.89 44.0573 183.817 43.4896 183.817 42.875ZM186.067 42.7109V42.875C186.067 43.224 186.093 43.5495 186.145 43.8516C186.203 44.1536 186.294 44.4219 186.419 44.6562C186.549 44.8854 186.716 45.0651 186.919 45.1953C187.127 45.3203 187.38 45.3828 187.677 45.3828C188.062 45.3828 188.38 45.2969 188.63 45.125C188.88 44.9479 189.07 44.7057 189.2 44.3984C189.335 44.0911 189.414 43.737 189.434 43.3359V42.3125C189.419 41.9844 189.372 41.6901 189.294 41.4297C189.221 41.1641 189.111 40.9375 188.966 40.75C188.825 40.5625 188.648 40.4167 188.434 40.3125C188.226 40.2083 187.979 40.1562 187.692 40.1562C187.401 40.1562 187.151 40.224 186.942 40.3594C186.734 40.4896 186.565 40.6693 186.434 40.8984C186.309 41.1276 186.216 41.3984 186.153 41.7109C186.096 42.0182 186.067 42.3516 186.067 42.7109ZM198.547 45.0938V41.3281C198.547 41.0573 198.503 40.8255 198.414 40.6328C198.326 40.4349 198.188 40.2812 198 40.1719C197.818 40.0625 197.581 40.0078 197.289 40.0078C197.039 40.0078 196.823 40.0521 196.641 40.1406C196.458 40.224 196.318 40.3464 196.219 40.5078C196.12 40.6641 196.07 40.849 196.07 41.0625H193.82C193.82 40.7031 193.904 40.362 194.07 40.0391C194.237 39.7161 194.479 39.4323 194.797 39.1875C195.115 38.9375 195.492 38.7422 195.93 38.6016C196.372 38.4609 196.867 38.3906 197.414 38.3906C198.07 38.3906 198.654 38.5 199.164 38.7188C199.674 38.9375 200.076 39.2656 200.367 39.7031C200.664 40.1406 200.812 40.6875 200.812 41.3438V44.9609C200.812 45.4245 200.841 45.8047 200.898 46.1016C200.956 46.3932 201.039 46.6484 201.148 46.8672V47H198.875C198.766 46.7708 198.682 46.4844 198.625 46.1406C198.573 45.7917 198.547 45.4427 198.547 45.0938ZM198.844 41.8516L198.859 43.125H197.602C197.305 43.125 197.047 43.1589 196.828 43.2266C196.609 43.2943 196.43 43.3906 196.289 43.5156C196.148 43.6354 196.044 43.776 195.977 43.9375C195.914 44.099 195.883 44.276 195.883 44.4688C195.883 44.6615 195.927 44.8359 196.016 44.9922C196.104 45.1432 196.232 45.263 196.398 45.3516C196.565 45.4349 196.76 45.4766 196.984 45.4766C197.323 45.4766 197.617 45.4089 197.867 45.2734C198.117 45.138 198.31 44.9714 198.445 44.7734C198.586 44.5755 198.659 44.388 198.664 44.2109L199.258 45.1641C199.174 45.3776 199.06 45.599 198.914 45.8281C198.773 46.0573 198.594 46.2734 198.375 46.4766C198.156 46.6745 197.893 46.8385 197.586 46.9688C197.279 47.0938 196.914 47.1562 196.492 47.1562C195.956 47.1562 195.469 47.0495 195.031 46.8359C194.599 46.6172 194.255 46.3177 194 45.9375C193.75 45.5521 193.625 45.1146 193.625 44.625C193.625 44.1823 193.708 43.7891 193.875 43.4453C194.042 43.1016 194.286 42.8125 194.609 42.5781C194.938 42.3385 195.346 42.1589 195.836 42.0391C196.326 41.9141 196.893 41.8516 197.539 41.8516H198.844ZM205.73 46.0469L207.972 38.5469H210.386L206.988 48.2734C206.915 48.487 206.816 48.7161 206.691 48.9609C206.571 49.2057 206.407 49.4375 206.198 49.6562C205.995 49.8802 205.738 50.0625 205.425 50.2031C205.118 50.3438 204.74 50.4141 204.292 50.4141C204.079 50.4141 203.904 50.401 203.769 50.375C203.633 50.349 203.472 50.3125 203.284 50.2656V48.6172C203.342 48.6172 203.402 48.6172 203.464 48.6172C203.527 48.6224 203.586 48.625 203.644 48.625C203.941 48.625 204.183 48.5911 204.37 48.5234C204.558 48.4557 204.709 48.3516 204.823 48.2109C204.938 48.0755 205.029 47.8984 205.097 47.6797L205.73 46.0469ZM204.792 38.5469L206.628 44.6719L206.948 47.0547L205.417 47.2188L202.378 38.5469H204.792Z" fill="white"/>
<path d="M67.704 78.032V82H65.112V78L60.776 70.8H63.528L66.52 75.776L69.512 70.8H72.056L67.704 78.032ZM76.1074 82.128C75.2007 82.128 74.3847 81.9413 73.6594 81.568C72.9447 81.184 72.3847 80.656 71.9794 79.984C71.574 79.312 71.3714 78.5493 71.3714 77.696C71.3714 76.8427 71.574 76.08 71.9794 75.408C72.3847 74.736 72.9447 74.2133 73.6594 73.84C74.3847 73.456 75.2007 73.264 76.1074 73.264C77.014 73.264 77.8247 73.456 78.5394 73.84C79.254 74.2133 79.814 74.736 80.2194 75.408C80.6247 76.08 80.8274 76.8427 80.8274 77.696C80.8274 78.5493 80.6247 79.312 80.2194 79.984C79.814 80.656 79.254 81.184 78.5394 81.568C77.8247 81.9413 77.014 82.128 76.1074 82.128ZM76.1074 80.08C76.7474 80.08 77.27 79.8667 77.6754 79.44C78.0914 79.0027 78.2994 78.4213 78.2994 77.696C78.2994 76.9707 78.0914 76.3947 77.6754 75.968C77.27 75.5307 76.7474 75.312 76.1074 75.312C75.4674 75.312 74.9394 75.5307 74.5234 75.968C74.1074 76.3947 73.8994 76.9707 73.8994 77.696C73.8994 78.4213 74.1074 79.0027 74.5234 79.44C74.9394 79.8667 75.4674 80.08 76.1074 80.08ZM91.1678 73.392V82H88.7998V80.976C88.4691 81.3493 88.0744 81.6373 87.6158 81.84C87.1571 82.032 86.6611 82.128 86.1278 82.128C84.9971 82.128 84.1011 81.8027 83.4398 81.152C82.7784 80.5013 82.4478 79.536 82.4478 78.256V73.392H84.9438V77.888C84.9438 79.2747 85.5251 79.968 86.6878 79.968C87.2851 79.968 87.7651 79.776 88.1278 79.392C88.4904 78.9973 88.6718 78.416 88.6718 77.648V73.392H91.1678ZM95.8641 74.528C96.1628 74.112 96.5628 73.7973 97.0641 73.584C97.5761 73.3707 98.1628 73.264 98.8241 73.264V75.568C98.5468 75.5467 98.3601 75.536 98.2641 75.536C97.5495 75.536 96.9895 75.7387 96.5841 76.144C96.1788 76.5387 95.9761 77.136 95.9761 77.936V82H93.4801V73.392H95.8641V74.528ZM107.142 82.192C106.385 82.192 105.686 82.0533 105.046 81.776C104.417 81.488 103.899 81.0827 103.494 80.56L104.934 78.832C105.542 79.6533 106.235 80.064 107.014 80.064C108.07 80.064 108.598 79.4453 108.598 78.208V72.88H104.662V70.8H111.174V78.064C111.174 79.44 110.833 80.4747 110.15 81.168C109.467 81.8507 108.465 82.192 107.142 82.192ZM117.654 82.128C116.748 82.128 115.932 81.9413 115.206 81.568C114.492 81.184 113.932 80.656 113.526 79.984C113.121 79.312 112.918 78.5493 112.918 77.696C112.918 76.8427 113.121 76.08 113.526 75.408C113.932 74.736 114.492 74.2133 115.206 73.84C115.932 73.456 116.748 73.264 117.654 73.264C118.561 73.264 119.372 73.456 120.086 73.84C120.801 74.2133 121.361 74.736 121.766 75.408C122.172 76.08 122.374 76.8427 122.374 77.696C122.374 78.5493 122.172 79.312 121.766 79.984C121.361 80.656 120.801 81.184 120.086 81.568C119.372 81.9413 118.561 82.128 117.654 82.128ZM117.654 80.08C118.294 80.08 118.817 79.8667 119.222 79.44C119.638 79.0027 119.846 78.4213 119.846 77.696C119.846 76.9707 119.638 76.3947 119.222 75.968C118.817 75.5307 118.294 75.312 117.654 75.312C117.014 75.312 116.486 75.5307 116.07 75.968C115.654 76.3947 115.446 76.9707 115.446 77.696C115.446 78.4213 115.654 79.0027 116.07 79.44C116.486 79.8667 117.014 80.08 117.654 80.08ZM132.715 73.392V82H130.347V80.976C130.016 81.3493 129.621 81.6373 129.163 81.84C128.704 82.032 128.208 82.128 127.675 82.128C126.544 82.128 125.648 81.8027 124.987 81.152C124.325 80.5013 123.995 79.536 123.995 78.256V73.392H126.491V77.888C126.491 79.2747 127.072 79.968 128.235 79.968C128.832 79.968 129.312 79.776 129.675 79.392C130.037 78.9973 130.219 78.416 130.219 77.648V73.392H132.715ZM137.411 74.528C137.71 74.112 138.11 73.7973 138.611 73.584C139.123 73.3707 139.71 73.264 140.371 73.264V75.568C140.094 75.5467 139.907 75.536 139.811 75.536C139.096 75.536 138.536 75.7387 138.131 76.144C137.726 76.5387 137.523 77.136 137.523 77.936V82H135.027V73.392H137.411V74.528ZM147.087 73.264C148.154 73.264 149.012 73.584 149.663 74.224C150.324 74.864 150.655 75.8133 150.655 77.072V82H148.159V77.456C148.159 76.7733 148.01 76.2667 147.711 75.936C147.412 75.5947 146.98 75.424 146.415 75.424C145.786 75.424 145.284 75.6213 144.911 76.016C144.538 76.4 144.351 76.976 144.351 77.744V82H141.855V73.392H144.239V74.4C144.57 74.0373 144.98 73.76 145.471 73.568C145.962 73.3653 146.5 73.264 147.087 73.264ZM161.443 77.728C161.443 77.76 161.427 77.984 161.395 78.4H154.883C155.001 78.9333 155.278 79.3547 155.715 79.664C156.153 79.9733 156.697 80.128 157.347 80.128C157.795 80.128 158.19 80.064 158.531 79.936C158.883 79.7973 159.209 79.584 159.507 79.296L160.835 80.736C160.025 81.664 158.841 82.128 157.283 82.128C156.313 82.128 155.454 81.9413 154.707 81.568C153.961 81.184 153.385 80.656 152.979 79.984C152.574 79.312 152.371 78.5493 152.371 77.696C152.371 76.8533 152.569 76.096 152.963 75.424C153.369 74.7413 153.918 74.2133 154.611 73.84C155.315 73.456 156.099 73.264 156.963 73.264C157.806 73.264 158.569 73.4453 159.251 73.808C159.934 74.1707 160.467 74.6933 160.851 75.376C161.246 76.048 161.443 76.832 161.443 77.728ZM156.979 75.152C156.414 75.152 155.939 75.312 155.555 75.632C155.171 75.952 154.937 76.3893 154.851 76.944H159.091C159.006 76.4 158.771 75.968 158.387 75.648C158.003 75.3173 157.534 75.152 156.979 75.152ZM171.493 73.392L167.605 82.528C167.21 83.52 166.72 84.2187 166.133 84.624C165.557 85.0293 164.858 85.232 164.037 85.232C163.589 85.232 163.146 85.1627 162.709 85.024C162.272 84.8853 161.914 84.6933 161.637 84.448L162.549 82.672C162.741 82.8427 162.96 82.976 163.205 83.072C163.461 83.168 163.712 83.216 163.957 83.216C164.298 83.216 164.576 83.1307 164.789 82.96C165.002 82.8 165.194 82.528 165.365 82.144L165.397 82.064L161.669 73.392H164.245L166.661 79.232L169.093 73.392H171.493ZM182.595 81.584C182.349 81.7653 182.045 81.904 181.683 82C181.331 82.0853 180.957 82.128 180.563 82.128C179.539 82.128 178.744 81.8667 178.179 81.344C177.624 80.8213 177.347 80.0533 177.347 79.04V75.504H176.019V73.584H177.347V71.488H179.843V73.584H181.987V75.504H179.843V79.008C179.843 79.3707 179.933 79.6533 180.115 79.856C180.307 80.048 180.573 80.144 180.915 80.144C181.309 80.144 181.645 80.0373 181.923 79.824L182.595 81.584ZM187.826 82.128C186.919 82.128 186.103 81.9413 185.378 81.568C184.663 81.184 184.103 80.656 183.698 79.984C183.293 79.312 183.09 78.5493 183.09 77.696C183.09 76.8427 183.293 76.08 183.698 75.408C184.103 74.736 184.663 74.2133 185.378 73.84C186.103 73.456 186.919 73.264 187.826 73.264C188.733 73.264 189.543 73.456 190.258 73.84C190.973 74.2133 191.533 74.736 191.938 75.408C192.343 76.08 192.546 76.8427 192.546 77.696C192.546 78.5493 192.343 79.312 191.938 79.984C191.533 80.656 190.973 81.184 190.258 81.568C189.543 81.9413 188.733 82.128 187.826 82.128ZM187.826 80.08C188.466 80.08 188.989 79.8667 189.394 79.44C189.81 79.0027 190.018 78.4213 190.018 77.696C190.018 76.9707 189.81 76.3947 189.394 75.968C188.989 75.5307 188.466 75.312 187.826 75.312C187.186 75.312 186.658 75.5307 186.242 75.968C185.826 76.3947 185.618 76.9707 185.618 77.696C185.618 78.4213 185.826 79.0027 186.242 79.44C186.658 79.8667 187.186 80.08 187.826 80.08ZM209.114 82L209.098 75.28L205.802 80.816H204.634L201.354 75.424V82H198.922V70.8H201.066L205.258 77.76L209.386 70.8H211.514L211.546 82H209.114ZM217.499 73.264C218.832 73.264 219.856 73.584 220.571 74.224C221.286 74.8533 221.643 75.808 221.643 77.088V82H219.307V80.928C218.838 81.728 217.963 82.128 216.683 82.128C216.022 82.128 215.446 82.016 214.955 81.792C214.475 81.568 214.107 81.2587 213.851 80.864C213.595 80.4693 213.467 80.0213 213.467 79.52C213.467 78.72 213.766 78.0907 214.363 77.632C214.971 77.1733 215.904 76.944 217.163 76.944H219.147C219.147 76.4 218.982 75.984 218.651 75.696C218.32 75.3973 217.824 75.248 217.163 75.248C216.704 75.248 216.251 75.3227 215.803 75.472C215.366 75.6107 214.992 75.8027 214.683 76.048L213.787 74.304C214.256 73.9733 214.816 73.7173 215.467 73.536C216.128 73.3547 216.806 73.264 217.499 73.264ZM217.307 80.448C217.734 80.448 218.112 80.352 218.443 80.16C218.774 79.9573 219.008 79.664 219.147 79.28V78.4H217.435C216.411 78.4 215.899 78.736 215.899 79.408C215.899 79.728 216.022 79.984 216.267 80.176C216.523 80.3573 216.87 80.448 217.307 80.448ZM226.798 82.128C226.083 82.128 225.385 82.0427 224.702 81.872C224.019 81.6907 223.475 81.4667 223.07 81.2L223.902 79.408C224.286 79.6533 224.75 79.856 225.294 80.016C225.838 80.1653 226.371 80.24 226.894 80.24C227.95 80.24 228.478 79.9787 228.478 79.456C228.478 79.2107 228.334 79.0347 228.046 78.928C227.758 78.8213 227.315 78.7307 226.718 78.656C226.014 78.5493 225.433 78.4267 224.974 78.288C224.515 78.1493 224.115 77.904 223.774 77.552C223.443 77.2 223.278 76.6987 223.278 76.048C223.278 75.504 223.433 75.024 223.742 74.608C224.062 74.1813 224.521 73.8507 225.118 73.616C225.726 73.3813 226.441 73.264 227.262 73.264C227.87 73.264 228.473 73.3333 229.07 73.472C229.678 73.6 230.179 73.7813 230.574 74.016L229.742 75.792C228.985 75.3653 228.158 75.152 227.262 75.152C226.729 75.152 226.329 75.2267 226.062 75.376C225.795 75.5253 225.662 75.7173 225.662 75.952C225.662 76.2187 225.806 76.4053 226.094 76.512C226.382 76.6187 226.841 76.72 227.47 76.816C228.174 76.9333 228.75 77.0613 229.198 77.2C229.646 77.328 230.035 77.568 230.366 77.92C230.697 78.272 230.862 78.7627 230.862 79.392C230.862 79.9253 230.702 80.4 230.382 80.816C230.062 81.232 229.593 81.5573 228.974 81.792C228.366 82.016 227.641 82.128 226.798 82.128ZM237.954 81.584C237.709 81.7653 237.405 81.904 237.042 82C236.69 82.0853 236.317 82.128 235.922 82.128C234.898 82.128 234.103 81.8667 233.538 81.344C232.983 80.8213 232.706 80.0533 232.706 79.04V75.504H231.378V73.584H232.706V71.488H235.202V73.584H237.346V75.504H235.202V79.008C235.202 79.3707 235.293 79.6533 235.474 79.856C235.666 80.048 235.933 80.144 236.274 80.144C236.669 80.144 237.005 80.0373 237.282 79.824L237.954 81.584ZM247.522 77.728C247.522 77.76 247.506 77.984 247.474 78.4H240.962C241.079 78.9333 241.356 79.3547 241.794 79.664C242.231 79.9733 242.775 80.128 243.426 80.128C243.874 80.128 244.268 80.064 244.61 79.936C244.962 79.7973 245.287 79.584 245.586 79.296L246.914 80.736C246.103 81.664 244.919 82.128 243.362 82.128C242.391 82.128 241.532 81.9413 240.786 81.568C240.039 81.184 239.463 80.656 239.058 79.984C238.652 79.312 238.45 78.5493 238.45 77.696C238.45 76.8533 238.647 76.096 239.042 75.424C239.447 74.7413 239.996 74.2133 240.69 73.84C241.394 73.456 242.178 73.264 243.042 73.264C243.884 73.264 244.647 73.4453 245.33 73.808C246.012 74.1707 246.546 74.6933 246.93 75.376C247.324 76.048 247.522 76.832 247.522 77.728ZM243.058 75.152C242.492 75.152 242.018 75.312 241.634 75.632C241.25 75.952 241.015 76.3893 240.93 76.944H245.17C245.084 76.4 244.85 75.968 244.466 75.648C244.082 75.3173 243.612 75.152 243.058 75.152ZM251.567 74.528C251.866 74.112 252.266 73.7973 252.767 73.584C253.279 73.3707 253.866 73.264 254.527 73.264V75.568C254.25 75.5467 254.063 75.536 253.967 75.536C253.253 75.536 252.693 75.7387 252.287 76.144C251.882 76.5387 251.679 77.136 251.679 77.936V82H249.183V73.392H251.567V74.528ZM264.852 73.392L260.964 82.528C260.57 83.52 260.079 84.2187 259.492 84.624C258.916 85.0293 258.218 85.232 257.396 85.232C256.948 85.232 256.506 85.1627 256.068 85.024C255.631 84.8853 255.274 84.6933 254.996 84.448L255.908 82.672C256.1 82.8427 256.319 82.976 256.564 83.072C256.82 83.168 257.071 83.216 257.316 83.216C257.658 83.216 257.935 83.1307 258.148 82.96C258.362 82.8 258.554 82.528 258.724 82.144L258.756 82.064L255.028 73.392H257.604L260.02 79.232L262.452 73.392H264.852Z" fill="white"/>
<path d="M67.984 101.35H64.409L63.727 103H61.901L65.333 95.3H67.093L70.536 103H68.666L67.984 101.35ZM67.423 99.997L66.202 97.049L64.981 99.997H67.423ZM74.8109 96.994C75.5442 96.994 76.1345 97.214 76.5819 97.654C77.0365 98.094 77.2639 98.7467 77.2639 99.612V103H75.5479V99.876C75.5479 99.4067 75.4452 99.0583 75.2399 98.831C75.0345 98.5963 74.7375 98.479 74.3489 98.479C73.9162 98.479 73.5715 98.6147 73.3149 98.886C73.0582 99.15 72.9299 99.546 72.9299 100.074V103H71.2139V97.082H72.8529V97.775C73.0802 97.5257 73.3625 97.335 73.6999 97.203C74.0372 97.0637 74.4075 96.994 74.8109 96.994ZM84.9118 94.838V103H83.2728V102.318C82.8475 102.831 82.2315 103.088 81.4248 103.088C80.8675 103.088 80.3615 102.963 79.9068 102.714C79.4595 102.465 79.1075 102.109 78.8508 101.647C78.5941 101.185 78.4658 100.65 78.4658 100.041C78.4658 99.4323 78.5941 98.897 78.8508 98.435C79.1075 97.973 79.4595 97.6173 79.9068 97.368C80.3615 97.1187 80.8675 96.994 81.4248 96.994C82.1801 96.994 82.7705 97.2323 83.1958 97.709V94.838H84.9118ZM81.7218 101.68C82.1545 101.68 82.5138 101.533 82.7998 101.24C83.0858 100.939 83.2288 100.54 83.2288 100.041C83.2288 99.5423 83.0858 99.1463 82.7998 98.853C82.5138 98.5523 82.1545 98.402 81.7218 98.402C81.2818 98.402 80.9188 98.5523 80.6328 98.853C80.3468 99.1463 80.2038 99.5423 80.2038 100.041C80.2038 100.54 80.3468 100.939 80.6328 101.24C80.9188 101.533 81.2818 101.68 81.7218 101.68ZM88.139 97.863C88.3443 97.577 88.6193 97.3607 88.964 97.214C89.316 97.0673 89.7193 96.994 90.174 96.994V98.578C89.9833 98.5633 89.855 98.556 89.789 98.556C89.2977 98.556 88.9127 98.6953 88.634 98.974C88.3553 99.2453 88.216 99.656 88.216 100.206V103H86.5V97.082H88.139V97.863ZM96.9376 100.063C96.9376 100.085 96.9266 100.239 96.9046 100.525H92.4276C92.5083 100.892 92.699 101.181 92.9996 101.394C93.3003 101.607 93.6743 101.713 94.1216 101.713C94.4296 101.713 94.701 101.669 94.9356 101.581C95.1776 101.486 95.4013 101.339 95.6066 101.141L96.5196 102.131C95.9623 102.769 95.1483 103.088 94.0776 103.088C93.4103 103.088 92.82 102.96 92.3066 102.703C91.7933 102.439 91.3973 102.076 91.1186 101.614C90.84 101.152 90.7006 100.628 90.7006 100.041C90.7006 99.4617 90.8363 98.941 91.1076 98.479C91.3863 98.0097 91.764 97.6467 92.2406 97.39C92.7246 97.126 93.2636 96.994 93.8576 96.994C94.437 96.994 94.9613 97.1187 95.4306 97.368C95.9 97.6173 96.2666 97.9767 96.5306 98.446C96.802 98.908 96.9376 99.447 96.9376 100.063ZM93.8686 98.292C93.48 98.292 93.1536 98.402 92.8896 98.622C92.6256 98.842 92.4643 99.1427 92.4056 99.524H95.3206C95.262 99.15 95.1006 98.853 94.8366 98.633C94.5726 98.4057 94.25 98.292 93.8686 98.292ZM107.477 97.082L105.332 103H103.682L102.351 99.326L100.976 103H99.3257L97.1917 97.082H98.8087L100.206 101.086L101.658 97.082H103.11L104.518 101.086L105.959 97.082H107.477ZM118.573 95.3V103H116.791V99.843H113.293V103H111.511V95.3H113.293V98.336H116.791V95.3H118.573ZM126.235 97.082V103H124.607V102.296C124.38 102.553 124.109 102.751 123.793 102.89C123.478 103.022 123.137 103.088 122.77 103.088C121.993 103.088 121.377 102.864 120.922 102.417C120.468 101.97 120.24 101.306 120.24 100.426V97.082H121.956V100.173C121.956 101.126 122.356 101.603 123.155 101.603C123.566 101.603 123.896 101.471 124.145 101.207C124.395 100.936 124.519 100.536 124.519 100.008V97.082H126.235ZM131.422 96.994C132.156 96.994 132.746 97.214 133.193 97.654C133.648 98.094 133.875 98.7467 133.875 99.612V103H132.159V99.876C132.159 99.4067 132.057 99.0583 131.851 98.831C131.646 98.5963 131.349 98.479 130.96 98.479C130.528 98.479 130.183 98.6147 129.926 98.886C129.67 99.15 129.541 99.546 129.541 100.074V103H127.825V97.082H129.464V97.775C129.692 97.5257 129.974 97.335 130.311 97.203C130.649 97.0637 131.019 96.994 131.422 96.994ZM139.248 102.714C139.079 102.839 138.87 102.934 138.621 103C138.379 103.059 138.122 103.088 137.851 103.088C137.147 103.088 136.6 102.908 136.212 102.549C135.83 102.19 135.64 101.662 135.64 100.965V98.534H134.727V97.214H135.64V95.773H137.356V97.214H138.83V98.534H137.356V100.943C137.356 101.192 137.418 101.387 137.543 101.526C137.675 101.658 137.858 101.724 138.093 101.724C138.364 101.724 138.595 101.651 138.786 101.504L139.248 102.714ZM140.978 100.954C141.286 100.954 141.539 101.053 141.737 101.251C141.935 101.442 142.034 101.695 142.034 102.01C142.034 102.157 142.016 102.303 141.979 102.45C141.943 102.597 141.862 102.817 141.737 103.11L141.11 104.694H140.021L140.505 102.945C140.322 102.872 140.175 102.754 140.065 102.593C139.963 102.424 139.911 102.23 139.911 102.01C139.911 101.695 140.01 101.442 140.208 101.251C140.414 101.053 140.67 100.954 140.978 100.954ZM146.434 95.3H149.932C150.768 95.3 151.505 95.4613 152.143 95.784C152.788 96.0993 153.287 96.5467 153.639 97.126C153.998 97.7053 154.178 98.38 154.178 99.15C154.178 99.92 153.998 100.595 153.639 101.174C153.287 101.753 152.788 102.204 152.143 102.527C151.505 102.842 150.768 103 149.932 103H146.434V95.3ZM149.844 101.537C150.614 101.537 151.226 101.324 151.681 100.899C152.143 100.466 152.374 99.8833 152.374 99.15C152.374 98.4167 152.143 97.8373 151.681 97.412C151.226 96.9793 150.614 96.763 149.844 96.763H148.216V101.537H149.844ZM157.787 96.994C158.704 96.994 159.408 97.214 159.899 97.654C160.391 98.0867 160.636 98.743 160.636 99.623V103H159.03V102.263C158.708 102.813 158.106 103.088 157.226 103.088C156.772 103.088 156.376 103.011 156.038 102.857C155.708 102.703 155.455 102.49 155.279 102.219C155.103 101.948 155.015 101.64 155.015 101.295C155.015 100.745 155.221 100.312 155.631 99.997C156.049 99.6817 156.691 99.524 157.556 99.524H158.92C158.92 99.15 158.807 98.864 158.579 98.666C158.352 98.4607 158.011 98.358 157.556 98.358C157.241 98.358 156.929 98.4093 156.621 98.512C156.321 98.6073 156.064 98.7393 155.851 98.908L155.235 97.709C155.558 97.4817 155.943 97.3057 156.39 97.181C156.845 97.0563 157.311 96.994 157.787 96.994ZM157.655 101.933C157.949 101.933 158.209 101.867 158.436 101.735C158.664 101.596 158.825 101.394 158.92 101.13V100.525H157.743C157.039 100.525 156.687 100.756 156.687 101.218C156.687 101.438 156.772 101.614 156.94 101.746C157.116 101.871 157.355 101.933 157.655 101.933ZM167.956 97.082L165.459 103H163.688L161.202 97.082H162.973L164.612 101.108L166.306 97.082H167.956ZM168.656 97.082H170.372V103H168.656V97.082ZM169.514 96.257C169.199 96.257 168.942 96.1653 168.744 95.982C168.546 95.7987 168.447 95.5713 168.447 95.3C168.447 95.0287 168.546 94.8013 168.744 94.618C168.942 94.4347 169.199 94.343 169.514 94.343C169.83 94.343 170.086 94.431 170.284 94.607C170.482 94.783 170.581 95.003 170.581 95.267C170.581 95.553 170.482 95.7913 170.284 95.982C170.086 96.1653 169.83 96.257 169.514 96.257ZM177.993 94.838V103H176.354V102.318C175.929 102.831 175.313 103.088 174.506 103.088C173.949 103.088 173.443 102.963 172.988 102.714C172.541 102.465 172.189 102.109 171.932 101.647C171.675 101.185 171.547 100.65 171.547 100.041C171.547 99.4323 171.675 98.897 171.932 98.435C172.189 97.973 172.541 97.6173 172.988 97.368C173.443 97.1187 173.949 96.994 174.506 96.994C175.261 96.994 175.852 97.2323 176.277 97.709V94.838H177.993ZM174.803 101.68C175.236 101.68 175.595 101.533 175.881 101.24C176.167 100.939 176.31 100.54 176.31 100.041C176.31 99.5423 176.167 99.1463 175.881 98.853C175.595 98.5523 175.236 98.402 174.803 98.402C174.363 98.402 174 98.5523 173.714 98.853C173.428 99.1463 173.285 99.5423 173.285 100.041C173.285 100.54 173.428 100.939 173.714 101.24C174 101.533 174.363 101.68 174.803 101.68ZM184.412 96.752H181.948V95.3H188.658V96.752H186.194V103H184.412V96.752ZM193.093 96.994C193.826 96.994 194.417 97.214 194.864 97.654C195.319 98.094 195.546 98.7467 195.546 99.612V103H193.83V99.876C193.83 99.4067 193.727 99.0583 193.522 98.831C193.317 98.5963 193.02 98.479 192.631 98.479C192.198 98.479 191.854 98.6147 191.597 98.886C191.34 99.15 191.212 99.546 191.212 100.074V103H189.496V94.838H191.212V97.698C191.439 97.4707 191.714 97.2983 192.037 97.181C192.36 97.0563 192.712 96.994 193.093 96.994ZM199.982 103.088C199.359 103.088 198.798 102.96 198.299 102.703C197.808 102.439 197.423 102.076 197.144 101.614C196.865 101.152 196.726 100.628 196.726 100.041C196.726 99.4543 196.865 98.93 197.144 98.468C197.423 98.006 197.808 97.6467 198.299 97.39C198.798 97.126 199.359 96.994 199.982 96.994C200.605 96.994 201.163 97.126 201.654 97.39C202.145 97.6467 202.53 98.006 202.809 98.468C203.088 98.93 203.227 99.4543 203.227 100.041C203.227 100.628 203.088 101.152 202.809 101.614C202.53 102.076 202.145 102.439 201.654 102.703C201.163 102.96 200.605 103.088 199.982 103.088ZM199.982 101.68C200.422 101.68 200.781 101.533 201.06 101.24C201.346 100.939 201.489 100.54 201.489 100.041C201.489 99.5423 201.346 99.1463 201.06 98.853C200.781 98.5523 200.422 98.402 199.982 98.402C199.542 98.402 199.179 98.5523 198.893 98.853C198.607 99.1463 198.464 99.5423 198.464 100.041C198.464 100.54 198.607 100.939 198.893 101.24C199.179 101.533 199.542 101.68 199.982 101.68ZM211.953 96.994C212.694 96.994 213.28 97.214 213.713 97.654C214.153 98.0867 214.373 98.7393 214.373 99.612V103H212.657V99.876C212.657 99.4067 212.558 99.0583 212.36 98.831C212.169 98.5963 211.894 98.479 211.535 98.479C211.132 98.479 210.813 98.611 210.578 98.875C210.343 99.1317 210.226 99.5167 210.226 100.03V103H208.51V99.876C208.51 98.9447 208.136 98.479 207.388 98.479C206.992 98.479 206.677 98.611 206.442 98.875C206.207 99.1317 206.09 99.5167 206.09 100.03V103H204.374V97.082H206.013V97.764C206.233 97.5147 206.501 97.324 206.816 97.192C207.139 97.06 207.491 96.994 207.872 96.994C208.29 96.994 208.668 97.0783 209.005 97.247C209.342 97.4083 209.614 97.6467 209.819 97.962C210.061 97.654 210.365 97.4157 210.732 97.247C211.106 97.0783 211.513 96.994 211.953 96.994ZM218.298 96.994C219.215 96.994 219.919 97.214 220.41 97.654C220.901 98.0867 221.147 98.743 221.147 99.623V103H219.541V102.263C219.218 102.813 218.617 103.088 217.737 103.088C217.282 103.088 216.886 103.011 216.549 102.857C216.219 102.703 215.966 102.49 215.79 102.219C215.614 101.948 215.526 101.64 215.526 101.295C215.526 100.745 215.731 100.312 216.142 99.997C216.56 99.6817 217.202 99.524 218.067 99.524H219.431C219.431 99.15 219.317 98.864 219.09 98.666C218.863 98.4607 218.522 98.358 218.067 98.358C217.752 98.358 217.44 98.4093 217.132 98.512C216.831 98.6073 216.575 98.7393 216.362 98.908L215.746 97.709C216.069 97.4817 216.454 97.3057 216.901 97.181C217.356 97.0563 217.821 96.994 218.298 96.994ZM218.166 101.933C218.459 101.933 218.72 101.867 218.947 101.735C219.174 101.596 219.336 101.394 219.431 101.13V100.525H218.254C217.55 100.525 217.198 100.756 217.198 101.218C217.198 101.438 217.282 101.614 217.451 101.746C217.627 101.871 217.865 101.933 218.166 101.933ZM224.691 103.088C224.2 103.088 223.72 103.029 223.25 102.912C222.781 102.787 222.407 102.633 222.128 102.45L222.7 101.218C222.964 101.387 223.283 101.526 223.657 101.636C224.031 101.739 224.398 101.79 224.757 101.79C225.483 101.79 225.846 101.61 225.846 101.251C225.846 101.082 225.747 100.961 225.549 100.888C225.351 100.815 225.047 100.752 224.636 100.701C224.152 100.628 223.753 100.543 223.437 100.448C223.122 100.353 222.847 100.184 222.612 99.942C222.385 99.7 222.271 99.3553 222.271 98.908C222.271 98.534 222.378 98.204 222.59 97.918C222.81 97.6247 223.126 97.3973 223.536 97.236C223.954 97.0747 224.446 96.994 225.01 96.994C225.428 96.994 225.843 97.0417 226.253 97.137C226.671 97.225 227.016 97.3497 227.287 97.511L226.715 98.732C226.195 98.4387 225.626 98.292 225.01 98.292C224.644 98.292 224.369 98.3433 224.185 98.446C224.002 98.5487 223.91 98.6807 223.91 98.842C223.91 99.0253 224.009 99.1537 224.207 99.227C224.405 99.3003 224.721 99.37 225.153 99.436C225.637 99.5167 226.033 99.6047 226.341 99.7C226.649 99.788 226.917 99.953 227.144 100.195C227.372 100.437 227.485 100.774 227.485 101.207C227.485 101.574 227.375 101.9 227.155 102.186C226.935 102.472 226.613 102.696 226.187 102.857C225.769 103.011 225.271 103.088 224.691 103.088Z" fill="white" fill-opacity="0.65"/>
<defs>
<filter id="filter0_d_264_2" x="0" y="0" width="320" height="146" filterUnits="userSpaceOnUse" color-interpolation-filters="sRGB">
<feFlood flood-opacity="0" result="BackgroundImageFix"/>
<feColorMatrix in="SourceAlpha" type="matrix" values="0 0 0 0 0 0 0 0 0 0 0 0 0 0 0 0 0 0 127 0" result="hardAlpha"/>
<feOffset/>
<feGaussianBlur stdDeviation="3.5"/>
<feComposite in2="hardAlpha" operator="out"/>
<feColorMatrix type="matrix" values="0 0 0 0 0 0 0 0 0 0 0 0 0 0 0 0 0 0 0.25 0"/>
<feBlend mode="normal" in2="BackgroundImageFix" result="effect1_dropShadow_264_2"/>
<feBlend mode="normal" in="SourceGraphic" in2="effect1_dropShadow_264_2" result="shape"/>
</filter>
</defs>
</svg>
