<svg width="24" height="25" viewBox="0 0 24 25" fill="none" xmlns="http://www.w3.org/2000/svg">
<g clip-path="url(#clip0_127_35)">
<path d="M17.4999 1.92048C16.3739 1.93799 15.2724 2.25233 14.3067 2.83175C13.341 3.41117 12.5453 4.23515 12 5.22048C11.4546 4.23515 10.6589 3.41117 9.69319 2.83175C8.72749 2.25233 7.626 1.93799 6.49996 1.92048C4.7049 1.99847 3.01366 2.78373 1.79574 4.10471C0.577817 5.42569 -0.0677922 7.175 -4.17121e-05 8.97048C-4.17121e-05 13.5175 4.78596 18.4835 8.79995 21.8505C9.69617 22.6036 10.8293 23.0165 12 23.0165C13.1706 23.0165 14.3037 22.6036 15.1999 21.8505C19.2139 18.4835 23.9999 13.5175 23.9999 8.97048C24.0677 7.175 23.4221 5.42569 22.2042 4.10471C20.9862 2.78373 19.295 1.99847 17.4999 1.92048ZM13.915 20.3205C13.3789 20.7719 12.7007 21.0194 12 21.0194C11.2992 21.0194 10.621 20.7719 10.085 20.3205C4.94696 16.0095 1.99996 11.8735 1.99996 8.97048C1.9316 7.70519 2.36632 6.46421 3.20932 5.51818C4.05232 4.57215 5.23519 3.99783 6.49996 3.92048C7.76472 3.99783 8.94759 4.57215 9.79059 5.51818C10.6336 6.46421 11.0683 7.70519 11 8.97048C11 9.2357 11.1053 9.49005 11.2928 9.67759C11.4804 9.86512 11.7347 9.97048 12 9.97048C12.2652 9.97048 12.5195 9.86512 12.7071 9.67759C12.8946 9.49005 13 9.2357 13 8.97048C12.9316 7.70519 13.3663 6.46421 14.2093 5.51818C15.0523 4.57215 16.2352 3.99783 17.4999 3.92048C18.7647 3.99783 19.9476 4.57215 20.7906 5.51818C21.6336 6.46421 22.0683 7.70519 21.9999 8.97048C21.9999 11.8735 19.0529 16.0095 13.915 20.3165V20.3205Z" fill="white"/>
</g>
<defs>
<clipPath id="clip0_127_35">
<rect width="24" height="24" fill="white" transform="translate(0 0.003479)"/>
</clipPath>
</defs>
</svg>
