<svg width="24" height="25" viewBox="0 0 24 25" fill="none" xmlns="http://www.w3.org/2000/svg">
<g clip-path="url(#clip0_127_26)">
<path d="M19 2.00348H18V1.00348C18 0.738263 17.8946 0.483909 17.7071 0.296372C17.5196 0.108836 17.2652 0.003479 17 0.003479C16.7348 0.003479 16.4804 0.108836 16.2929 0.296372C16.1054 0.483909 16 0.738263 16 1.00348V2.00348H8V1.00348C8 0.738263 7.89464 0.483909 7.70711 0.296372C7.51957 0.108836 7.26522 0.003479 7 0.003479C6.73478 0.003479 6.48043 0.108836 6.29289 0.296372C6.10536 0.483909 6 0.738263 6 1.00348V2.00348H5C3.67441 2.00507 2.40356 2.53236 1.46622 3.4697C0.528882 4.40704 0.00158786 5.67788 0 7.00348L0 19.0035C0.00158786 20.3291 0.528882 21.5999 1.46622 22.5373C2.40356 23.4746 3.67441 24.0019 5 24.0035H19C20.3256 24.0019 21.5964 23.4746 22.5338 22.5373C23.4711 21.5999 23.9984 20.3291 24 19.0035V7.00348C23.9984 5.67788 23.4711 4.40704 22.5338 3.4697C21.5964 2.53236 20.3256 2.00507 19 2.00348ZM2 7.00348C2 6.20783 2.31607 5.44477 2.87868 4.88216C3.44129 4.31955 4.20435 4.00348 5 4.00348H19C19.7956 4.00348 20.5587 4.31955 21.1213 4.88216C21.6839 5.44477 22 6.20783 22 7.00348V8.00348H2V7.00348ZM19 22.0035H5C4.20435 22.0035 3.44129 21.6874 2.87868 21.1248C2.31607 20.5622 2 19.7991 2 19.0035V10.0035H22V19.0035C22 19.7991 21.6839 20.5622 21.1213 21.1248C20.5587 21.6874 19.7956 22.0035 19 22.0035Z" fill="white"/>
<path d="M12 16.5035C12.8284 16.5035 13.5 15.8319 13.5 15.0035C13.5 14.1751 12.8284 13.5035 12 13.5035C11.1716 13.5035 10.5 14.1751 10.5 15.0035C10.5 15.8319 11.1716 16.5035 12 16.5035Z" fill="white"/>
<path d="M7 16.5035C7.82843 16.5035 8.5 15.8319 8.5 15.0035C8.5 14.1751 7.82843 13.5035 7 13.5035C6.17157 13.5035 5.5 14.1751 5.5 15.0035C5.5 15.8319 6.17157 16.5035 7 16.5035Z" fill="white"/>
<path d="M17 16.5035C17.8284 16.5035 18.5 15.8319 18.5 15.0035C18.5 14.1751 17.8284 13.5035 17 13.5035C16.1716 13.5035 15.5 14.1751 15.5 15.0035C15.5 15.8319 16.1716 16.5035 17 16.5035Z" fill="white"/>
</g>
<defs>
<clipPath id="clip0_127_26">
<rect width="24" height="24" fill="white" transform="translate(0 0.003479)"/>
</clipPath>
</defs>
</svg>
