<svg width="18" height="24" viewBox="0 0 18 24" fill="none" xmlns="http://www.w3.org/2000/svg">
<path d="M9 12C10.1867 12 11.3467 11.6481 12.3334 10.9888C13.3201 10.3295 14.0892 9.39243 14.5433 8.29607C14.9974 7.19971 15.1162 5.99331 14.8847 4.82943C14.6532 3.66554 14.0818 2.59645 13.2426 1.75733C12.4035 0.918216 11.3344 0.346772 10.1705 0.11526C9.00666 -0.116251 7.80026 0.0025692 6.7039 0.456695C5.60754 0.91082 4.67047 1.67986 4.01118 2.66655C3.35189 3.65324 3 4.81328 3 5.99997C3.00159 7.59078 3.63424 9.11598 4.75911 10.2409C5.88399 11.3657 7.40919 11.9984 9 12ZM9 1.99997C9.79113 1.99997 10.5645 2.23457 11.2223 2.67409C11.8801 3.11362 12.3928 3.73833 12.6955 4.46924C12.9983 5.20014 13.0775 6.00441 12.9231 6.78033C12.7688 7.55626 12.3878 8.26899 11.8284 8.8284C11.269 9.38781 10.5563 9.76877 9.78036 9.92311C9.00444 10.0775 8.20017 9.99824 7.46927 9.69549C6.73836 9.39274 6.11365 8.88005 5.67412 8.22225C5.2346 7.56445 5 6.7911 5 5.99997C5 4.93911 5.42143 3.92169 6.17157 3.17154C6.92172 2.4214 7.93913 1.99997 9 1.99997Z" fill="white"/>
<path d="M9 14C6.61386 14.0027 4.32621 14.9517 2.63896 16.639C0.951708 18.3262 0.00264685 20.6139 0 23C0 23.2652 0.105357 23.5196 0.292893 23.7071C0.480429 23.8947 0.734783 24 1 24C1.26522 24 1.51957 23.8947 1.70711 23.7071C1.89464 23.5196 2 23.2652 2 23C2 21.1435 2.7375 19.363 4.05025 18.0503C5.363 16.7375 7.14348 16 9 16C10.8565 16 12.637 16.7375 13.9497 18.0503C15.2625 19.363 16 21.1435 16 23C16 23.2652 16.1053 23.5196 16.2929 23.7071C16.4804 23.8947 16.7348 24 17 24C17.2652 24 17.5196 23.8947 17.7071 23.7071C17.8946 23.5196 18 23.2652 18 23C17.9973 20.6139 17.0483 18.3262 15.361 16.639C13.6738 14.9517 11.3861 14.0027 9 14Z" fill="white"/>
</svg>
