<svg width="24" height="25" viewBox="0 0 24 25" fill="none" xmlns="http://www.w3.org/2000/svg">
<g clip-path="url(#clip0_127_38)">
<path d="M12 0.003479C9.62663 0.003479 7.30655 0.707267 5.33316 2.02584C3.35977 3.34442 1.8217 5.21856 0.913451 7.41128C0.00519943 9.60399 -0.232441 12.0168 0.230582 14.3446C0.693605 16.6723 1.83649 18.8105 3.51472 20.4888C5.19295 22.167 7.33115 23.3099 9.65892 23.7729C11.9867 24.2359 14.3995 23.9983 16.5922 23.09C18.7849 22.1818 20.6591 20.6437 21.9776 18.6703C23.2962 16.6969 24 14.3769 24 12.0035C23.9966 8.82194 22.7312 5.77169 20.4815 3.522C18.2318 1.27231 15.1815 0.00692008 12 0.003479V0.003479ZM20.647 7.00348H17.426C16.705 5.33246 15.7556 3.76956 14.605 2.35948C17.1515 3.05241 19.3223 4.72095 20.647 7.00348ZM16.5 12.0035C16.4918 13.0216 16.3314 14.0328 16.024 15.0035H7.97601C7.66866 14.0328 7.50821 13.0216 7.50001 12.0035C7.50821 10.9853 7.66866 9.97415 7.97601 9.00348H16.024C16.3314 9.97415 16.4918 10.9853 16.5 12.0035ZM8.77801 17.0035H15.222C14.3732 18.6792 13.2882 20.2243 12 21.5915C10.7114 20.2247 9.62625 18.6795 8.77801 17.0035ZM8.77801 7.00348C9.62677 5.32775 10.7119 3.78264 12 2.41548C13.2886 3.78225 14.3738 5.32744 15.222 7.00348H8.77801ZM9.40001 2.35948C8.24767 3.76926 7.29659 5.33218 6.57401 7.00348H3.35301C4.67886 4.71991 6.85166 3.05123 9.40001 2.35948ZM2.46101 9.00348H5.90001C5.64076 9.98262 5.50636 10.9906 5.50001 12.0035C5.50636 13.0163 5.64076 14.0243 5.90001 15.0035H2.46101C1.84635 13.0507 1.84635 10.9563 2.46101 9.00348ZM3.35301 17.0035H6.57401C7.29659 18.6748 8.24767 20.2377 9.40001 21.6475C6.85166 20.9557 4.67886 19.287 3.35301 17.0035ZM14.605 21.6475C15.7556 20.2374 16.705 18.6745 17.426 17.0035H20.647C19.3223 19.286 17.1515 20.9545 14.605 21.6475ZM21.539 15.0035H18.1C18.3592 14.0243 18.4936 13.0163 18.5 12.0035C18.4936 10.9906 18.3592 9.98262 18.1 9.00348H21.537C22.1517 10.9563 22.1517 13.0507 21.537 15.0035H21.539Z" fill="white"/>
</g>
<defs>
<clipPath id="clip0_127_38">
<rect width="24" height="24" fill="white" transform="translate(0 0.003479)"/>
</clipPath>
</defs>
</svg>
