<svg width="24" height="24" viewBox="0 0 24 24" fill="none" xmlns="http://www.w3.org/2000/svg">
<g clip-path="url(#clip0_127_12)">
<path d="M23.121 9.06898L15.536 1.48299C14.5972 0.546977 13.3257 0.0213623 12 0.0213623C10.6743 0.0213623 9.40276 0.546977 8.46401 1.48299L0.879011 9.06898C0.599437 9.34676 0.377782 9.67728 0.226894 10.0414C0.0760072 10.4055 -0.0011104 10.7959 1.20795e-05 11.19V21.007C1.20795e-05 21.8026 0.316082 22.5657 0.878691 23.1283C1.4413 23.6909 2.20436 24.007 3.00001 24.007H21C21.7956 24.007 22.5587 23.6909 23.1213 23.1283C23.6839 22.5657 24 21.8026 24 21.007V11.19C24.0011 10.7959 23.924 10.4055 23.7731 10.0414C23.6222 9.67728 23.4006 9.34676 23.121 9.06898ZM15 22.007H9.00001V18.073C9.00001 17.2773 9.31608 16.5143 9.87868 15.9517C10.4413 15.389 11.2044 15.073 12 15.073C12.7957 15.073 13.5587 15.389 14.1213 15.9517C14.6839 16.5143 15 17.2773 15 18.073V22.007ZM22 21.007C22 21.2722 21.8946 21.5265 21.7071 21.7141C21.5196 21.9016 21.2652 22.007 21 22.007H17V18.073C17 16.7469 16.4732 15.4751 15.5355 14.5374C14.5979 13.5998 13.3261 13.073 12 13.073C10.6739 13.073 9.40215 13.5998 8.46447 14.5374C7.52679 15.4751 7.00001 16.7469 7.00001 18.073V22.007H3.00001C2.73479 22.007 2.48044 21.9016 2.2929 21.7141C2.10537 21.5265 2.00001 21.2722 2.00001 21.007V11.19C2.00094 10.925 2.1062 10.671 2.29301 10.483L9.87801 2.89999C10.4417 2.33892 11.2047 2.02393 12 2.02393C12.7953 2.02393 13.5583 2.33892 14.122 2.89999L21.707 10.486C21.8931 10.6732 21.9983 10.926 22 11.19V21.007Z" fill="white"/>
</g>
<defs>
<clipPath id="clip0_127_12">
<rect width="24" height="24" fill="white"/>
</clipPath>
</defs>
</svg>
